<?xml version="1.0" encoding="utf-8"?>
<!-- Generator: Adobe Illustrator 17.1.0, SVG Export Plug-In . SVG Version: 6.00 Build 0)  -->
<!DOCTYPE svg PUBLIC "-//W3C//DTD SVG 1.1//EN" "http://www.w3.org/Graphics/SVG/1.1/DTD/svg11.dtd">
<svg version="1.1" id="Layer_1" xmlns="http://www.w3.org/2000/svg" xmlns:xlink="http://www.w3.org/1999/xlink" x="0px" y="0px"
	 viewBox="0 0 16.6 17.1" enable-background="new 0 0 16.6 17.1" xml:space="preserve">
<g>
	<path fill="#AFA59C" d="M16.6,8.5c0,1.2,0,2.4,0,3.6c0,0.7-0.1,1.3-0.4,1.9c-0.8,1.7-2.1,2.7-3.9,3c-0.2,0-0.4,0-0.7,0
		c-2.3,0-4.5,0-6.8,0c-1,0-1.9-0.3-2.7-0.8c-1.3-0.9-2-2-2.2-3.6c0-0.1,0-0.3,0-0.4c0-2.5,0-5.1,0-7.6c0-1.9,1.2-3.7,3-4.4
		C3.6,0.1,4.2,0,4.9,0c2.3,0,4.6,0,6.9,0c2.4,0,4.5,1.8,4.8,4.2c0,0.3,0.1,0.5,0.1,0.8C16.6,6.2,16.6,7.4,16.6,8.5L16.6,8.5z
		 M1.2,8.5L1.2,8.5c0,1.2,0,2.4,0,3.5c0,0.2,0,0.4,0,0.6c0.2,1.7,1.7,3.1,3.5,3.1c2.3,0,4.7,0,7,0c2,0,3.6-1.6,3.6-3.6
		c0-2.5,0-4.9,0-7.4c0-0.1,0-0.2,0-0.3c-0.1-1.8-1.7-3.3-3.5-3.3c-2.3,0-4.7,0-7,0C4,1.3,3.3,1.5,2.7,2c-1,0.7-1.4,1.7-1.4,2.9
		C1.2,6.1,1.2,7.3,1.2,8.5z"/>
	<path fill="#AFA59C" d="M8.3,13.1c-2.3,0-4.2-1.7-4.5-4C3.6,7.1,4.6,5.3,6.3,4.4C7,4.1,7.8,3.9,8.6,4c0.8,0.1,1.6,0.3,2.3,0.7
		c1,0.6,1.6,1.5,1.8,2.7c0.3,1.5,0,2.9-1,4.1C10.9,12.5,9.6,13.1,8.3,13.1z M8.3,11.5c0.7,0,1.4-0.2,1.9-0.7c0.9-0.8,1.2-1.8,1-3
		C11.1,7,10.8,6.4,10.1,6C9.3,5.5,8.5,5.4,7.7,5.6C6.2,5.8,5.2,7.2,5.3,8.7C5.4,10.3,6.7,11.5,8.3,11.5z"/>
	<path fill="#AFA59C" d="M13,4.9c-0.6,0-1.1-0.5-1-1.1c0-0.6,0.5-1.1,1.1-1.1c0.6,0,1.1,0.5,1,1.1C14,4.4,13.6,4.9,13,4.9z"/>
</g>
</svg>
