<?xml version="1.0" encoding="utf-8"?>
<!-- Generator: Adobe Illustrator 17.1.0, SVG Export Plug-In . SVG Version: 6.00 Build 0)  -->
<!DOCTYPE svg PUBLIC "-//W3C//DTD SVG 1.1//EN" "http://www.w3.org/Graphics/SVG/1.1/DTD/svg11.dtd">
<svg version="1.1" id="Layer_1" xmlns="http://www.w3.org/2000/svg" xmlns:xlink="http://www.w3.org/1999/xlink" x="0px" y="0px"
	 viewBox="0 0 286.4 36.5" enable-background="new 0 0 286.4 36.5" xml:space="preserve">
<g>
	<g>
		<defs>
			<path id="SVGID_1_" d="M160.1,21.6c0.2,8.1-6.3,14.8-14.4,14.9c-8.1,0.2-14.8-6.3-14.9-14.4C130.7,14,137.1,0,145.1,0
				C153.4,0,160,13.5,160.1,21.6z"/>
		</defs>
		<clipPath id="SVGID_2_">
			<use xlink:href="#SVGID_1_"  overflow="visible"/>
		</clipPath>
		<g clip-path="url(#SVGID_2_)">
			
				<image overflow="visible" width="1920" height="1280" id="HAI9HE_6_" xlink:href="E8B29689D71A6452.jpg"  transform="matrix(6.181545e-02 -1.191649e-03 1.191649e-03 6.181545e-02 61.3366 -29.0223)">
			</image>
		</g>
		
			<rect x="128.1" y="-3.1" transform="matrix(0.9998 -1.927394e-02 1.927394e-02 0.9998 -0.3225 2.7978)" opacity="0.72" clip-path="url(#SVGID_2_)" fill="#BAA45E" width="33.7" height="42.5"/>
	</g>
</g>
<g>
	<g>
		<path fill="#988054" d="M0,26.9h2.5V11.7H0v-0.3h7.1v0.3H4.7V19h7.4v-7.3H9.6v-0.3h7.1v0.3h-2.5v15.2h2.5v0.3H9.6v-0.3h2.5v-7.6
			H4.7v7.6h2.5v0.3H0V26.9z"/>
		<path fill="#988054" d="M21.8,26.9h2l6-15.9h0.5l6,15.9h2v0.3h-6.8v-0.3H34l-2.3-6.2h-5.2l-2.3,6.2h2.5v0.3h-4.8V26.9z M29.1,13.9
			l-2.4,6.5h4.9L29.1,13.9z"/>
		<path fill="#988054" d="M43.2,26.9h2.5V11.7h-2.5v-0.3H48l7.5,12.1h0V11.7h-2.5v-0.3h5.3v0.3h-2.5v15.8h-0.4l-9.3-14.9h0v14.3h2.5
			v0.3h-5.3V26.9z"/>
		<path fill="#988054" d="M63.7,26.9h2.5V11.7h-2.5v-0.3h4.8L76,23.5h0V11.7h-2.5v-0.3h5.3v0.3h-2.5v15.8h-0.4l-9.3-14.9h0v14.3H69
			v0.3h-5.3V26.9z"/>
		<path fill="#988054" d="M82.5,26.9h2l6-15.9h0.5l6,15.9h2v0.3h-6.8v-0.3h2.5l-2.3-6.2h-5.2l-2.3,6.2h2.5v0.3h-4.8V26.9z
			 M89.7,13.9l-2.4,6.5h4.9L89.7,13.9z"/>
		<path fill="#988054" d="M104,26.9h2.5V11.7H104v-0.3h7.1v0.3h-2.5V19h7.4v-7.3h-2.5v-0.3h7.1v0.3h-2.5v15.2h2.5v0.3h-7.1v-0.3h2.5
			v-7.6h-7.4v7.6h2.5v0.3H104V26.9z"/>
		<path fill="#988054" d="M170,22.4h0.2c0.2,0.8,0.4,1.5,0.6,2c0.3,0.5,0.5,1,0.9,1.4c0.3,0.4,0.6,0.6,1,0.8s0.7,0.3,1,0.4
			c0.3,0.1,0.7,0.1,1,0.2c0.3,0,0.6,0,0.9,0c0.8,0,1.4-0.1,1.9-0.4c0.5-0.2,0.9-0.5,1.2-0.9c0.3-0.4,0.5-0.8,0.6-1.2
			s0.2-0.8,0.2-1.2c0-0.5-0.1-1-0.3-1.3c-0.2-0.4-0.4-0.7-0.7-0.9c-0.3-0.3-0.6-0.5-1-0.6c-0.3-0.2-0.7-0.3-1-0.4l-2.6-0.8
			c-1.2-0.4-2.1-0.9-2.7-1.5c-0.6-0.6-0.9-1.4-0.9-2.4c0-0.7,0.1-1.3,0.4-1.9s0.6-1.1,1-1.5c0.4-0.4,0.9-0.7,1.5-1
			c0.6-0.2,1.3-0.4,2-0.4c0.5,0,1,0,1.3,0.1s0.6,0.2,0.9,0.3c0.3,0.1,0.5,0.2,0.7,0.3c0.2,0.1,0.4,0.1,0.6,0.1c0.2,0,0.3,0,0.4-0.1
			c0.1-0.1,0.2-0.2,0.3-0.4h0.3v4h-0.3c-0.1-0.5-0.2-1-0.5-1.5c-0.2-0.5-0.5-0.9-0.8-1.3c-0.3-0.4-0.8-0.7-1.2-0.9
			c-0.5-0.2-1-0.3-1.7-0.3c-0.4,0-0.7,0-1.2,0.1c-0.4,0.1-0.8,0.3-1.2,0.5c-0.4,0.2-0.7,0.5-0.9,0.9s-0.4,0.9-0.4,1.5
			c0,0.5,0.1,0.9,0.3,1.2s0.4,0.6,0.7,0.8s0.6,0.4,1,0.6c0.4,0.2,0.8,0.3,1.1,0.4l2.7,0.8c0.3,0.1,0.6,0.2,1.1,0.4
			c0.4,0.1,0.8,0.4,1.3,0.7c0.4,0.3,0.8,0.7,1,1.2c0.3,0.5,0.4,1.1,0.4,1.9c0,0.7-0.1,1.4-0.4,2c-0.3,0.6-0.6,1.2-1.1,1.7
			c-0.5,0.5-1.1,0.9-1.8,1.2c-0.7,0.3-1.5,0.4-2.4,0.4c-0.3,0-0.6,0-0.8,0c-0.2,0-0.5,0-0.7-0.1c-0.2,0-0.4-0.1-0.6-0.1
			c-0.2,0-0.4-0.1-0.7-0.2c-0.3-0.1-0.6-0.2-1-0.3c-0.3-0.1-0.6-0.2-0.9-0.2c-0.2,0-0.4,0-0.5,0.1c-0.1,0.1-0.2,0.2-0.2,0.4H170
			V22.4z"/>
		<path fill="#988054" d="M188.1,11.4h7.1v0.3h-2.5v10.7c0,0.9,0.1,1.6,0.2,2.3c0.2,0.6,0.4,1.1,0.7,1.5c0.3,0.4,0.7,0.6,1.2,0.8
			c0.5,0.2,1,0.2,1.6,0.2c0.8,0,1.6-0.1,2.2-0.4s1.2-0.7,1.6-1.3c0.1-0.2,0.3-0.4,0.4-0.6c0.1-0.2,0.2-0.4,0.3-0.7
			c0.1-0.3,0.1-0.6,0.2-0.9s0.1-0.8,0.1-1.3V11.7h-2.5v-0.3h5.3v0.3h-2.5v10.8c0,0.6-0.1,1.2-0.2,1.7c-0.1,0.5-0.4,1-0.8,1.6
			c-0.4,0.5-1,1-1.7,1.3c-0.7,0.3-1.7,0.5-2.8,0.5c-1.8,0-3.1-0.4-4.1-1.3c-0.9-0.9-1.4-2.2-1.4-4V11.7h-2.5V11.4z"/>
		<path fill="#988054" d="M212.9,26.9h2.5V11.7h-1.3c-0.3,0-0.6,0-1,0.1c-0.4,0.1-0.7,0.2-1.1,0.4s-0.7,0.6-1.1,1.1
			s-0.6,1.2-0.9,2.1h-0.2v-4.1h13.5v4.1H223c-0.3-0.9-0.6-1.6-0.9-2.1c-0.3-0.5-0.7-0.9-1.1-1.1s-0.8-0.4-1.1-0.4
			c-0.4-0.1-0.7-0.1-1-0.1h-1.3v15.2h2.5v0.3h-7.1V26.9z"/>
		<path fill="#988054" d="M232.5,26.9h2.5V11.7h-1.3c-0.3,0-0.6,0-1,0.1c-0.4,0.1-0.7,0.2-1.1,0.4s-0.7,0.6-1.1,1.1
			s-0.6,1.2-0.9,2.1h-0.2v-4.1h13.5v4.1h-0.2c-0.3-0.9-0.6-1.6-0.9-2.1c-0.3-0.5-0.7-0.9-1.1-1.1s-0.8-0.4-1.1-0.4
			c-0.4-0.1-0.7-0.1-1-0.1h-1.3v15.2h2.5v0.3h-7.1V26.9z"/>
		<path fill="#988054" d="M249.4,19.3c0-1.2,0.2-2.3,0.7-3.3c0.5-1,1.1-1.9,1.8-2.6c0.7-0.7,1.6-1.3,2.5-1.7
			c0.9-0.4,1.8-0.6,2.8-0.6c1,0,1.9,0.2,2.9,0.6c0.9,0.4,1.8,1,2.5,1.7c0.7,0.7,1.3,1.6,1.7,2.6c0.4,1,0.7,2.1,0.7,3.3
			c0,1-0.2,2-0.6,3c-0.4,1-0.9,1.9-1.6,2.6c-0.7,0.8-1.5,1.4-2.5,1.9s-2,0.7-3,0.7c-1.1,0-2.1-0.2-3.1-0.7c-0.9-0.5-1.8-1.1-2.5-1.8
			c-0.7-0.8-1.2-1.6-1.6-2.6C249.6,21.4,249.4,20.3,249.4,19.3z M252,19.3c0,1.3,0.1,2.5,0.3,3.5c0.2,1,0.5,1.8,0.9,2.5
			c0.4,0.7,0.9,1.2,1.6,1.5c0.7,0.3,1.5,0.5,2.4,0.5c0.9,0,1.8-0.2,2.4-0.5c0.7-0.3,1.2-0.8,1.6-1.5c0.4-0.7,0.7-1.5,0.9-2.5
			c0.2-1,0.3-2.2,0.3-3.5c0-1-0.1-2-0.2-3s-0.4-1.8-0.8-2.6s-0.9-1.3-1.6-1.8c-0.7-0.4-1.6-0.7-2.6-0.7c-1.1,0-2,0.2-2.6,0.7
			c-0.7,0.4-1.2,1-1.6,1.8s-0.6,1.6-0.8,2.6S252,18.2,252,19.3z"/>
		<path fill="#988054" d="M271.3,26.9h2.5V11.7h-2.5v-0.3h4.8l7.5,12.1h0V11.7h-2.5v-0.3h5.3v0.3h-2.5v15.8h-0.4l-9.3-14.9h0v14.3
			h2.5v0.3h-5.3V26.9z"/>
	</g>
</g>
</svg>
