<?xml version="1.0" encoding="utf-8"?>
<!-- Generator: Adobe Illustrator 17.1.0, SVG Export Plug-In . SVG Version: 6.00 Build 0)  -->
<!DOCTYPE svg PUBLIC "-//W3C//DTD SVG 1.1//EN" "http://www.w3.org/Graphics/SVG/1.1/DTD/svg11.dtd">
<svg version="1.1" id="Layer_1" xmlns="http://www.w3.org/2000/svg" xmlns:xlink="http://www.w3.org/1999/xlink" x="0px" y="0px"
	 viewBox="0 0 172.6 246.9" enable-background="new 0 0 172.6 246.9" xml:space="preserve">
<g>
	<defs>
		<path id="SVGID_1_" d="M113.1,132.3c0,14.7-11.9,26.6-26.6,26.7c-14.7,0-26.6-11.9-26.7-26.6s12-40.1,26.7-39.8
			C101.6,93,113.1,117.6,113.1,132.3z"/>
	</defs>
	<use xlink:href="#SVGID_1_"  overflow="visible" fill="#918054"/>
	<clipPath id="SVGID_2_">
		<use xlink:href="#SVGID_1_"  overflow="visible"/>
	</clipPath>
</g>
<g>
	<path fill="#918054" d="M130.6,87.2c-0.3-9-3.2-14.3-9.3-16.8c-4.3-1.7-9.4-1.3-14.3-1c-4.5,0.3-9.1,0.7-13.1-0.6
		c-8.6-2.6-8-15.6-8-16.1l1,0.1c0,0.1-0.6,12.7,7.2,15.1c3.8,1.2,8.2,0.9,12.7,0.5c5.1-0.4,10.3-0.7,14.8,1.1
		c6.5,2.6,9.6,8.2,9.9,17.7L130.6,87.2z"/>
</g>
<g>
	<path fill="#918054" d="M86.7,50.3l-1-0.1c0.1-0.4,1.1-10.4-13.6-12.4c-7.2-1-15.7-0.7-23.8-0.4c-9.3,0.3-18.8,0.6-27-0.9
		C9.4,34.3,3.7,29.6,3.2,21.7l1-0.1c0.5,7.4,6,11.8,17.3,13.8c8,1.4,17.6,1.1,26.8,0.8c8.2-0.3,16.7-0.5,24,0.5
		C88,38.9,86.7,50.2,86.7,50.3z"/>
</g>
<g>
	<path fill="#918054" d="M42.3,87.2l-1,0c0.3-9.4,3.4-15.1,9.9-17.7c4.5-1.8,9.7-1.4,14.8-1.1c4.6,0.3,8.9,0.6,12.7-0.5
		c7.9-2.4,7.3-15,7.2-15.1l1-0.1c0,0.6,0.7,13.5-8,16.1c-4,1.2-8.6,0.9-13.1,0.6c-4.9-0.4-10-0.7-14.3,1
		C45.5,72.8,42.6,78.2,42.3,87.2z"/>
</g>
<g>
	<path fill="#918054" d="M86.9,202.3l-1-0.1c0-0.1,0.6-12.7-7.2-15.1c-3.8-1.2-8.2-0.9-12.7-0.5c-5,0.4-10.3,0.7-14.8-1.1
		c-6.5-2.6-9.6-8.2-9.9-17.7l1,0c0.3,9,3.2,14.3,9.3,16.8c4.3,1.7,9.4,1.3,14.3,1c4.5-0.3,9.1-0.7,13.1,0.6
		C87.6,188.8,87,201.8,86.9,202.3z"/>
</g>
<g>
	<path fill="#918054" d="M86,202.3c0-0.6-0.7-13.5,8-16.1c4-1.2,8.6-0.9,13.1-0.6c4.9,0.4,10,0.7,14.3-1c6.1-2.4,9-7.8,9.3-16.8l1,0
		c-0.3,9.4-3.4,15.1-9.9,17.7c-4.5,1.8-9.7,1.4-14.8,1.1c-4.6-0.3-8.9-0.6-12.7,0.5c-7.9,2.4-7.3,15-7.2,15.1L86,202.3z"/>
</g>
<g>
	<rect x="85.9" y="12.8" fill="#918054" width="1" height="43.8"/>
</g>
<g>
	<path fill="#918054" d="M3.7,17c-2,0-3.7-1.6-3.7-3.7c0-2,1.6-3.7,3.7-3.7c2,0,3.7,1.6,3.7,3.7C7.3,15.3,5.7,17,3.7,17z M3.7,10.6
		c-1.5,0-2.7,1.2-2.7,2.7C1,14.8,2.2,16,3.7,16s2.7-1.2,2.7-2.7C6.3,11.8,5.1,10.6,3.7,10.6z"/>
</g>
<g>
	<path fill="#918054" d="M85.9,50.3c0-0.1-1.3-11.4,14.5-13.5c7.3-1,15.8-0.7,24-0.5c9.2,0.3,18.7,0.6,26.8-0.8
		c11.3-2,16.8-6.4,17.3-13.8l1,0.1c-0.5,7.9-6.2,12.6-18.1,14.7c-8.2,1.5-17.7,1.2-27,0.9c-8.2-0.3-16.6-0.5-23.8,0.4
		c-14.8,2-13.7,12-13.6,12.4L85.9,50.3z"/>
</g>
<g>
	<rect x="85.8" y="12.8" fill="#918054" width="1" height="43.8"/>
</g>
<g>
	<path fill="#918054" d="M168.9,17c-2,0-3.7-1.6-3.7-3.7c0-2,1.6-3.7,3.7-3.7s3.7,1.6,3.7,3.7C172.6,15.3,171,17,168.9,17z
		 M168.9,10.6c-1.5,0-2.7,1.2-2.7,2.7c0,1.5,1.2,2.7,2.7,2.7s2.7-1.2,2.7-2.7C171.6,11.8,170.4,10.6,168.9,10.6z"/>
</g>
<g>
	<path fill="#918054" d="M86.1,7.3c-2,0-3.7-1.6-3.7-3.7c0-2,1.6-3.7,3.7-3.7s3.7,1.6,3.7,3.7C89.8,5.7,88.1,7.3,86.1,7.3z M86.1,1
		c-1.5,0-2.7,1.2-2.7,2.7c0,1.5,1.2,2.7,2.7,2.7s2.7-1.2,2.7-2.7C88.8,2.2,87.6,1,86.1,1z"/>
</g>
<g>
	<rect x="86" y="202.3" fill="#918054" width="1" height="27.1"/>
</g>
<g>
	<path fill="#918054" d="M86.8,246.9l-1,0c0.9-20.3,18.5-25.7,18.7-25.8l0.3,1C104.6,222.1,87.7,227.3,86.8,246.9z"/>
</g>
<g>
	<path fill="#918054" d="M85.9,246.9C85,227.3,68.1,222.1,67.9,222l0.3-1c0.2,0.1,17.8,5.5,18.7,25.8L85.9,246.9z"/>
</g>
</svg>
