<!--?xml version="1.0" encoding="utf-8"?-->
<!-- Generator: Adobe Illustrator 17.1.0, SVG Export Plug-In . SVG Version: 6.00 Build 0)  -->

<svg version="1.1" id="Layer_1" xmlns="http://www.w3.org/2000/svg" xmlns:xlink="http://www.w3.org/1999/xlink" x="0px" y="0px" viewBox="329.3 0 422.7 1080" enable-background="new 329.3 0 422.7 1080" xml:space="preserve">
<path fill="none" stroke="#8E8054" stroke-width="4.2505" stroke-miterlimit="10" d="M540.7,161.9c0,0,3.6-60.9-35.4-72.7
	c-38.6-11.8-89.2,8.2-127.8-7.3c-29.9-12-43.4-38-44.5-80" class="HSmDMLMS_0"></path>
<path fill="none" stroke="#8E8054" stroke-width="4.2505" stroke-miterlimit="10" d="M540.9,161.9c0,0-3.6-60.9,35.4-72.7
	c38.6-11.8,89.2,8.2,127.8-7.3c29.9-12,43.4-38,44.5-80" class="HSmDMLMS_1"></path>
<path fill="none" stroke="#8E8054" stroke-width="4.2505" stroke-miterlimit="10" d="M541.3,161.9L541.4,963.2" class="HSmDMLMS_2"></path>
<path fill="none" stroke="#8E8054" stroke-width="4.2505" stroke-miterlimit="10" d="M512.3,1043.2A29.5,29.5 0,1,1 571.3,1043.2A29.5,29.5 0,1,1 512.3,1043.2" class="HSmDMLMS_3"></path>
<path fill="none" stroke="#8E8054" stroke-width="4.2505" stroke-miterlimit="10" d="M461.8,1043.2c0-44.2,35.8-80,80-80
	s80,35.8,80,80" class="HSmDMLMS_4"></path>
<style>.HSmDMLMS_0{stroke-dasharray:314 316;stroke-dashoffset:315;animation:HSmDMLMS_draw 1300ms ease 0ms forwards;}.HSmDMLMS_1{stroke-dasharray:314 316;stroke-dashoffset:315;animation:HSmDMLMS_draw 1300ms ease 0ms forwards;}.HSmDMLMS_2{stroke-dasharray:802 804;stroke-dashoffset:803;animation:HSmDMLMS_draw 1300ms ease 0ms forwards;}.HSmDMLMS_3{stroke-dasharray:186 188;stroke-dashoffset:187;animation:HSmDMLMS_draw 1300ms ease 0ms forwards;}.HSmDMLMS_4{stroke-dasharray:252 254;stroke-dashoffset:253;animation:HSmDMLMS_draw 1300ms ease 0ms forwards;}@keyframes HSmDMLMS_draw{100%{stroke-dashoffset:0;}}@keyframes HSmDMLMS_fade{0%{stroke-opacity:1;}92.72727272727273%{stroke-opacity:1;}100%{stroke-opacity:0;}}</style></svg>
