<!--?xml version="1.0" encoding="utf-8"?-->
<!-- Generator: Adobe Illustrator 17.1.0, SVG Export Plug-In . SVG Version: 6.00 Build 0)  -->

<svg version="1.1" id="Layer_1" xmlns="http://www.w3.org/2000/svg" xmlns:xlink="http://www.w3.org/1999/xlink" x="0px" y="0px" viewBox="0 379.5 1080 324.6" enable-background="new 0 379.5 1080 324.6" xml:space="preserve">
<path fill="none" stroke="#8E8054" stroke-width="3.9979" stroke-miterlimit="10" d="M540.3,401.5c0,0-8.9,56.2,88.5,67.1
	c96.7,10.9,223.3-7.6,319.8,6.7c74.8,11.1,108.6,35.1,111.5,73.9" class="fMLnnfFz_0"></path>
<path fill="none" stroke="#8E8054" stroke-width="3.9979" stroke-miterlimit="10" d="M539.9,401.5c0,0,8.9,56.2-88.5,67.1
	c-96.7,10.9-223.3-7.6-319.8,6.7C56.7,486.5,23,510.5,20,549.3" class="fMLnnfFz_1"></path>
<path fill="none" stroke="#8E8054" stroke-width="3.9979" stroke-miterlimit="10" d="M512.4,668.3A27.7,27.7 0,1,1 567.8000000000001,668.3A27.7,27.7 0,1,1 512.4,668.3" class="fMLnnfFz_2"></path>
<path fill="none" stroke="#8E8054" stroke-width="3.9979" stroke-miterlimit="10" d="M1046.3,596.8A13.9,13.9 0,1,1 1074.1000000000001,596.8A13.9,13.9 0,1,1 1046.3,596.8" class="fMLnnfFz_3"></path>
<path fill="none" stroke="#8E8054" stroke-width="3.9979" stroke-miterlimit="10" d="M540.1,379.5L540.1,608.2" class="fMLnnfFz_4"></path>
<path fill="none" stroke="#8E8054" stroke-width="3.9979" stroke-miterlimit="10" d="M6.1,596.8A13.9,13.9 0,1,1 33.9,596.8A13.9,13.9 0,1,1 6.1,596.8" class="fMLnnfFz_5"></path>
<style>.fMLnnfFz_0{stroke-dasharray:589 591;stroke-dashoffset:590;animation:fMLnnfFz_draw 1300ms ease 0ms forwards;}.fMLnnfFz_1{stroke-dasharray:589 591;stroke-dashoffset:590;animation:fMLnnfFz_draw 1300ms ease 0ms forwards;}.fMLnnfFz_2{stroke-dasharray:175 177;stroke-dashoffset:176;animation:fMLnnfFz_draw 1300ms ease 0ms forwards;}.fMLnnfFz_3{stroke-dasharray:88 90;stroke-dashoffset:89;animation:fMLnnfFz_draw 1300ms ease 0ms forwards;}.fMLnnfFz_4{stroke-dasharray:229 231;stroke-dashoffset:230;animation:fMLnnfFz_draw 1300ms ease 0ms forwards;}.fMLnnfFz_5{stroke-dasharray:88 90;stroke-dashoffset:89;animation:fMLnnfFz_draw 1300ms ease 0ms forwards;}@keyframes fMLnnfFz_draw{100%{stroke-dashoffset:0;}}@keyframes fMLnnfFz_fade{0%{stroke-opacity:1;}92.72727272727273%{stroke-opacity:1;}100%{stroke-opacity:0;}}</style></svg>
