<!--?xml version="1.0" encoding="utf-8"?-->
<!-- Generator: Adobe Illustrator 17.1.0, SVG Export Plug-In . SVG Version: 6.00 Build 0)  -->

<svg version="1.1" id="Layer_1" xmlns="http://www.w3.org/2000/svg" xmlns:xlink="http://www.w3.org/1999/xlink" x="0px" y="0px" viewBox="0 0 725.8 195.7" enable-background="new 0 0 725.8 195.7" xml:space="preserve">
<path fill="none" stroke="#988054" stroke-miterlimit="10" d="M362.8,163.4c0,0,6.2-62.1-61.6-74.2c-67.3-12-155.4,8.4-222.6-7.4
	C26.5,69.4,3,42.9,1,0" class="pPPtwqCZ_0"></path>
<path fill="none" stroke="#988054" stroke-miterlimit="10" d="M363.1,163.4c0,0-6.2-62.1,61.6-74.2c67.3-12,155.4,8.4,222.6-7.4
	C699.5,69.4,722.9,42.9,725,0" class="pPPtwqCZ_1"></path>
<path fill="none" stroke="#988054" stroke-miterlimit="10" d="M362.8,154.9L362.8,0" class="pPPtwqCZ_2"></path>
<path fill="none" stroke="#988054" stroke-miterlimit="10" d="M394.1,136.3c0,0-29.5,12-31.1,59.3" class="pPPtwqCZ_3"></path>
<path fill="none" stroke="#988054" stroke-miterlimit="10" d="M331.9,136.3c0,0,29.5,12,31.1,59.3" class="pPPtwqCZ_4"></path>
<style>.pPPtwqCZ_0{stroke-dasharray:453 455;stroke-dashoffset:454;animation:pPPtwqCZ_draw 1300ms ease 0ms forwards;}.pPPtwqCZ_1{stroke-dasharray:453 455;stroke-dashoffset:454;animation:pPPtwqCZ_draw 1300ms ease 0ms forwards;}.pPPtwqCZ_2{stroke-dasharray:155 157;stroke-dashoffset:156;animation:pPPtwqCZ_draw 1300ms ease 0ms forwards;}.pPPtwqCZ_3{stroke-dasharray:71 73;stroke-dashoffset:72;animation:pPPtwqCZ_draw 1300ms ease 0ms forwards;}.pPPtwqCZ_4{stroke-dasharray:71 73;stroke-dashoffset:72;animation:pPPtwqCZ_draw 1300ms ease 0ms forwards;}@keyframes pPPtwqCZ_draw{100%{stroke-dashoffset:0;}}@keyframes pPPtwqCZ_fade{0%{stroke-opacity:1;}92.72727272727273%{stroke-opacity:1;}100%{stroke-opacity:0;}}</style></svg>
