<!--?xml version="1.0" encoding="utf-8"?-->
<!-- Generator: Adobe Illustrator 17.1.0, SVG Export Plug-In . SVG Version: 6.00 Build 0)  -->

<svg version="1.1" id="Layer_1" xmlns="http://www.w3.org/2000/svg" xmlns:xlink="http://www.w3.org/1999/xlink" x="0px" y="0px" viewBox="0 406.6 1080 270.5" enable-background="new 0 406.6 1080 270.5" xml:space="preserve">
<path fill="none" stroke="#8E8054" stroke-width="5.0334" stroke-miterlimit="10" d="M540.3,406.6c0,0-8.9,70.7,88.3,84.5
	c96.5,13.7,222.8-9.5,319.1,8.5c74.6,13.9,108.3,44.2,111.2,93" class="oGpwVSkf_0"></path>
<path fill="none" stroke="#8E8054" stroke-width="5.0334" stroke-miterlimit="10" d="M539.9,406.6c0,0,8.9,70.7-88.3,84.5
	c-96.5,13.7-222.8-9.5-319.1,8.5c-74.6,13.9-108.3,44.2-111.2,93" class="oGpwVSkf_1"></path>
<path fill="none" stroke="#8E8054" stroke-width="5.0334" stroke-miterlimit="10" d="M1041.4,652.5A17.5,17.5 0,1,1 1076.4,652.5A17.5,17.5 0,1,1 1041.4,652.5" class="oGpwVSkf_2"></path>
<path fill="none" stroke="#8E8054" stroke-width="5.0334" stroke-miterlimit="10" d="M3.8000000000000007,652.5A17.5,17.5 0,1,1 38.8,652.5A17.5,17.5 0,1,1 3.8000000000000007,652.5" class="oGpwVSkf_3"></path>
<style>.oGpwVSkf_0{stroke-dasharray:614 616;stroke-dashoffset:615;animation:oGpwVSkf_draw 1300ms ease 0ms forwards;}.oGpwVSkf_1{stroke-dasharray:614 616;stroke-dashoffset:615;animation:oGpwVSkf_draw 1300ms ease 0ms forwards;}.oGpwVSkf_2{stroke-dasharray:110 112;stroke-dashoffset:111;animation:oGpwVSkf_draw 1300ms ease 0ms forwards;}.oGpwVSkf_3{stroke-dasharray:110 112;stroke-dashoffset:111;animation:oGpwVSkf_draw 1300ms ease 0ms forwards;}@keyframes oGpwVSkf_draw{100%{stroke-dashoffset:0;}}@keyframes oGpwVSkf_fade{0%{stroke-opacity:1;}92.72727272727273%{stroke-opacity:1;}100%{stroke-opacity:0;}}</style></svg>
