<!--?xml version="1.0" encoding="utf-8"?-->
<!-- Generator: Adobe Illustrator 17.1.0, SVG Export Plug-In . SVG Version: 6.00 Build 0)  -->

<svg version="1.1" id="Layer_1" xmlns="http://www.w3.org/2000/svg" xmlns:xlink="http://www.w3.org/1999/xlink" x="0px" y="0px" viewBox="0 0 770.1 188.7" enable-background="new 0 0 770.1 188.7" xml:space="preserve">
<path fill="none" stroke="#988054" stroke-miterlimit="10" d="M0,155.4c0,0,18.4,8,23,23.3" class="AMxPacbz_0"></path>
<path fill="none" stroke="#988054" stroke-miterlimit="10" d="M46.1,155.4c0,0-18.4,8-23,23.3" class="AMxPacbz_1"></path>
<path fill="none" stroke="#988054" stroke-miterlimit="10" d="M12.6,172.9c0,0,4.5,1,10.4,15.8" class="AMxPacbz_2"></path>
<path fill="none" stroke="#988054" stroke-miterlimit="10" d="M33.4,172.9c0,0-4.5,1-10.4,15.8" class="AMxPacbz_3"></path>
<path fill="none" stroke="#988054" stroke-miterlimit="10" d="M362.1,155.4c0,0,18.4,8,23,23.3" class="AMxPacbz_4"></path>
<path fill="none" stroke="#988054" stroke-miterlimit="10" d="M408.2,155.4c0,0-18.4,8-23,23.3" class="AMxPacbz_5"></path>
<path fill="none" stroke="#988054" stroke-miterlimit="10" d="M374.8,172.9c0,0,4.5,1,10.4,15.8" class="AMxPacbz_6"></path>
<path fill="none" stroke="#988054" stroke-miterlimit="10" d="M395.6,172.9c0,0-4.5,1-10.4,15.8" class="AMxPacbz_7"></path>
<path fill="none" stroke="#988054" stroke-miterlimit="10" d="M724,155.4c0,0,18.4,8,23,23.3" class="AMxPacbz_8"></path>
<path fill="none" stroke="#988054" stroke-miterlimit="10" d="M770.1,155.4c0,0-18.4,8-23,23.3" class="AMxPacbz_9"></path>
<path fill="none" stroke="#988054" stroke-miterlimit="10" d="M736.6,172.9c0,0,4.5,1,10.4,15.8" class="AMxPacbz_10"></path>
<path fill="none" stroke="#988054" stroke-miterlimit="10" d="M757.4,172.9c0,0-4.5,1-10.4,15.8" class="AMxPacbz_11"></path>
<path fill="none" stroke="#988054" stroke-miterlimit="10" d="M385.2,1c0,0-6.2,62.1,61.6,74.2c67.3,12,155.4-8.4,222.6,7.4
	C721.5,95,745,121.5,747,164.4" class="AMxPacbz_12"></path>
<path fill="none" stroke="#988054" stroke-miterlimit="10" d="M384.9,1c0,0,6.2,62.1-61.6,74.2c-67.3,12-155.4-8.4-222.6,7.4
	C48.6,95,25.1,121.5,23,164.4" class="AMxPacbz_13"></path>
<path fill="none" stroke="#988054" stroke-miterlimit="10" d="M385.2,9.5L385.2,164.4" class="AMxPacbz_14"></path>
<style>.AMxPacbz_0{stroke-dasharray:34 36;stroke-dashoffset:35;animation:AMxPacbz_draw 1300ms ease 0ms forwards;}.AMxPacbz_1{stroke-dasharray:34 36;stroke-dashoffset:35;animation:AMxPacbz_draw 1300ms ease 0ms forwards;}.AMxPacbz_2{stroke-dasharray:20 22;stroke-dashoffset:21;animation:AMxPacbz_draw 1300ms ease 0ms forwards;}.AMxPacbz_3{stroke-dasharray:20 22;stroke-dashoffset:21;animation:AMxPacbz_draw 1300ms ease 0ms forwards;}.AMxPacbz_4{stroke-dasharray:34 36;stroke-dashoffset:35;animation:AMxPacbz_draw 1300ms ease 0ms forwards;}.AMxPacbz_5{stroke-dasharray:34 36;stroke-dashoffset:35;animation:AMxPacbz_draw 1300ms ease 0ms forwards;}.AMxPacbz_6{stroke-dasharray:20 22;stroke-dashoffset:21;animation:AMxPacbz_draw 1300ms ease 0ms forwards;}.AMxPacbz_7{stroke-dasharray:20 22;stroke-dashoffset:21;animation:AMxPacbz_draw 1300ms ease 0ms forwards;}.AMxPacbz_8{stroke-dasharray:34 36;stroke-dashoffset:35;animation:AMxPacbz_draw 1300ms ease 0ms forwards;}.AMxPacbz_9{stroke-dasharray:34 36;stroke-dashoffset:35;animation:AMxPacbz_draw 1300ms ease 0ms forwards;}.AMxPacbz_10{stroke-dasharray:20 22;stroke-dashoffset:21;animation:AMxPacbz_draw 1300ms ease 0ms forwards;}.AMxPacbz_11{stroke-dasharray:20 22;stroke-dashoffset:21;animation:AMxPacbz_draw 1300ms ease 0ms forwards;}.AMxPacbz_12{stroke-dasharray:453 455;stroke-dashoffset:454;animation:AMxPacbz_draw 1300ms ease 0ms forwards;}.AMxPacbz_13{stroke-dasharray:453 455;stroke-dashoffset:454;animation:AMxPacbz_draw 1300ms ease 0ms forwards;}.AMxPacbz_14{stroke-dasharray:155 157;stroke-dashoffset:156;animation:AMxPacbz_draw 1300ms ease 0ms forwards;}@keyframes AMxPacbz_draw{100%{stroke-dashoffset:0;}}@keyframes AMxPacbz_fade{0%{stroke-opacity:1;}92.72727272727273%{stroke-opacity:1;}100%{stroke-opacity:0;}}</style></svg>
