<!--?xml version="1.0" encoding="utf-8"?-->
<!-- Generator: Adobe Illustrator 17.1.0, SVG Export Plug-In . SVG Version: 6.00 Build 0)  -->

<svg version="1.1" id="Layer_1" xmlns="http://www.w3.org/2000/svg" xmlns:xlink="http://www.w3.org/1999/xlink" x="0px" y="0px" viewBox="0 0 1080 382.1" enable-background="new 0 0 1080 382.1" xml:space="preserve">
<path fill="none" stroke="#8E8054" stroke-width="4.3988" stroke-miterlimit="10" d="M541.6,230.7c0,0-3.4,57.5,33.4,68.8
	c36.5,11.2,84.3-7.7,120.8,6.9c28.3,11.4,41,36,42.1,75.7" class="bYOImdCV_0"></path>
<path fill="none" stroke="#8E8054" stroke-width="4.3988" stroke-miterlimit="10" d="M540.5,219.7c0,0,6.2-47.7-61.8-57
	c-67.6-9.2-156,6.4-223.4-5.7c-52.3-9.4-75.8-29.8-77.9-62.7" class="bYOImdCV_1"></path>
<path fill="none" stroke="#8E8054" stroke-width="4.3988" stroke-miterlimit="10" d="M541.5,230.7c0,0,3.4,57.5-33.4,68.8
	c-36.5,11.2-84.3-7.7-120.8,6.9c-28.3,11.4-41,36-42.1,75.7" class="bYOImdCV_2"></path>
<path fill="none" stroke="#8E8054" stroke-width="4.3988" stroke-miterlimit="10" d="M541.1,247.9L541.1,55.1" class="bYOImdCV_3"></path>
<path fill="none" stroke="#8E8054" stroke-width="4.3988" stroke-miterlimit="10" d="M163.5,57.3A13.9,13.9 0,1,1 191.3,57.3A13.9,13.9 0,1,1 163.5,57.3" class="bYOImdCV_4"></path>
<path fill="none" stroke="#8E8054" stroke-width="4.3988" stroke-miterlimit="10" d="M541.2,219.7c0,0-6.2-47.7,61.8-57
	c67.6-9.2,156,6.4,223.4-5.7c52.3-9.4,75.8-29.8,77.9-62.7" class="bYOImdCV_5"></path>
<path fill="none" stroke="#8E8054" stroke-width="4.3988" stroke-miterlimit="10" d="M540.7,247.9L540.7,55.1" class="bYOImdCV_6"></path>
<path fill="none" stroke="#8E8054" stroke-width="4.3988" stroke-miterlimit="10" d="M890.5,57.3A13.9,13.9 0,1,1 918.3,57.3A13.9,13.9 0,1,1 890.5,57.3" class="bYOImdCV_7"></path>
<path fill="none" stroke="#8E8054" stroke-width="4.3988" stroke-miterlimit="10" d="M526.1,14.9A13.9,13.9 0,1,1 553.9,14.9A13.9,13.9 0,1,1 526.1,14.9" class="bYOImdCV_8"></path>
<style>.bYOImdCV_0{stroke-dasharray:297 299;stroke-dashoffset:298;animation:bYOImdCV_draw 600ms linear 0ms forwards;}.bYOImdCV_1{stroke-dasharray:427 429;stroke-dashoffset:428;animation:bYOImdCV_draw 600ms linear 37ms forwards;}.bYOImdCV_2{stroke-dasharray:297 299;stroke-dashoffset:298;animation:bYOImdCV_draw 600ms linear 75ms forwards;}.bYOImdCV_3{stroke-dasharray:193 195;stroke-dashoffset:194;animation:bYOImdCV_draw 600ms linear 112ms forwards;}.bYOImdCV_4{stroke-dasharray:88 90;stroke-dashoffset:89;animation:bYOImdCV_draw 600ms linear 150ms forwards;}.bYOImdCV_5{stroke-dasharray:427 429;stroke-dashoffset:428;animation:bYOImdCV_draw 600ms linear 187ms forwards;}.bYOImdCV_6{stroke-dasharray:193 195;stroke-dashoffset:194;animation:bYOImdCV_draw 600ms linear 225ms forwards;}.bYOImdCV_7{stroke-dasharray:88 90;stroke-dashoffset:89;animation:bYOImdCV_draw 600ms linear 262ms forwards;}.bYOImdCV_8{stroke-dasharray:88 90;stroke-dashoffset:89;animation:bYOImdCV_draw 600ms linear 300ms forwards;}@keyframes bYOImdCV_draw{100%{stroke-dashoffset:0;}}@keyframes bYOImdCV_fade{0%{stroke-opacity:1;}92.15686274509804%{stroke-opacity:1;}100%{stroke-opacity:0;}}</style></svg>
