<!--?xml version="1.0" encoding="utf-8"?-->
<!-- Generator: Adobe Illustrator 17.1.0, SVG Export Plug-In . SVG Version: 6.00 Build 0)  -->

<svg version="1.1" id="Layer_1" xmlns="http://www.w3.org/2000/svg" xmlns:xlink="http://www.w3.org/1999/xlink" x="0px" y="0px" viewBox="0 732.7 1080 347.3" enable-background="new 0 732.7 1080 347.3" xml:space="preserve" class="">
<path fill="none" stroke="#8E8054" stroke-width="4.3988" stroke-miterlimit="10" d="M541.5,884.1c0,0,3.4-57.5-33.4-68.8
	c-36.5-11.2-84.3,7.7-120.8-6.9c-28.3-11.4-41-36-42.1-75.7" class="mkiATAFh_0"></path>
<path fill="none" stroke="#8E8054" stroke-width="4.3988" stroke-miterlimit="10" d="M541.6,884.1c0,0-3.4-57.5,33.4-68.8
	c36.5-11.2,84.3,7.7,120.8-6.9c28.3-11.4,41-36,42.1-75.7" class="mkiATAFh_1"></path>
<path fill="none" stroke="#8E8054" stroke-width="4.3988" stroke-miterlimit="10" d="M541.6,1003.5L541.6,884.1" class="mkiATAFh_2"></path>
<path fill="none" stroke="#8E8054" stroke-width="4.3988" stroke-miterlimit="10" d="M621.6,968.7c0,0-76.6,22.5-80.5,111.3" class="mkiATAFh_3"></path>
<path fill="none" stroke="#8E8054" stroke-width="4.3988" stroke-miterlimit="10" d="M460.6,968.7c0,0,76.6,22.5,80.5,111.3" class="mkiATAFh_4"></path>
<style>.mkiATAFh_0{stroke-dasharray:297 299;stroke-dashoffset:298;animation:mkiATAFh_draw 900ms linear 0ms forwards;}.mkiATAFh_1{stroke-dasharray:297 299;stroke-dashoffset:298;animation:mkiATAFh_draw 900ms linear 0ms forwards;}.mkiATAFh_2{stroke-dasharray:120 122;stroke-dashoffset:121;animation:mkiATAFh_draw 900ms linear 0ms forwards;}.mkiATAFh_3{stroke-dasharray:147 149;stroke-dashoffset:148;animation:mkiATAFh_draw 900ms linear 0ms forwards;}.mkiATAFh_4{stroke-dasharray:147 149;stroke-dashoffset:148;animation:mkiATAFh_draw 900ms linear 0ms forwards;}@keyframes mkiATAFh_draw{100%{stroke-dashoffset:0;}}@keyframes mkiATAFh_fade{0%{stroke-opacity:1;}92.15686274509804%{stroke-opacity:1;}100%{stroke-opacity:0;}}</style></svg>
