<!--?xml version="1.0" encoding="utf-8"?-->
<!-- Generator: Adobe Illustrator 17.1.0, SVG Export Plug-In . SVG Version: 6.00 Build 0)  -->

<svg version="1.1" id="Layer_1" xmlns="http://www.w3.org/2000/svg" xmlns:xlink="http://www.w3.org/1999/xlink" x="0px" y="0px" viewBox="0 0 86.7 100.1" enable-background="new 0 0 86.7 100.1" xml:space="preserve">
<path fill="none" stroke="#988054" stroke-miterlimit="10" d="M0.4,26.8c0,0,34.3,14.9,42.9,43.4" class="JTTcEQvb_0"></path>
<path fill="none" stroke="#988054" stroke-miterlimit="10" d="M86.2,26.8c0,0-34.3,14.9-42.9,43.4" class="JTTcEQvb_1"></path>
<path fill="none" stroke="#988054" stroke-miterlimit="10" d="M43.3,0L43.3,70.3" class="JTTcEQvb_2"></path>
<path fill="none" stroke="#988054" stroke-miterlimit="10" d="M24,59.4c0,0,8.3,1.9,19.3,29.5" class="JTTcEQvb_3"></path>
<path fill="none" stroke="#988054" stroke-miterlimit="10" d="M62.7,59.4c0,0-8.3,1.9-19.3,29.5" class="JTTcEQvb_4"></path>
<g>
	<path fill="#988054" d="M24.3,59.1L24.3,59.1L24.3,57.5L24.3,57.5L24.3,53.2L24.3,53.2L24.3,53.2L24.3,20L37,20L37,18.4L
		0.1,18.4L0.1,20L12.8,20L12.8,98.5L0.1,98.5L0.1,100.1L37,100.1L37,98.5L24.3,98.5Z" class="JTTcEQvb_5"></path>
	<path fill="#988054" d="M86.7,20L86.7,18.4L49.8,18.4L49.8,20L62.5,20L62.5,57.5L62.5,57.5L62.5,59.1L62.5,59.1L62.5,98.5L
		49.8,98.5L49.8,100.1L86.7,100.1L86.7,98.5L74,98.5L74,20Z" class="JTTcEQvb_6"></path>
</g>
<path fill="#988054" width="39.7" height="1.6" d="M22.9 58.2 L62.6 58.2 L62.6 59.800000000000004 L22.9 59.800000000000004 Z" class="JTTcEQvb_7"></path>
<style>.JTTcEQvb_0{stroke-dasharray:63 65;stroke-dashoffset:64;animation:JTTcEQvb_draw 1300ms ease 0ms forwards;}.JTTcEQvb_1{stroke-dasharray:63 65;stroke-dashoffset:64;animation:JTTcEQvb_draw 1300ms ease 0ms forwards;}.JTTcEQvb_2{stroke-dasharray:71 73;stroke-dashoffset:72;animation:JTTcEQvb_draw 1300ms ease 0ms forwards;}.JTTcEQvb_3{stroke-dasharray:36 38;stroke-dashoffset:37;animation:JTTcEQvb_draw 1300ms ease 0ms forwards;}.JTTcEQvb_4{stroke-dasharray:36 38;stroke-dashoffset:37;animation:JTTcEQvb_draw 1300ms ease 0ms forwards;}.JTTcEQvb_5{stroke-dasharray:288 290;stroke-dashoffset:289;animation:JTTcEQvb_draw 1300ms ease 0ms forwards;}.JTTcEQvb_6{stroke-dasharray:288 290;stroke-dashoffset:289;animation:JTTcEQvb_draw 1300ms ease 0ms forwards;}.JTTcEQvb_7{stroke-dasharray:83 85;stroke-dashoffset:84;animation:JTTcEQvb_draw 1300ms ease 0ms forwards;}@keyframes JTTcEQvb_draw{100%{stroke-dashoffset:0;}}@keyframes JTTcEQvb_fade{0%{stroke-opacity:1;}92.72727272727273%{stroke-opacity:1;}100%{stroke-opacity:0;}}</style></svg>
