<?xml version="1.0" encoding="utf-8"?>
<!-- Generator: Adobe Illustrator 17.1.0, SVG Export Plug-In . SVG Version: 6.00 Build 0)  -->
<!DOCTYPE svg PUBLIC "-//W3C//DTD SVG 1.1//EN" "http://www.w3.org/Graphics/SVG/1.1/DTD/svg11.dtd">
<svg version="1.1" id="Layer_1" xmlns="http://www.w3.org/2000/svg" xmlns:xlink="http://www.w3.org/1999/xlink" x="0px" y="0px"
	 viewBox="0 0 725.8 195.7" enable-background="new 0 0 725.8 195.7" xml:space="preserve">
<path fill="none" stroke="#988054" stroke-miterlimit="10" d="M362.8,163.4c0,0,6.2-62.1-61.6-74.2c-67.3-12-155.4,8.4-222.6-7.4
	C26.5,69.4,3,42.9,1,0"/>
<path fill="none" stroke="#988054" stroke-miterlimit="10" d="M363.1,163.4c0,0-6.2-62.1,61.6-74.2c67.3-12,155.4,8.4,222.6-7.4
	C699.5,69.4,722.9,42.9,725,0"/>
<line fill="none" stroke="#988054" stroke-miterlimit="10" x1="362.8" y1="154.9" x2="362.8" y2="0"/>
<path fill="none" stroke="#988054" stroke-miterlimit="10" d="M394.1,136.3c0,0-29.5,12-31.1,59.3"/>
<path fill="none" stroke="#988054" stroke-miterlimit="10" d="M331.9,136.3c0,0,29.5,12,31.1,59.3"/>
</svg>
