<?xml version="1.0" encoding="utf-8"?>
<!-- Generator: Adobe Illustrator 17.1.0, SVG Export Plug-In . SVG Version: 6.00 Build 0)  -->
<!DOCTYPE svg PUBLIC "-//W3C//DTD SVG 1.1//EN" "http://www.w3.org/Graphics/SVG/1.1/DTD/svg11.dtd">
<svg version="1.1" id="Layer_1" xmlns="http://www.w3.org/2000/svg" xmlns:xlink="http://www.w3.org/1999/xlink" x="0px" y="0px"
	 viewBox="0 0 770.1 188.7" enable-background="new 0 0 770.1 188.7" xml:space="preserve">
<path fill="none" stroke="#988054" stroke-miterlimit="10" d="M0,155.4c0,0,18.4,8,23,23.3"/>
<path fill="none" stroke="#988054" stroke-miterlimit="10" d="M46.1,155.4c0,0-18.4,8-23,23.3"/>
<path fill="none" stroke="#988054" stroke-miterlimit="10" d="M12.6,172.9c0,0,4.5,1,10.4,15.8"/>
<path fill="none" stroke="#988054" stroke-miterlimit="10" d="M33.4,172.9c0,0-4.5,1-10.4,15.8"/>
<path fill="none" stroke="#988054" stroke-miterlimit="10" d="M362.1,155.4c0,0,18.4,8,23,23.3"/>
<path fill="none" stroke="#988054" stroke-miterlimit="10" d="M408.2,155.4c0,0-18.4,8-23,23.3"/>
<path fill="none" stroke="#988054" stroke-miterlimit="10" d="M374.8,172.9c0,0,4.5,1,10.4,15.8"/>
<path fill="none" stroke="#988054" stroke-miterlimit="10" d="M395.6,172.9c0,0-4.5,1-10.4,15.8"/>
<path fill="none" stroke="#988054" stroke-miterlimit="10" d="M724,155.4c0,0,18.4,8,23,23.3"/>
<path fill="none" stroke="#988054" stroke-miterlimit="10" d="M770.1,155.4c0,0-18.4,8-23,23.3"/>
<path fill="none" stroke="#988054" stroke-miterlimit="10" d="M736.6,172.9c0,0,4.5,1,10.4,15.8"/>
<path fill="none" stroke="#988054" stroke-miterlimit="10" d="M757.4,172.9c0,0-4.5,1-10.4,15.8"/>
<path fill="none" stroke="#988054" stroke-miterlimit="10" d="M385.2,1c0,0-6.2,62.1,61.6,74.2c67.3,12,155.4-8.4,222.6,7.4
	C721.5,95,745,121.5,747,164.4"/>
<path fill="none" stroke="#988054" stroke-miterlimit="10" d="M384.9,1c0,0,6.2,62.1-61.6,74.2c-67.3,12-155.4-8.4-222.6,7.4
	C48.6,95,25.1,121.5,23,164.4"/>
<line fill="none" stroke="#988054" stroke-miterlimit="10" x1="385.2" y1="9.5" x2="385.2" y2="164.4"/>
</svg>
