<?xml version="1.0" encoding="utf-8"?>
<!-- Generator: Adobe Illustrator 17.1.0, SVG Export Plug-In . SVG Version: 6.00 Build 0)  -->
<!DOCTYPE svg PUBLIC "-//W3C//DTD SVG 1.1//EN" "http://www.w3.org/Graphics/SVG/1.1/DTD/svg11.dtd">
<svg version="1.1" id="Layer_1" xmlns="http://www.w3.org/2000/svg" xmlns:xlink="http://www.w3.org/1999/xlink" x="0px" y="0px"
	 viewBox="0 0 86.7 100.1" enable-background="new 0 0 86.7 100.1" xml:space="preserve">
<path fill="none" stroke="#988054" stroke-miterlimit="10" d="M0.4,26.8c0,0,34.3,14.9,42.9,43.4"/>
<path fill="none" stroke="#988054" stroke-miterlimit="10" d="M86.2,26.8c0,0-34.3,14.9-42.9,43.4"/>
<line fill="none" stroke="#988054" stroke-miterlimit="10" x1="43.3" y1="0" x2="43.3" y2="70.3"/>
<path fill="none" stroke="#988054" stroke-miterlimit="10" d="M24,59.4c0,0,8.3,1.9,19.3,29.5"/>
<path fill="none" stroke="#988054" stroke-miterlimit="10" d="M62.7,59.4c0,0-8.3,1.9-19.3,29.5"/>
<g>
	<polygon fill="#988054" points="24.3,59.1 24.3,59.1 24.3,57.5 24.3,57.5 24.3,53.2 24.3,53.2 24.3,53.2 24.3,20 37,20 37,18.4 
		0.1,18.4 0.1,20 12.8,20 12.8,98.5 0.1,98.5 0.1,100.1 37,100.1 37,98.5 24.3,98.5 	"/>
	<polygon fill="#988054" points="86.7,20 86.7,18.4 49.8,18.4 49.8,20 62.5,20 62.5,57.5 62.5,57.5 62.5,59.1 62.5,59.1 62.5,98.5 
		49.8,98.5 49.8,100.1 86.7,100.1 86.7,98.5 74,98.5 74,20 	"/>
</g>
<rect x="22.9" y="58.2" fill="#988054" width="39.7" height="1.6"/>
</svg>
