<?xml version="1.0" encoding="utf-8"?>
<!-- Generator: Adobe Illustrator 17.1.0, SVG Export Plug-In . SVG Version: 6.00 Build 0)  -->
<!DOCTYPE svg PUBLIC "-//W3C//DTD SVG 1.1//EN" "http://www.w3.org/Graphics/SVG/1.1/DTD/svg11.dtd">
<svg version="1.1" id="Layer_1" xmlns="http://www.w3.org/2000/svg" xmlns:xlink="http://www.w3.org/1999/xlink" x="0px" y="0px"
	 viewBox="0 0 214.1 52.9" enable-background="new 0 0 214.1 52.9" xml:space="preserve">
<g>
	<path fill="#8E8054" d="M209.7,38c-0.6-9.6-7.6-15.3-21.8-17.9c-10.1-1.8-22-1.4-33.4-0.9c-10.2,0.4-20.8,0.8-29.9-0.4
		C105,16.1,106.5,1.7,106.5,1.5l1,0.1c-0.1,0.6-1.4,13.6,17.2,16.1c9,1.2,19.6,0.8,29.8,0.4c11.6-0.5,23.5-0.9,33.7,0.9
		c14.8,2.7,21.9,8.6,22.6,18.8L209.7,38z"/>
</g>
<g>
	<path fill="#8E8054" d="M4.6,37.6l-1-0.1C4.1,27.4,11.2,21.4,26,18.5c10.1-2,22.1-1.6,33.7-1.3c10.2,0.3,20.8,0.6,29.8-0.8
		c18.6-2.8,17-16.2,17-16.3l1-0.1c0,0.1,1.7,14.6-17.9,17.5c-9.1,1.3-19.7,1-29.9,0.8c-11.5-0.3-23.4-0.7-33.4,1.3
		C12,22.2,5.1,28,4.6,37.6z"/>
</g>
<g>
	<path fill="#8E8054" d="M210.1,52.9c-2.2,0-4-1.8-4-4c0-2.2,1.8-4,4-4s4,1.8,4,4C214.1,51.1,212.3,52.9,210.1,52.9z M210.1,45.9
		c-1.6,0-3,1.3-3,3c0,1.6,1.3,3,3,3s3-1.3,3-3C213.1,47.3,211.8,45.9,210.1,45.9z"/>
</g>
<g>
	<path fill="#8E8054" d="M4,52.9c-2.2,0-4-1.8-4-4s1.8-4,4-4s4,1.8,4,4S6.2,52.9,4,52.9z M4,45.9c-1.6,0-3,1.3-3,3s1.3,3,3,3
		s3-1.3,3-3S5.6,45.9,4,45.9z"/>
</g>
</svg>
