<?xml version="1.0" encoding="utf-8"?>
<!-- Generator: Adobe Illustrator 17.1.0, SVG Export Plug-In . SVG Version: 6.00 Build 0)  -->
<!DOCTYPE svg PUBLIC "-//W3C//DTD SVG 1.1//EN" "http://www.w3.org/Graphics/SVG/1.1/DTD/svg11.dtd">
<svg version="1.1" id="Layer_1" xmlns="http://www.w3.org/2000/svg" xmlns:xlink="http://www.w3.org/1999/xlink" x="0px" y="0px"
	 viewBox="0 0 268.1 79.7" enable-background="new 0 0 268.1 79.7" xml:space="preserve">
<g>
	<path fill="#8E8054" d="M263.6,44c-0.7-9.6-9.5-15.4-27.5-18c-12.7-1.9-27.7-1.5-42.3-1.1c-12.9,0.3-26.3,0.7-37.7-0.6
		c-9.6-1.1-16.4-4-19.9-8.8c-3.3-4.3-2.7-8.4-2.6-8.6l1,0.2c0,0-0.6,3.9,2.5,7.9c3.4,4.5,9.9,7.3,19.2,8.3
		c11.4,1.3,24.7,0.9,37.6,0.6c14.6-0.4,29.6-0.8,42.4,1.1c18.5,2.7,27.5,8.8,28.3,18.9L263.6,44z"/>
</g>
<g>
	<path fill="#8E8054" d="M4.5,42.5l-1-0.1c0.8-10.2,9.8-16.2,28.3-18.9c12.8-1.9,27.9-1.5,42.4-1.1c12.9,0.3,26.2,0.7,37.6-0.6
		c9.4-1.1,15.8-3.9,19.3-8.4c3-4,2.4-7.8,2.4-7.8l1-0.2c0,0.2,0.6,4.3-2.6,8.6c-3.6,4.7-10.3,7.7-19.9,8.8
		c-11.4,1.3-24.8,0.9-37.7,0.6c-14.5-0.4-29.5-0.8-42.3,1.1C13.9,27.2,5.2,32.9,4.5,42.5z"/>
</g>
<g>
	<rect x="133.5" fill="#8E8054" width="1" height="48"/>
</g>
<g>
	<path fill="#8E8054" d="M134.1,79.7c-4.1,0-7.4-3.3-7.4-7.4s3.3-7.4,7.4-7.4s7.4,3.3,7.4,7.4S138.2,79.7,134.1,79.7z M134.1,65.8
		c-3.6,0-6.4,2.9-6.4,6.4s2.9,6.4,6.4,6.4c3.6,0,6.4-2.9,6.4-6.4S137.6,65.8,134.1,65.8z"/>
</g>
<g>
	<path fill="#8E8054" d="M264.1,58.3c-2.2,0-4-1.8-4-4c0-2.2,1.8-4,4-4s4,1.8,4,4C268.1,56.6,266.3,58.3,264.1,58.3z M264.1,51.4
		c-1.6,0-3,1.3-3,3c0,1.6,1.3,3,3,3s3-1.3,3-3C267.1,52.7,265.8,51.4,264.1,51.4z"/>
</g>
<g>
	<rect x="133.6" fill="#8E8054" width="1" height="57.2"/>
</g>
<g>
	<path fill="#8E8054" d="M4,61.8c-2.2,0-4-1.8-4-4c0-2.2,1.8-4,4-4c2.2,0,4,1.8,4,4C7.9,60,6.2,61.8,4,61.8z M4,54.9
		c-1.6,0-3,1.3-3,3c0,1.6,1.3,3,3,3c1.6,0,3-1.3,3-3C6.9,56.2,5.6,54.9,4,54.9z"/>
</g>
</svg>
