<?xml version="1.0" encoding="utf-8"?>
<!-- Generator: Adobe Illustrator 17.1.0, SVG Export Plug-In . SVG Version: 6.00 Build 0)  -->
<!DOCTYPE svg PUBLIC "-//W3C//DTD SVG 1.1//EN" "http://www.w3.org/Graphics/SVG/1.1/DTD/svg11.dtd">
<svg version="1.1" id="Layer_1" xmlns="http://www.w3.org/2000/svg" xmlns:xlink="http://www.w3.org/1999/xlink" x="0px" y="0px"
	 viewBox="0 0 38.6 27.2" enable-background="new 0 0 38.6 27.2" xml:space="preserve">
<g>
	<path fill="#8E8054" d="M19.3,27.2c-4.1,0-7.4-3.3-7.4-7.4s3.3-7.4,7.4-7.4s7.4,3.3,7.4,7.4S23.4,27.2,19.3,27.2z M19.3,13.3
		c-3.6,0-6.4,2.9-6.4,6.4c0,3.6,2.9,6.4,6.4,6.4c3.6,0,6.4-2.9,6.4-6.4C25.8,16.2,22.9,13.3,19.3,13.3z"/>
</g>
<g>
	<path fill="#8E8054" d="M38.6,19.7h-1c0-10.1-8.2-18.3-18.3-18.3C9.2,1.4,1,9.7,1,19.7H0C0,9.1,8.7,0.4,19.3,0.4
		C30,0.4,38.6,9.1,38.6,19.7z"/>
</g>
</svg>
