<?xml version="1.0" encoding="utf-8"?>
<!-- Generator: Adobe Illustrator 17.1.0, SVG Export Plug-In . SVG Version: 6.00 Build 0)  -->
<!DOCTYPE svg PUBLIC "-//W3C//DTD SVG 1.1//EN" "http://www.w3.org/Graphics/SVG/1.1/DTD/svg11.dtd">
<svg version="1.1" id="Layer_1" xmlns="http://www.w3.org/2000/svg" xmlns:xlink="http://www.w3.org/1999/xlink" x="0px" y="0px"
	 viewBox="0 0 41.9 38.6" enable-background="new 0 0 41.9 38.6" xml:space="preserve">
<g>
	<path fill="#58473A" d="M0.3,16.8l1.3-4.4c0.4-0.6,0.8-1.1,1-1.7C4.2,7.1,6.9,4.6,10,2.4c0.9-0.6,1.9-1.1,3-1.3
		c3.4-0.8,6.9-1.2,10.4-1.1c2.6,0.1,4.9,1,7,2.3c1.5,0.9,2.9,1.9,4.2,2.9c2.4,1.8,4,4.2,5.4,6.7c0.8,1.5,1.3,3.1,1.7,4.8
		c0.6,3.3-1.2,8.5-0.7,8.8c0,0-2.9,5.4-1.8,4.3c-0.5,0.5-1.1,1.1-1.6,1.8c-0.8,1-1.8,1.9-3,2.6c-2.2,1.2-4.4,2.3-6.6,3.5
		c-2,1-4.3,1-6.4,0.9c-2.3-0.1-4.7-0.5-6.9-1.1c-1.5-0.4-2.9-1.2-4.1-2.2c-3.2-2.7-5.8-5.9-7.9-9.5c-0.3-0.5-0.6-1.1-0.7-1.7
		c-0.5-2.3-0.9-4.6-1.4-7.1c-0.1,0-0.3-0.2-0.6-0.3 M12.5,32.4c1.4,1.3,3.1,2,5,2.4c2.7,0.5,5.4,0.7,8.1,0.6c3-0.2,5.6-1.2,7.8-3.2
		c2.2-1.9,3.5-4.4,4.4-7.1c1.2-3.8,1.4-7.6,0.2-11.5c-0.6-2-1.7-3.7-3.2-5.1c-1.3-1.3-2.9-2.3-4.5-3.5c-1.7,0.9-3.4,0.4-5.4,0.3
		C25,5.9,25,6.3,25.2,6.5c0.6,0.4,1.2,0.7,1.8,1.1c1.4,0.9,2.3,2.7,2,4.2c-0.3,1.7-1.2,3.1-3.1,3.3c-0.8,0.1-1.7,0-2.5-0.1
		c-0.6-0.1-1.2-0.3-1.8-0.3c-0.9-0.1-1.5,0.7-1.3,1.5c0.2,0.7,0.5,1.3,1,1.8c0.8,0.8,1.7,1.6,2.7,2.3c0.9,0.6,1.7,1.3,2.5,2.1
		c1.9,1.9,1.1,4.4,0.2,6.3c-0.1,0.3-0.5,0.6-0.9,0.7c-0.8,0.2-1.7,0.4-2.5,0.5c-2,0-3.6-0.9-5-2.3c-1.7-1.8-3.9-3-5.6-4.7
		c-1.2,1.1-1.1,2.3-0.7,3.5C12.6,28.3,12.7,30.3,12.5,32.4z M9.2,23.4c0.4-0.6,0.8-1.1,1.1-1.6c0.9-1.2,2.2-1.5,3.6-1
		c0.7,0.3,1.4,0.6,2.1,1.1c1,0.7,2,1.5,3,2.2c0.7,0.6,1.5,1.2,2.3,1.6c1.1,0.7,2.4,0.7,3.6,0.1c0.6-0.3,0.8-1,0.3-1.5
		c-0.2-0.2-0.4-0.5-0.7-0.6c-1.6-1-3.1-1.9-4.7-2.9c-0.2,0.3-0.3,0.5-0.5,0.6c-0.8,0.8-1.6,0.9-2.2,0.2c-0.6-0.7-0.4-1.6,0.4-2.2
		c0.3-0.2,0.6-0.4,0.9-0.6c-0.2-0.8-0.4-1.4-0.5-2c-0.1-0.4-0.1-0.9,0.1-1.4c0.7-2.4,3.2-3.9,5.6-3.4c0.5,0.1,1.1,0.3,1.6,0.2
		c0.8-0.1,1.7-0.4,1.9-1.4C26,10,25.1,9.1,24.2,8.4c-2.4-1.9-2.3-2.9-0.8-5.1c0.9-0.6,2-0.5,3.3-0.2C24,1.4,21.4,1.8,18.9,2
		c-1.8,0.1-3.5,0.6-5,1.8c0,0.3,0,0.5,0,0.8c0,1.1-0.4,1.5-1.4,1.2c-0.7-0.2-1.3-0.5-1.9-0.7C5.4,8.5,2.6,16.4,4.9,22
		c1,0.1,1.7,0.7,2.2,1.7c0.5,1.1,0,1.9-0.4,2.7c1.4,2.5,1.4,2.5,2.6,3C9.3,27.5,9.3,25.4,9.2,23.4z"/>
	<path fill="#58473A" d="M15.6,8.1c1.1,0.4,1.7,1.9,1.1,2.6c-0.2,0.2-0.5,0.4-0.8,0.4c-1.1,0.1-2.2-1-2.2-2.1c0-0.2,0.2-0.5,0.3-0.6
		C14.7,8.3,15.3,8.2,15.6,8.1z"/>
	<path fill="#58473A" d="M17.4,6.4c0.1-0.6,0.2-0.9,0.3-1.3c0.1-0.7,0.6-0.8,1.2-0.9c0.6,0,1.1,0.1,1.3,0.7c0.1,0.3,0.2,0.7,0.3,1.1
		c0.1,0.7-0.6,1.3-1.3,1.3c-0.2,0-0.5-0.1-0.7-0.2C18.2,6.9,17.9,6.7,17.4,6.4z"/>
	<path fill="#58473A" d="M6.3,18.4c0.3-0.9,1.1-1.1,1.8-0.6c0.6,0.5,0.9,1.7,0.5,2.3c-0.3,0.6-1.3,0.8-1.8,0.3
		C6.2,20,6,19.3,6.3,18.4z"/>
	<path fill="#58473A" d="M10.8,14.6c0.8,0.3,1.6,0.5,2.4,0.9c0.3,0.1,0.5,0.6,0.5,0.9c0,0.5-0.3,0.9-0.9,0.9
		c-0.8,0.1-1.4-0.2-1.9-0.7C10.5,16.2,10.4,15.9,10.8,14.6z"/>
	<path fill="#58473A" d="M9,9.5c0.6,0.3,1,1,0.9,1.6c-0.1,0.6-0.6,1.2-1.2,1.2c-0.9,0-1.5-0.7-1.2-1.5C7.7,10.4,8,10,8.3,9.7
		C8.5,9.5,8.8,9.5,9,9.5z"/>
</g>
</svg>
