<?xml version="1.0" encoding="utf-8"?>
<!-- Generator: Adobe Illustrator 17.1.0, SVG Export Plug-In . SVG Version: 6.00 Build 0)  -->
<!DOCTYPE svg PUBLIC "-//W3C//DTD SVG 1.1//EN" "http://www.w3.org/Graphics/SVG/1.1/DTD/svg11.dtd">
<svg version="1.1" id="Layer_1" xmlns="http://www.w3.org/2000/svg" xmlns:xlink="http://www.w3.org/1999/xlink" x="0px" y="0px"
	 viewBox="0 0 70.3 127.3" enable-background="new 0 0 70.3 127.3" xml:space="preserve">
<g>
	<path fill="#58473A" d="M51.8,30.7c1.2,0.8,2.4,1.5,3.6,2.3c0.3-0.4,0.5-0.7,0.7-1c0.9-1.8,1.7-3.5,2.5-5.3
		c0.6-1.2,1.2-2.3,1.7-3.4c1.5-3,3-6,4.5-9c0.1-0.2,0.3-0.5,0.4-0.7c0.9-1.5,1.6-1.7,3.6-0.8c0.5,0.2,0.9,0.8,1.3,1.3
		c0.4,0.5,0.4,1.1,0.2,1.7c-0.4,1.3-1,2.5-1.9,3.5c-0.9,1-1.7,2-2.5,3.1c-0.7,0.9-1.2,1.9-1.8,2.8c-0.9,1.5-1.6,3.1-2.7,4.5
		c-1.1,1.5-1.9,3.2-2.9,4.7c-0.1,0.1-0.1,0.3-0.2,0.5c0.3,0.3,0.6,0.7,0.9,0.9c1.3,0.7,2,2,2.9,3c0.6,0.7,0.9,1.8,1.1,2.7
		c0.2,1.1-0.1,2.1-0.9,2.9c-0.7,0.7-1.3,1.4-1.9,2.1c-1.1,1.4-1.8,3.1-2.6,4.8c-0.7,1.4-1,2.9-1.7,4.2c-0.6,1.2-0.9,2.5-1.1,3.8
		c-0.3,2.1-0.5,4.2-0.3,6.4c0.2,2.4,0.2,4.7,0.3,7.1c0.1,1.5,0.1,3-0.2,4.4c-0.3,1.5-0.7,3-1.1,4.5c-0.6,2.5-1.8,4.8-3.1,6.9
		c-1.7,2.6-4,4.6-6.8,6c-3.2,1.6-6.5,3.1-10,4.1c-1.7,0.5-3.4,1.2-4.9,2.1c-1.4,0.8-2.6,2.2-3.3,3.7c-0.3,0.5-0.5,1.1-0.7,1.7
		c-0.8,1.7-1.2,3.5-1.5,5.2c-0.2,1.1,0.1,1.6,1.1,2c1.1,0.4,2.2,1,3.2,1.8c1.1,0.9,2.4,1.6,3.5,2.5c1.1,0.9,2,2,3,3
		c0.8,0.8,1,1.7,0.5,2.8c-0.2,0.3-0.2,0.7-0.3,1.1c-0.1,0.3-0.3,0.8-0.5,0.9c-1.1,0.7-2.2,1.5-3.6,1.6c-1.8,0.1-3.6,0.3-5.4-0.1
		c-1.4-0.3-2.8-0.6-4.1-1c-2-0.5-4.1-1-6.1-1.6c-1.4-0.4-2.7-1-4-1.5c-1.6-0.7-3.2-1.5-4.8-2.4c-1.9-1.1-3.6-2.4-5-4.1
		c-0.4-0.4-0.5-1.1-0.7-1.7c-0.1-0.6-0.1-1.2-0.2-1.8c-0.1-0.7,0-0.9,0.7-1.2c0.2-0.1,0.4-0.3,0.6-0.4c1.3-1,2.7-1.8,4.3-1.9
		c2.1-0.1,4.2-0.3,6.3,0.3c1.1,0.3,2.2,0.4,3.4,0.6c0.4-1,0.9-2.1,1.3-3.1c0.9-2.6,1.1-5.3,0.9-8.1c-0.1-2.3-0.6-4.5-2.1-6.3
		c-0.2-0.3-0.5-0.5-0.7-0.7c-0.7-0.8-1.5-1.7-2.2-2.5c-0.5-0.6-1.1-1.2-1.5-1.9c-0.9-1.3-1.6-2.7-2.4-4.1c-0.1-0.2-0.2-0.4-0.4-0.6
		c0,0.6,0.1,1.1,0.4,1.6c0.6,1.1,1.2,2.3,1.9,3.3c0.8,1.1,1.8,2.1,2.7,3.2c0.7,0.8,1.4,1.6,2.1,2.4c-0.3,0.3-0.5,0.1-0.7-0.1
		C14,93,13.6,92.5,13.1,92c-1.6-1.6-3.1-3.4-4.2-5.4c-1-1.8-1.5-3.8-1.8-5.9c-0.4-2.8,0.1-5.6,0.9-8.3c0.6-2.1,1.3-4.1,2-6.1
		c0.9-2.3,2-4.4,3.6-6.3c1.9-2.3,3.6-4.8,5.3-7.3c1.5-2.2,2.7-4.4,3.5-6.9c0.2-0.8,0.5-1.5,0.7-2.3c0.4-1.8,0.7-3.6,1-5.5
		c0.4-2,0.3-4.1,0-6.1c-0.1-0.4-0.1-0.7,0.2-1.1c0.2-0.2,0.2-0.7,0.3-1c0.1-0.5,0.3-1,0.9-1.3c0.9-0.5,1.9-0.9,2.8-1.4
		c0.1-0.1,0.3-0.1,0.4-0.1c2-0.1,4-0.7,6-0.6c3.9,0.2,7.7,0.9,11.4,2.2c0.9,0.3,1.7,0.6,2.6,0.9c0.2,0.1,0.5,0.1,0.9,0.2
		c1.5-5,3-9.9,4.4-14.9c1.4-4.9,2.8-9.8,4.1-14.7c0.7,0.2,1.4,0.3,2.1,0.5c0.2,0.6,0,1.2-0.2,1.9c-0.9,2.8-1.7,5.7-2.6,8.5
		c-0.1,0.2-0.1,0.4-0.2,0.6c-0.5,3.2-1.8,6.2-2.7,9.2c-0.6,1.9-1.1,3.8-1.6,5.8c-0.3,1-0.6,2-0.9,3C51.9,29.8,51.9,30.2,51.8,30.7z
		 M11.2,67.5c-0.2,0.3-0.5,0.6-0.7,1c-0.5,1.1-1.1,2.2-1.5,3.4C8.3,74.6,8.3,77.3,9,80c0.4,1.4,1,2.6,1.9,3.8c1.5,2,3.4,3.5,5.5,4.9
		c0,0,0,0.1,0.1,0.2c0,0-0.1,0.1-0.1,0.1c-1.8-1.4-3.6-2.8-5.5-4.3c0.4,1.2,0.7,1.8,2,3c2.2,2.2,3.3,3.7,4.5,6.1
		c0,0.1,0.1,0.2,0.2,0.2c0.9,0.7,1.9,1.4,2.9,2.1c0.1,0.1,0.2,0.2,0.3,0.3c-0.4,0-0.6-0.1-0.9-0.3c-0.3-0.1-0.5-0.2-0.9-0.3
		c0.1,0.6,0.2,1,0.3,1.4c0.1,0.4,0.1,0.9,0.1,1.3c-0.3,4-1.2,7.8-2.6,11.5c-0.3,0.8-0.6,1.6-0.9,2.4c0.3-0.3,0.5-0.6,0.7-0.9
		c1-2.1,2-4.2,2.8-6.4c0.6-1.5,1.1-3.1,0.9-4.8c0-0.3,0-0.6,0.4-0.8c0.3,1.1,0.2,2.2-0.2,3.2c-1.3,4-3,7.9-5.3,11.5
		c-0.2,0.4-0.5,0.8-1,0.9c-0.1-0.2-0.2-0.4-0.4-0.7c-0.1,0.3-0.2,0.5-0.2,0.6c-0.1,1.1,0.8,2.4,2,2.9c0.9,0.3,1.8,0.6,2.7,0.7
		c2.1,0.4,3.8-0.2,5.1-1.9c0.1-0.2,0.3-0.3,0.7-0.6c0,0.4,0,0.5-0.1,0.6c-0.7,1.3-1.8,2.3-3.4,2.5c-0.6,0.1-1.1,0.1-1.7,0.2
		c-0.2,0-0.3,0.1-0.5,0.1c0.3,0.2,0.5,0.3,0.8,0.3c0.3,0,0.6,0,0.6,0.6c-1.3-0.2-2.6-0.2-3.8-0.5c-0.9-0.2-1.8-0.7-2.7-1.2
		c-0.2-0.1-0.3-0.3-0.3-0.5c0-0.1,0.2-0.3,0.2-0.5c-0.2-0.3-0.5-0.5-0.8-0.9c0.5,0.2,0.9,0.3,1.3,0.4c-0.1-0.2-0.1-0.3-0.1-0.4
		c-1.1-1.2-0.9-2.4-0.1-3.6c0.1-0.2,0.3-0.4,0.4-0.6c0.2-0.4,0.4-0.7,0.7-1.1c-0.5-0.2-0.8-0.4-1.2-0.5c-2.2-0.4-4.4-0.7-6.6-0.6
		c-1.6,0.1-3.1,0.5-4.5,1.4c-0.6,0.4-0.8,0.9-0.8,1.7c0.4-0.5,0.3-1.1,1-1.4c-0.1,0.3-0.2,0.5-0.3,0.7c-0.4,0.9-0.3,1.7,0.3,2.5
		c1,1.2,2.2,2.2,3.5,3c0.7,0.4,1.4,0.7,2.1,1.2c2.8,1.9,5.9,3.1,9.1,4c3.3,0.9,6.7,1.4,10.2,1.8c1.8,0.2,3.5-0.2,4.9-1.4
		c0.4-0.4,0.5-0.7,0.4-1.2c-0.2-0.9-0.6-1.7-1.1-2.5c-1.3-1.9-3.3-3-5.1-4.4c-0.6-0.4-1.2-0.8-1.8-1.2c-0.4-0.2-0.8-0.4-1.2-0.6
		c-0.4,0.7,0,1.6-0.7,2.1c-0.3,0.2-0.2,0.8-0.7,0.7c-0.5-0.1-0.3-0.6-0.3-1c0-0.1,0-0.3,0-0.4c0.2-1.8,0.4-3.5,0.7-5.3
		c0.2-1.1,0.4-2.2,0.8-3.1c0.9-2.2,1.9-4.3,3.4-6.2c0.1-0.1,0.1-0.2,0.1-0.4c-1,0.3-1.5,0.1-2.2-0.5c0.6,0,1.1,0,1.6,0
		c0.5,0,1,0.2,1.5-0.4c-0.5-0.1-0.8-0.2-1.2-0.2c-1.8-0.4-3.6-0.7-5.5-1.1c-0.2,0-0.5-0.1-0.6-0.3c-0.1-0.2-0.2-0.5-0.2-0.7
		c0.1-0.2,0.4-0.3,0.7-0.2c0.3,0,0.5,0.2,0.7,0.4c0.8,0.6,1.7,0.9,2.6,1c1.3,0.2,2.5,0.4,3.8,0.6c0.1,0,0.3,0,0.4,0
		c-0.8-0.3-1.7-0.4-2.5-0.7c-0.8-0.2-1.5-0.7-2.3-1c-1.7-0.6-1.7-0.6-2.3-1.2c1,0.4,1.9,0.8,2.8,1.1c2.1,0.6,4.3,1.3,6.5,0.6
		c0.1,0,0.3,0,0.4,0c1.8,0,3.5-0.5,5.2-1.2c1.8-0.8,3.5-1.7,5.2-2.5c2.6-1.1,4.8-2.7,6.3-5c1-1.6,2.2-3.1,3.1-4.8
		c1.2-2.3,1.6-4.8,2.1-7.3c0.3-1.6,0.6-3.2,0.5-4.8c-0.1-1.4-0.1-2.8-0.2-4.2c-0.1-1.4-0.3-2.8-0.5-4.2c0-0.2,0-0.4-0.1-0.7
		c-1.7,0.9-3.3,1.5-5.1,1.9c-0.2,0-0.3,0.3-0.4,0.5C47,66.2,45.7,67,45,67.1c0,0-0.1-0.1-0.1-0.1c0.5-0.4,1-0.9,1.7-1.5
		c-1.3,0-2.2,0.1-3.1,0.7c-0.1-0.7,0.4-0.8,0.7-0.8c0.6-0.2,1.3-0.3,1.8-0.4c0.3-0.6,0-1.3,0.9-1.5c0,0.5,0.1,0.9,0.1,1.3
		c1.8-0.3,3.5-0.9,5-1.7c0.5-0.3,1-0.6,1-1.3c0-0.6,0-1.3,0-1.9c-0.1,0.1-0.3,0.1-0.4,0.2c-1.3,1-2.7,1.6-4.4,1.6
		c-0.3,0-0.7,0.1-0.9,0.3c-1.1,0.9-2.5,0.9-3.8,1.3c0,0-0.1-0.1-0.3-0.2c1.4-0.6,2.7-1.1,3.9-1.9c1.2-0.8,2.2-2.3,2.1-3.8
		c0-0.2-0.1-0.5-0.2-0.9c-0.4,0.4-0.9,0.7-1,1c-0.1,0.4-0.3,0.7-0.5,0.9c-0.4,0.4-0.8,0.8-1.2,1.2c-1.3,1.2-2.5,2.4-4.1,3.1
		c-1.1,0.5-2.2,0.8-3.4,0.8c-0.5,0-0.9-0.2-1.1-0.9c0.3,0.1,0.5,0.1,0.8,0.1c0.3,0.1,0.7,0.3,1,0.3c1.2-0.2,2.4-0.4,3.5-1
		c1.7-1.1,3-2.5,4.4-3.9c0.1-0.1,0.2-0.3,0.3-0.5c-1.2-0.8-1.5-1.4-1.1-2.8c0.1-0.5,0.3-1,0.5-1.6c0.5-1.7,0.7-3.4,0.8-5.1
		c-0.4-0.2-0.8-0.4-1.1-0.6c-0.3-0.2-0.5-0.6-0.9-0.9c-0.3,0.4-0.6,0.6-0.9,0.9c-0.3,0.3-0.6,0.7-1,1c-1,0.9-2.4,0.8-3.2-0.3
		c-0.3-0.4-0.5-1-0.7-1.5c-0.2-0.5-0.4-1-0.7-1.4C39.2,45.2,39,45,38.8,45c-1.3,0-2.7-0.1-3.5,1.3c-0.2,0.3-0.5,0.7-0.7,1
		c-0.4,0.6-1,1.1-1.7,1.4c-0.4,0.2-0.7,0.2-0.9-0.2c-0.3-0.5-0.5-0.9-0.9-1.5c-0.8,1.1-1.8,2-2.2,3.4c-0.2,0.5-0.5,1-0.8,1.4
		c-0.7,1.1-1.6,2.1-2.6,2.8c0,0.7,0.8,1.1,0.4,1.9c-0.5,0.1-1.1,0-1.1,0.8c1.1,0.3,1.1,0.3,1.2,1.6c0,0.4,0.3,0.7,0.6,0.8
		c0.5,0.3,0.9,0.6,1,1.1c0.4,0.2,0.9,0.3,1,0.5c0.2,0.5,0.3,1.1,0.4,1.6c-1.1,0-0.5-0.9-0.8-1.2c-0.4-0.1-0.8-0.1-1-0.3
		c-0.2-0.2-0.2-0.7-0.2-0.9c-0.5-0.3-1-0.5-1.3-0.9c-0.2-0.4-0.2-1-0.2-1.5c-0.2,0-0.4-0.1-0.6-0.1c-0.8-0.2-1-0.5-0.6-1.2
		c0.3-0.5,0.6-0.8,1-1.3c-0.3-0.6-0.3-1.5-1.1-1.9c-0.1-0.1-0.2-0.3-0.3-0.5c-0.2-0.9-0.4-1.8-0.5-2.8c0-0.3,0-0.6-0.1-1.1
		c-0.2,0.3-0.3,0.5-0.4,0.6c-0.7,1.3-1.3,2.6-2.1,3.8c-1.3,1.9-2.8,3.8-4.2,5.7C14.6,62,12.9,64.8,11.2,67.5L11.2,67.5z M49.3,30.5
		c-0.2-0.1-0.3-0.2-0.5-0.3c-2.3-1-4.7-1.5-7.1-2.1c-1.8-0.4-3.7-0.5-5.6-0.6c-2-0.1-3.9-0.1-5.7,0.5c-1,0.3-1.9,0.7-2.8,1.1
		c-0.6,0.3-0.9,0.9-0.7,1.6c0.3,0.7,0.5,1.5,1,2.1c1,1.1,2.2,2.1,3.3,3.1c0.4,0.4,0.8,0.4,1.3,0.2c2-0.7,4.2-1,6.3-1.2
		c0.4,0,0.7-0.1,1,0.3c0.1,0.1,0.3,0.2,0.4,0.2c0.7,0.2,1.4,0.4,2.2,0.6c1.4,0.2,2.7,0.7,3.9,1.5c0.2,0.1,0.5,0.2,0.8,0.3
		C47.9,35.4,48.6,33,49.3,30.5z M52,54c0.9-1.5,1.1-3.1,0.7-4.8c-0.2-0.8-0.4-1.5-0.5-2.3c-0.1-0.8-0.6-1-1.3-1.2
		c-1.7-0.3-3.4-0.7-5.1-1.1c-1.4-0.4-2.9-0.8-4.3-1.3c-2.5-0.8-5-1.8-7.3-3.1c-0.8-0.5-1.6-1.1-2.4-1.6c-0.5-0.3-0.9-0.4-1.4,0
		c-0.4,0.4-0.9,0.8-1.3,1.2c-1.6,1.2-2.5,3-3.4,4.7c-1.2,2.1-1.5,4.5-1.2,7c0.1,0.6,0.2,1.3,0.7,1.8c0.9-0.2,1.4-0.8,1.9-1.5
		c0.6-1,1.2-2,1.8-2.9c0.3-0.5,0.7-1.1,1-1.6c0.5-0.7,1.2-1.3,2.1-1.6c0.2,0.8,0.4,1.6,0.6,2.4c0.7,0,1-0.4,1.3-0.8
		c0.6-0.8,1.2-1.7,1.9-2.4c0.7-0.7,1.5-1.4,2.7-1.1c1.2,0.4,2,1.2,2.6,2.2c0.2,0.3,0.1,0.8,0.2,1.2c0.1,0.4,0.1,0.8,0.6,0.9
		c0.4,0.1,0.8,0.1,1.1-0.3c0.2-0.3,0.5-0.6,0.6-0.9c0.3-0.5,0.7-0.9,1.2-1.2c0.6-0.4,1.1-0.1,1.7,0c0.8,0.1,1.2,0.5,1.5,1.1
		c0.3,0.6,0.7,1.1,0.7,1.9c0,0.6-0.1,1.2-0.1,1.8c0,1.5-0.1,2.9-0.9,4.2c-0.1,0.2-0.2,0.5-0.3,0.7c-0.1,0.4-0.1,0.7,0.2,1
		c1-0.4,1.4-1.6,2.6-1.9c0,0.7-0.1,1.4-0.1,2c0.1,0,0.2,0,0.2,0.1c0.2-0.4,0.4-0.7,0.6-1.1c0.2-0.4,0.3-0.8,0.5-1.2
		c0.2-0.4,0.1-0.8,0.7-1.1C52,53.4,52,53.7,52,54z M32.9,36.9c1.5,2.2,14.6,7.7,18.3,7.2c-0.1-0.3-0.3-0.6-0.4-0.9
		c-0.4-0.7-0.9-1.4-1.2-2.1c-0.4-0.7-0.9-1.2-1.6-1.5c-0.2-0.1-0.5-0.3-0.7-0.4c-2.5-1.7-5.4-2.7-8.4-2.9c-1.7-0.1-3.4,0.2-5,0.4
		C33.6,36.7,33.3,36.8,32.9,36.9z M53,44.5c2.2,0.6,4.1,0.3,6.1-0.4c0.8-0.3,1.6-0.8,2.1-1.5c0.5-0.6,0.7-1.4,0.4-1.9
		c-0.7-1.1-1.4-2.2-2.4-3.1c-0.5-0.5-0.9-1-1.5-1.6C55.8,38.7,54.6,41.7,53,44.5z M49,60.9c0.3,0,0.5,0.1,0.6,0.1
		c1.2-0.2,2.2-1.1,3.1-1.8c0.6-0.5,0.6-1.1,0.7-1.8c0.6-2.6,1.5-5.1,3-7.4c0.7-1,1.4-2,2.1-3.1c0.2-0.2,0.3-0.5,0.5-0.7
		c-0.2-0.1-0.3-0.1-0.4-0.2c-0.2,0-0.3,0-0.5,0c-1.5,0.4-2.9,0.3-4.4,0.2c-0.2,0-0.4,0-0.7,0c0,0.2,0,0.3,0.1,0.4
		c0.7,1.4,0.7,2.8,0.6,4.3c-0.2,1.8-0.8,3.6-1.5,5.2c-0.5,1-1.1,2-1.8,2.9C50,59.7,49.5,60.2,49,60.9z M60.4,28.1
		c0.1,0.1,0.1,0.1,0.2,0.2c0.2-0.2,0.4-0.4,0.5-0.6c0.3-0.4,0.5-0.8,0.7-1.2c1.4-2.7,3.4-4.9,5.3-7.2c0.6-0.8,1.2-1.6,1.6-2.5
		c0.3-0.6,0.4-1.3,0.4-2c0-1.3-1.4-2-2.5-1.2c-0.6,0.4-1.1,1-1.3,2.1c0.4-0.3,0.6-0.6,0.9-0.8c0.3-0.2,0.6-0.3,0.8-0.5
		c0.9,0.6,1,0.9,0.5,1.6c-0.1-0.4-0.1-0.7-0.2-1c-0.9,0.3-1.9,1.2-2.2,1.9c-0.6,1.5-1.2,3-1.9,4.5c-0.7,1.5-1.4,2.9-2.1,4.4
		C61,26.5,60.7,27.3,60.4,28.1z M54.9,33.6c-1.1-0.7-2.1-1.3-3.3-2.1c-0.8,2.7-1.6,5.2-2.3,7.8c0.5,0.5,1,1.1,1.5,1.6
		C51.8,40.1,54.6,35,54.9,33.6z M30.1,37.5c-1.4-1.4-2.8-2.6-4.3-4.1c0.2,3.3-0.2,6.4-0.8,9.5c0.8-0.9,1.5-1.9,2.3-2.8
		C28.2,39.2,29.1,38.4,30.1,37.5z M64.7,16.8c-0.1,0-0.1-0.1-0.2-0.1c-1.4,3-2.9,5.9-4.3,8.9c0.1,0,0.1,0.1,0.2,0.1
		C61.9,22.8,63.6,19.9,64.7,16.8z M15.3,59.8c-1,0.8-3.8,5.1-3.9,6.3C12.9,64.1,14,61.9,15.3,59.8z M22.1,49.3
		c0.9-1.4,1.7-3.5,1.8-4.8C23.3,46.2,22.7,47.8,22.1,49.3z M45.4,46.2c-0.1-0.1-0.1-0.1-0.2-0.2c-0.9,0.4-1.3,1.2-1.6,2.1
		C44.2,47.5,44.8,46.9,45.4,46.2z M34.1,122.3c0.1,0,0.2-0.1,0.2-0.1c-0.2-0.5-0.5-1-1-1.4C33.6,121.3,33.8,121.8,34.1,122.3z
		 M58.9,28.4C58.8,28.4,58.8,28.4,58.9,28.4c-0.2,0.2-0.3,0.4-0.3,0.6c0,0,0.1,0,0.1,0C58.7,28.9,58.8,28.7,58.9,28.4z"/>
	<path fill="#58473A" d="M34.5,72c0.9,0.3,0.9,1.2,1.5,1.9c0.1-0.6,0.2-1,0.2-1.5c0.5,0.4,0.6,0.9,0.4,1.3c-0.4,1.4,0.5,2,1.4,2.7
		c0.2,0.1,0.4,0.2,0.6,0.3c0.2-0.2,0.3-0.4,0.7-0.8c0.1,0.4,0.3,0.6,0.3,0.8c0,0.5,0.3,0.8,0.8,0.9c0.6,0.2,1.1,0.4,1.7,0.6
		c0.1,0,0.1,0.1,0.3,0.3c-1.1,0-1.9-0.6-2.9-0.8c-1,2.5-2,5.1-3.1,7.6c-1.1,2.5-2.5,4.7-4.3,6.8c0.3-0.5,0.6-1.1,0.9-1.6
		c2-3.2,3.7-6.6,4.9-10.2c0.2-0.7,0.4-1.5,0.7-2.2c0.2-0.6,0.1-0.9-0.5-1.2c-0.6-0.3-1.1-0.8-1.8-1.3c-0.2,0.6-0.5,1.1-0.6,1.6
		c-0.6,2.3-1.5,4.4-2.5,6.5c-0.9,2-2,3.8-3,5.8c-0.5,1-1,2.1-1.5,3.1c-0.4,0.7-0.8,1.5-1.3,2.2c-0.2,0.3-0.3,0.7-0.5,1.2
		c2.6-1,4.9-2.1,6.6-4.1c-0.4,1-1.2,1.7-2,2.3c-1.3,0.9-2.7,1.6-4.1,2.3c-0.6,0.3-1,0-0.8-0.7c0.2-0.6,0.4-1.1,0.7-1.7
		c1.3-2.5,2.7-5,3.9-7.5c1-1.9,1.9-3.8,2.7-5.8c0.7-1.7,1.1-3.5,1.6-5.2c0.1-0.3,0-0.7-0.2-1c-0.3-0.6-0.6-1.1-0.9-1.7
		C34.6,72.5,34.6,72.2,34.5,72z"/>
	<path fill="#58473A" d="M41.9,90.6c0.5-1.1,1.1-2.2,1.7-3.4c-1-0.1-1.5,0.7-2.3,1c-0.3-0.4,0.1-0.6,0.3-0.7c0.6-0.3,1.2-0.7,1.9-1
		c0.5-0.2,0.8-0.5,0.9-1c0.2-0.6,0.5-1.3,0.7-1.9c0.1-0.3,0.3-0.6,0-0.9c-0.1-0.1,0-0.6,0.1-0.7c0.7-0.5,0.8-1.3,1-2.1
		c-0.7-0.3-1.4-0.5-2.1-0.8c0-0.1,0-0.1,0-0.2c0.7,0.2,1.3,0.3,2.1,0.5c0.7-1.5,1.1-3.1,1.3-4.7c0.2-1.6,0.2-3.2,0.4-4.9
		c0.5,0.3,0.5,0.8,0.5,1.2c0,1.7-0.2,3.3-0.6,4.9c-0.2,0.9-0.5,1.9-0.7,2.8c0,0.2,0,0.4-0.1,0.6c0.8,0.5,1.7,0.1,2.6,0.1
		c-0.2,0.2-0.2,0.4-0.4,0.5c-0.7,0.5-1.4,1-2.2,1.4c-0.7,0.3-1,0.8-1.2,1.5c-0.3,0.9-0.6,1.7-1,2.6c-0.8,1.8-1.7,3.5-2.6,5.2
		C42.1,90.7,42,90.6,41.9,90.6z M46.6,81.1c0.6-0.3,1-0.5,1.6-0.8C46.8,79.8,46.7,79.9,46.6,81.1z"/>
	<path fill="#58473A" d="M15.2,82.2c-0.2-0.1-0.4-0.1-0.5-0.2c-1.5-1.5-3.1-2.7-4.4-4.5c-0.3-0.5-0.6-1-0.7-1.7
		c0.5,0.1,0.5,0.1,1.5,1.4c0.2-1.1,0.4-2.2,0.7-3.5c0.3,1.5-0.5,2.8,0.1,4.2c0.6-0.1,0.9-0.5,1-0.9c0.4-1.1,0.8-2.3,1.3-3.4
		c0.2-0.6,0.1-1.2-0.4-1.7c-0.5-0.6-0.9-1.2-1.4-1.8c-0.7-0.8-1.1-1.7-1.3-2.7c0,0,0,0,0,0c0.5-0.2,0.7,0.1,0.9,0.5
		c0.3,0.6,0.6,1.2,0.9,1.8c0.4,0.8,0.9,1.5,1.5,2.4c0.6-1.6,0.6-3.2,1.7-4.3c-0.1,0.3-0.1,0.5-0.2,0.8c-0.3,0.9-0.5,1.8-0.8,2.7
		c-0.2,0.7-0.4,1.5,0.6,2.1c-0.5-0.1-0.7-0.1-1-0.1c-0.3,0.9-0.5,1.8-0.8,2.6c-0.3,1.1-0.9,2-2.1,2.7c0.5,0.6,1.1,1.2,1.6,1.7
		C14.1,81.1,14.6,81.7,15.2,82.2L15.2,82.2z"/>
	<path fill="#58473A" d="M36,65.3c-0.9-0.6-1.6-1.2-2.4-1.7c-0.2,0.2-0.3,0.3-0.4,0.4c-0.6,0.6-0.9,0.8-1.7,0.5
		c-0.6-0.3-1.1-0.7-1.7-1.1c0.4-0.5,0.7-0.4,1-0.2c0.2,0.2,0.4,0.4,0.6,0.5c0.5,0.4,0.9,0.3,1.3-0.2c0.4-0.4,0.7-0.8,1.3-0.9
		c0.5,1.4,1.5,1.8,2.9,1.7c0,0.3,0,0.4,0,0.6c-0.2,0.8-0.1,1,0.7,1.3c1.2,0.5,2.2,0.2,3-0.7c0.1-0.2,0.5-0.4,0.6-0.3
		c0.2,0.1,0.4,0.4,0.6,0.6c-0.5,0.2-0.9,0.3-1.2,0.5c-0.9,0.5-1.8,1-3,0.6C36.7,66.6,36,66.2,36,65.3z"/>
	<path fill="#58473A" d="M22.1,54.6c0,0.1,0.1,0.2,0,0.3c-2.4,3-4.7,6-6.8,9.2c0.2-1.1,4.3-7.4,5.9-9.1
		C21.4,54.9,21.6,54.5,22.1,54.6z"/>
	<path fill="#58473A" d="M28.3,57.8c0.4,1.1,1.2,1.7,2.1,2.3c1.2,0.8,2.4,1.4,3.7,1.8c0.9,0.3,1.9,0.5,2.9,0.7c-1,0.1-2.1,0-3-0.3
		c-1.8-0.6-3.5-1.3-4.9-2.5c-0.3-0.3-0.7-0.6-0.9-0.9C27.8,58.5,27.7,58.1,28.3,57.8z"/>
	<path fill="#58473A" d="M40.7,49.7c0,0.3,0,0.5,0.1,0.7c0.5,0.1,1,0.2,1.1,0.9c0,0.6-0.4,0.9-0.8,1.2c-0.4,0.3-0.9,0.4-1.4,0.2
		c-0.4-0.2-0.5-0.6-0.4-1C39.5,50.9,39.9,50.3,40.7,49.7z M40.3,52.2c0.4-0.1,0.8-0.1,1-0.6c0-0.1-0.1-0.3-0.2-0.3
		c-0.5,0-0.8,0.2-0.8,0.7C40.2,52,40.2,52.1,40.3,52.2z"/>
	<path fill="#58473A" d="M23.4,72.4c-1.3-1.1-2.7-2.1-4-3.2c-0.7-0.6-1.4-1.2-2-1.8c-0.6-0.6-1.1-1.2-1.6-1.9
		c-0.1-0.1-0.1-0.4-0.2-0.7c0.3,0.1,0.5,0.2,0.6,0.3c1.5,2.2,3.5,3.9,5.5,5.6c0.6,0.5,1.2,1,1.8,1.5C23.5,72.3,23.5,72.4,23.4,72.4z
		"/>
	<path fill="#58473A" d="M26.4,65c-0.4,0.8-0.7,1.4-1.5,1.4c-0.5,0-0.8-0.3-0.6-0.8c0.2-0.7,0.7-1.2,1.3-1.5c0.2-0.1,0.6,0,0.6,0.1
		C26.4,64.5,26.4,64.9,26.4,65z M25.1,65.7c0.6,0,0.9-0.3,0.7-0.9C25.5,65.1,25.3,65.4,25.1,65.7z"/>
	<path fill="#58473A" d="M18.8,72c0.3,0.3,0.7,0.2,1-0.1c0.4-0.5-0.4-0.6-0.4-1c0.4-0.3,0.7-0.1,0.9,0.2c0.2,0.4,0.3,0.8,0,1.1
		c-0.3,0.2-0.6,0.4-1,0.5c-1,0.1-1.4-0.4-1-1.3c0.1-0.4,0.2-0.8,0.7-0.9C19.4,71,18.6,71.5,18.8,72z"/>
	<path fill="#58473A" d="M29.8,57.6c-1.1-0.8-2.3-1.7-2.9-3c-0.1-0.2,0-0.5,0.1-0.8c1,1.2,2,2.5,3,3.7
		C29.9,57.5,29.9,57.6,29.8,57.6z"/>
	<path fill="#58473A" d="M39.6,92.5c-0.2,0.7-0.6,1.1-1.1,1.4c-0.2,0.1-0.5,0.1-0.7,0c-0.1,0,0-0.4,0-0.6c0.1-0.2,0.3-0.5,0.4-0.7
		C38.7,91.7,38.8,91.7,39.6,92.5z"/>
	<path fill="#58473A" d="M42.4,73.2c1.6-0.2,3.1-0.3,4.6-0.5C46.5,73.5,44.1,73.8,42.4,73.2z"/>
	<path fill="#58473A" d="M25.9,87.7c-0.2,0.5-0.3,0.8-0.5,1.2c0.6,0.2,0.9-0.3,1.3-0.6c-0.1,0.7-0.5,0.9-0.9,1.2
		c-0.3,0.2-0.7,0.2-1-0.1c-0.3-0.3-0.2-0.6-0.1-0.9c0.1-0.3,0.3-0.5,0.5-0.7C25.4,87.7,25.6,87.8,25.9,87.7z"/>
	<path fill="#58473A" d="M28.6,68c1.7,0.7,3.4,1.5,5.1,2.2C31.9,69.8,29.2,68.7,28.6,68z"/>
	<path fill="#58473A" d="M35.8,71.6c0.8,0.2,1.6,0.4,2.4,0.7c0,0.1,0,0.1-0.1,0.2c-0.8-0.2-1.6-0.4-2.4-0.6
		C35.8,71.8,35.8,71.7,35.8,71.6z"/>
	<path fill="#58473A" d="M15.2,82.2c0.8,0.4,1.4,0.9,1.9,1.6C16.5,83.3,15.5,83.1,15.2,82.2L15.2,82.2z"/>
	<path fill="#58473A" d="M16.8,74.8c0.6,0.5,1.2,1.1,1.7,1.6c0,0.1-0.1,0.1-0.1,0.2c-0.6-0.5-1.2-1-1.7-1.6
		C16.7,74.9,16.8,74.9,16.8,74.8z"/>
	<path fill="#58473A" d="M46.9,86.1c0.4,1,0.4,1-0.4,0.9C46.7,86.8,46.8,86.5,46.9,86.1z"/>
	<path fill="#58473A" d="M18.8,85.1c-0.2-0.2-0.5-0.3-0.7-0.5c0,0,0-0.1,0.1-0.1c0.3,0.2,0.5,0.4,0.8,0.5C18.9,85,18.8,85,18.8,85.1
		z"/>
	<path fill="#58473A" d="M42.9,78.5c0.2,0,0.4,0.1,0.6,0.1c0,0,0,0.1,0,0.1c-0.1,0-0.2,0.1-0.4,0.1c-0.1,0-0.2-0.1-0.3-0.2
		C42.9,78.7,42.9,78.6,42.9,78.5z"/>
	<path fill="#58473A" d="M34.5,70.4c0.2,0,0.5,0.1,0.7,0.1c0,0,0,0.1,0,0.1c-0.2,0-0.5,0-0.7-0.1C34.5,70.5,34.5,70.5,34.5,70.4z"/>
	<path fill="#58473A" d="M29.4,76c0.2,0.1,0.4,0.2,0.6,0.2c0,0,0,0.1,0,0.1C29.8,76.2,29.6,76.1,29.4,76C29.4,76,29.4,76,29.4,76z"
		/>
	<path fill="#58473A" d="M25.2,73.3c0.1,0.1,0.3,0.2,0.4,0.3c0,0-0.1,0.1-0.1,0.1c-0.2-0.1-0.3-0.2-0.5-0.3
		C25.1,73.4,25.2,73.4,25.2,73.3z"/>
</g>
</svg>
