<?xml version="1.0" encoding="utf-8"?>
<!-- Generator: Adobe Illustrator 17.1.0, SVG Export Plug-In . SVG Version: 6.00 Build 0)  -->
<!DOCTYPE svg PUBLIC "-//W3C//DTD SVG 1.1//EN" "http://www.w3.org/Graphics/SVG/1.1/DTD/svg11.dtd">
<svg version="1.1" id="Layer_1" xmlns="http://www.w3.org/2000/svg" xmlns:xlink="http://www.w3.org/1999/xlink" x="0px" y="0px"
	 viewBox="0 0 107.9 194" enable-background="new 0 0 107.9 194" xml:space="preserve">
<g>
	<path fill="#58473A" d="M11.7,33.3c0.1-0.2,0.1-0.3,0.2-0.4c1.4-1.3,2.8-2.6,4.4-3.6c1-0.6,2-0.9,3.2-0.6c0,0.2,0.1,0.4,0.1,0.7
		c-2.7,0.1-4.8,1.4-6.6,3.1C12.7,32.8,12.3,33.2,11.7,33.3z"/>
	<path fill="#58473A" d="M26.9,36.7c0.2-0.4,0.2-0.6,0.4-0.8c0.3-0.3,0.6-0.5,0.9-0.8c0.2-0.2,0.2-0.5,0.3-0.7
		c-0.3-0.8-1.3-1.1-1.2-2.1c0.9,0.1,1,0.1,1.7,0.6c0.4,0.3,0.7,0.6,0.9,1c0.4,0.7,0.2,1.5-0.3,2.1c-0.2,0.2-0.4,0.4-0.7,0.5
		c-0.2,0.1-0.5,0.3-0.8,0.3C27.8,36.8,27.5,36.7,26.9,36.7z"/>
	<path fill="#58473A" d="M29,28.4L29,28.4c0.5-0.2,0.9-0.5,1.4-0.7c0.4-0.2,0.9-0.2,1.3,0.1c0.4,0.4,0.6,0.8,0.3,1.4
		c-0.6,0.5-0.9-0.3-1.5-0.4c-1,0.6-2.2,0.6-3.4,0.8c-0.3,0-0.6,0-0.6-0.5C27.4,28.8,28.3,28.8,29,28.4z"/>
	<path fill="#58473A" d="M13.5,34.9c0-0.5,0.4-0.7,0.8-0.9c3.4-2.2,4.4-2.7,5.5-2.9c0,0.1,0.1,0.3,0.2,0.5c-2,1.1-4,2.1-5.9,3.2
		C13.9,34.9,13.7,34.9,13.5,34.9z"/>
	<path fill="#58473A" d="M14.7,36.8c0-0.1,0-0.1,0-0.2c0-0.1,0-0.1,0.1-0.2c0.5-0.3,0.9-0.7,1.5-0.9c1.4-0.7,2.8-1.7,4.3-2.3
		c0.1,0.2,0.2,0.4,0.2,0.5c-0.1,0.2-0.2,0.3-0.4,0.4C18.5,35,16.8,36.2,14.7,36.8z"/>
	<path fill="#58473A" d="M36.2,31.3c-0.1-0.7-0.2-1.3-0.3-2c0.2,0,0.5,0,0.5,0.1c0.9,1,0.9,2.3,0.1,3.3c-0.2,0.3-0.4,0.3-1.1-0.1
		C35.7,32.2,35.9,31.8,36.2,31.3z"/>
	<path fill="#58473A" d="M22.4,66.8c0,0.4,0.1,0.7,0,1c-0.4,1-0.8,2-1.2,3c-0.5,0.1-0.6-0.2-0.5-0.5c0.1-0.3,0.2-0.7,0.4-1
		c0.5-0.7,0.9-1.5,1-2.3C22.1,66.9,22.3,66.9,22.4,66.8z"/>
	<path fill="#58473A" d="M48.3,44.4c-1.5,2.4-3.7,4.4-5.6,5.2c-0.1-0.2-0.2-0.3-0.4-0.5C44.2,47.3,46.6,46.3,48.3,44.4z"/>
	<path fill="#58473A" d="M106.1,103.4c-0.1-0.3-0.1-0.6-0.2-0.8c-0.2-0.8-0.5-1.7-0.8-2.5c-0.4-1.1-0.5-2.4-1.2-3.4
		c-0.4-0.6-0.6-1.4-0.8-2.1c-0.3-1.2-0.6-2.5-1.1-3.7c-0.9-1.9-2-3.7-3.1-5.5c-1.8-2.9-3.7-5.6-5.7-8.4c-0.9-1.3-2-2.4-2.9-3.7
		c-1.2-1.6-3-2.7-4.2-4.4c-0.1-0.1-0.2-0.3-0.4-0.3c-1.6-0.9-2.8-2.3-4.2-3.3c-0.7-2.1-1.8-3.8-2.9-5.6c-0.9-1.5-1.9-2.9-2.9-4.4
		c-1.4-2-2.9-4.1-4.4-6.1c-0.6-0.8-1.2-1.6-1.9-2.3c-0.9-1-2-1.8-3-2.7c-0.1-0.1-0.4-0.2-0.2-0.6c0.2,0,0.4,0,0.7,0
		c1.4,0.2,2.8,0.1,4.2,0c0.3,0,0.6,0,0.9,0c1.8,0.1,3.5-0.2,5.2-0.7c0.7-0.2,1.5-0.4,2.2-0.3c0.5,0,1-0.1,1.5-0.3
		c0.6-0.2,1.1-0.4,1.7-0.6c0.1-0.3,0.3-0.6,0.4-0.9c-0.5-2.1-0.9-4.1-1.7-6.1c-0.5-1.1-0.9-2.3-1.4-3.4c-0.7-1.5-1.4-3-2.4-4.3
		c-0.9-1.2-1.7-2.5-2.5-3.8c-1.3-2.1-2.9-3.9-4.8-5.4c-0.8-0.6-1.6-1.1-2.4-1.7c-0.9-0.7-1.9-1.2-2.9-1.5c-0.5-0.1-1-0.3-1.5-0.4
		c-0.1-0.1-0.1-0.2-0.2-0.3c-0.6,0.1-1.2,0.1-1.6,0.2c-0.1,0.2-0.1,0.3-0.2,0.4c-1,1-2,2-2.5,3.3c-0.3,0.9-0.6,1.8-0.9,2.6
		c-0.1,0.2-0.1,0.4-0.2,0.7c-0.8-0.6-1.4-1.2-2.1-1.9l-2.6-0.6c0.1,0.1,0.1,0.2,0.2,0.3c0.1,1.1,0.2,2,0.2,2.7
		c0.7,1.2,1.5,1.6,2.7,1.1c0.3,0.2,0.5,0.4,0.7,0.5c0.3,0,0.4-0.5,0.8-0.3c0.2,0.5-0.3,1.2,0.3,1.7c0.3,0,0.7,0,1.1,0.1
		c0.2,0.4,0.4,0.7,0.6,1c0.5,0,1.7,0,2.4-0.2c0.2-0.3,0.4-0.5,0.6-0.7c0.3-0.3,0.3-0.3,0.8-0.6c-0.1,0.7-0.3,1.3-0.4,2.1
		c0.3,0,0.5,0.1,0.8,0.1l0.4-0.2c0.5-0.6,1-1.1,1.4-1.6c0.1-0.1,0.2-0.1,0.3-0.1c0.2,0.2,0.3,0.5,0.4,0.5c0.8,0.5,1.4,0,2.1-0.1
		c2.5,3.6,5.1,7.1,5.8,11.5c-0.2,0.1-0.3,0.3-0.4,0.3c-0.3,0.1-0.7,0.2-1,0.1c-1.2-0.2-2.4-0.1-3.6-0.4c-1.2-0.3-2.5-0.4-3.8-0.6
		c-1.1-0.2-2.3-0.5-3.4-0.8c-0.1,0-0.1-0.1-0.1-0.1c-0.1-0.3-0.2-0.6-0.4-1c-0.5-0.2-1-0.4-1.5-0.5c-1.9-0.4-3.9-0.8-5.9-1
		c-2-0.1-4.1-0.4-6.1-0.2c-0.5,0.1-1,0.1-1.4,0.4c-0.1,0.6-0.1,1.2-0.3,1.6c-0.4,0.7-0.4,1.3-0.2,2c-0.4,0.4-0.7,0.8-1,1.1
		c-1.8,0.2-3.1-0.9-4.5-1.8c0.6-1.6,1-3.1,1-4.8c-0.9-1.7-1-1.9-1.9-2.4c-1.6-0.9-3.1-1.8-4.9-2.3c-1.8-0.5-3.6-0.9-5.3-1.6
		c-1.9-0.7-3.8-0.9-5.8-0.4c-1,0.2-2.1,0.4-2.9,0.5c-1-0.2-1.6-0.7-2.4-0.7c-0.8,0-1.5,0-2.2,0.3c-0.7,0.3-1.3,0.7-1.9,1.2
		c-0.6,0.4-1.2,0.9-1.3,1.8c1-0.2,1.5-1,2.3-1.4c0.8-0.4,1.6-0.7,2.3-1.1c0.5,0,0.8,0.1,1.2,0.1c0.4,0.1,0.8,0.2,1,0.2
		c0.3,0.4,0.5,0.6,0.7,0.9c2.2-0.6,4.2-1,6.4-1c0.6,0.5,1.1,1,1.6,1.4c-0.1,0.4-0.2,0.7-0.3,1.1c0.3,0.2,0.6,0.4,0.9,0.6l0,0
		c0.4-0.4,0.8-0.8,1.2-1.1c0-0.4,0-0.7,0.1-1c0,0,0.1,0,0.2,0c4.3,1.1,4.9,1.3,8.9,3.6c0.3,0.4,0.6,0.9,0.9,1.3c0,1.1-0.1,2.1-0.6,3
		c-0.5,0.9-1.1,1.9-1.5,2.9c-0.5,1.2-1.5,1.9-2.6,2.4c-1.6,0.7-3.1,1.6-4.9,1.9c-0.2,0-0.3,0.1-0.4,0.2c-0.3,0.5-0.5,1.1-0.7,1.4
		c-1.2,1.4-2.5,1.7-4,1c-0.2-0.5-0.1-0.8,0.1-1.2c0.2-0.2,0.3-0.5,0.1-0.8c-0.3-0.2-0.5-0.3-0.7-0.5c0.2-0.6,1.1-0.7,0.9-1.5
		c-0.9,0-1.8,0.1-2.9,0.1c0.6-0.5,1-0.8,1.3-1.1c0.2-0.2,0.3-0.5,0.1-0.8c-0.8,0.3-1.3,1-2.1,1.2c0.2-0.2,0.5-0.4,0.3-0.7
		c-0.8,0.1-1.6,0.2-2.4,0.3c-1.5,0.1-1.5,0.1-2.3-0.3c0.4-0.2,0.7-0.3,1-0.4c1-0.5,1.9-1.1,2.6-2c0.2-0.3,0.1-0.5-0.3-0.6
		c-2.1,1.8-4.6,2.9-6.4,3.4c-0.6,0-1.1-0.6-1.7-0.1c0.4,0.6,0.9,0.9,1.4,1.3c0.4,0.3,0.8,0.4,1.2,0.7c1.7,1.5,3.8,2,5.9,2.3
		c0.6,0.1,1.2,0.1,1.7-0.2c0.2-0.1,0.4-0.1,0.7,0.1c0,0.2,0,0.5,0,0.8c0,0.3,0.2,0.5,0.2,0.8c1.4,0.7,2.8,0.6,4.2,0.4
		c0.9-0.1,1.6-0.6,2.1-1.4c0.2-0.3,0.4-0.7,0.6-1c0.1-0.1,0.3-0.1,0.5-0.1c-0.3,1.2-0.3,1.2-2.2,3c-0.4,0.1-1,0.2-1.6,0.3
		c-0.6,0.1-1.3,0.1-1.9,0.2c-2.8,0.4-5.1-0.5-7.4-2c-0.7-0.9-1.7-1.2-2.6-1.6c-0.6-0.3-1.3-0.6-1.7-0.8c-0.8-0.9-1.4-1.7-2.1-2.4
		c-1.3-1.4-1.8-3.1-1.6-5c0.4-0.6,0.7-1.2,1.1-1.7c0.7-0.9,1.3-1.8,2-2.6c1-1,2.2-1.9,3.7-2.2c0.7-0.2,1.5-0.2,2.3-0.1
		c0.2,0,0.4-0.1,0.8-0.3c-0.3-0.3-0.4-0.6-0.7-0.7c-0.5-0.1-1.1-0.2-1.5-0.1c-1.1,0.2-2.2,0.6-3.2,1.3c-1.5,1.1-2.7,2.5-3.7,4.1
		c-0.2,0.3-0.4,0.7-0.6,1c-0.4,0.1-0.7,0.1-1,0.2c-0.2,0.4-0.4,0.7-0.6,1c-1.1,0.2-1.3,0.1-1.2-0.4C8,33.4,8.4,33.2,8.7,33
		c0.4-0.6,0.4-1.1,0.3-1.6c0-0.2-0.2-0.3-0.2-0.4c-0.8,0-0.7,0.7-1.1,1.1c-0.6,0.3-1.6,0.3-1.8,1.4c0.1,0.5,0.3,1,0.5,1.5
		c-1.7,0.9-3.6,1.2-5.1,2.6c-0.3,0.8-0.5,1.7-0.8,2.6c-0.4,1.3-0.6,2.6-0.4,3.9c0.4,2.9,1.6,5.4,3.8,7.4C4.3,52,4.7,52.5,5.1,53
		c0.8,1,1.5,1.9,2.5,2.7c1.2,1,2.2,2,3.1,3.3c0.6,0.8,1,1.7,1.3,2.6c0.3,1.2,0.2,2.4,0.2,3.6c0,1.4-0.4,2.7-1.3,3.7
		c-0.6,0.8-1.4,1.6-2.1,2.4c-1.1,1.3-2.5,1.8-4.2,1.3c-0.1,0-0.2,0-0.3,0c0,0-0.1,0.1-0.1,0.1c0,0.1,0,0.2,0,0.3
		c0,0.1,0.1,0.2,0.2,0.2c1.8,0.5,3.3,0.1,4.7-1c0.1-0.1,0.2-0.1,0.3-0.2c1.9-1.6,3.3-3.4,3.5-6c0-0.4,0.1-0.8,0.1-1.2
		c0-1.1,0.1-2.3-0.2-3.3c-0.5-1.8-1.4-3.6-2.8-4.9c-0.6-0.6-1.3-1.2-2-1.7c-0.6-0.5-1.2-1.1-1.7-1.7c-0.7-0.8-1.3-1.7-2.1-2.3
		c-1.3-1-2.1-2.4-2.6-3.8C1.2,45.7,1,44.3,1,42.8c0.1-1.5,0.6-2.8,1-4c0.9-1.2,2-1.7,3.4-1.8c-0.1,0.2-0.2,0.5-0.4,0.6
		c-0.7,0.7-1,1.5-1.3,2.4c-0.2,0.6-0.3,1.1-0.5,1.7c-0.3,1-0.2,2,0.1,2.9c0.7,2,1.7,3.8,3.3,5.2c0.8,0.6,1.4,1.4,2,2.2
		c0.7,1,1.5,1.9,2.5,2.7c1.4,1.1,2.5,2.5,3.6,4c1.8,2.5,2.6,5.3,2.7,8.3c0,0.9,0.1,1.7,0.1,2.6c0,1.6,0,3.3-0.7,4.9
		c-0.6,0.8-1.4,1.6-2.3,2.2c-0.5,0.3-1,0.5-1.6,0.5c-0.2,0-0.4,0-0.7,0c0.7,0.8,0.9,0.9,2.3,1.4c0.2,0.1,0.4,0,0.7,0
		c0-0.4,0-0.8,0-1.1c0.3-0.2,0.6-0.4,0.9-0.7c1.5-1.1,2.3-2.6,2.3-4.5c0-0.9,0-1.7,0.1-2.6c0.2-2.1-0.1-4.2-0.6-6.2
		c-0.4-1.6-0.9-3.1-1.8-4.5c-0.6-0.9-1.3-1.7-1.8-2.5c-0.8-1.2-1.7-2.2-2.8-3.1c-0.8-0.7-1.5-1.4-2.2-2.3c-0.6-0.9-1.4-1.7-2.2-2.4
		C6,48.1,5.4,47.2,5,46.2c-0.1-0.3-0.2-0.5-0.3-0.8c-0.7-1.3-0.6-2.6-0.2-3.9c0.2-0.6,0.4-1.2,0.7-1.8c0.4-0.7,0.8-1.4,1.7-1.7
		c0.6,0.5,0.9,1.2,1.3,1.9c-0.7,0.8-0.8,1.7-0.6,2.7c0.4,2.2,1,4.3,2.8,5.8c0.6,0.5,1.1,1.1,1.7,1.6c0.5,0.4,1.1,0.9,1.7,1.2
		c1.3,0.7,2.4,1.6,3.2,2.9c0.6,0.9,1.2,1.9,2,2.7c1,1,1.6,2.2,2.2,3.6c0.6,1.4,0.8,2.9,1,4.4c0,0.4,0,0.9,0.3,1.3
		c0.1-0.1,0.2-0.2,0.2-0.3c0-2.6-0.5-5.2-1.8-7.5c-1-1.8-2.2-3.4-3.4-5c-0.5-0.6-1-1.3-1.7-1.7c-1.8-1.1-3.3-2.6-4.9-4
		c-1.1-1-1.7-2.2-2-3.6c-0.2-0.7-0.2-1.4-0.1-2.1c0-0.3,0.2-0.7,0.6-0.7c0.5,0.6,1,1.2,1.6,1.9c0,0.1,0,0.3,0,0.4
		c0.1,2.6,1.1,4.6,3.6,5.7c0.5,0.2,1,0.4,1.5,0.5c1.1,0.3,1.9,0.9,2.4,1.9c0.6,1,1.2,2,1.9,3c0.1,0.1,0.2,0.2,0.4,0.3
		c0.1-0.2,0.2-0.4,0.2-0.5c-0.4-1-0.7-2-1.2-2.9c-0.8-1.3-1.8-2.4-3.4-2.9c-0.4-0.1-0.9-0.3-1.3-0.5c-1.7-0.8-2.5-2.1-2.9-4.1
		c0.6,0.1,1,0.2,1.2,0.2c0.7-0.5,0.8-0.9,0.6-1.5c-0.3-0.4-0.7-0.7-1.1-1.1c1.1,0.9,2.3,1.6,3.6,2.1c1.2,0.4,2.2,1,3.2,1.7
		c0.7,0.5,1.5,0.8,2.4,1.1c2.7,0.8,5.4,0.3,8.1-0.3c0.1,0,0.2-0.1,0.3-0.2c1.1-1.1,2.2-2.2,2.3-3.9c1.4-0.6,2.8-1.2,4.1-1.7
		c1.4,1.3,3.1,2,4.3,3.5c-0.1,0.6-0.2,1.3-0.2,1.8c-1.7,2.1-3.8,3.4-5.5,5.1c-0.1,0.2-0.1,0.3-0.2,0.4c-0.5,1-0.7,2.1,0,3.1
		c0.8,2.5,1.6,5,1.4,7.7c-0.1,0.9-0.1,1.7-0.1,2.6c0,0.3,0.2,0.6,0.2,0.9c0.8,0.4,1.6-0.3,2.4,0.1c0.4,1.2,1,2.4,1.3,3.7
		c0.3,1.3,0.8,2.6,1.1,3.9c0.7,2.7,1.6,5.3,2.1,8.1c0.2,1,0.3,2.1,0.5,3.1c0.3,2.2,0.9,4.3,1.2,6.5c0.2,2.1,0.6,4.3,0.7,6.4
		c0.1,1.9,0.4,3.7,0.5,5.6c0.1,1.8,0.2,3.6-0.6,5.3c-0.1,0.2-0.1,0.5-0.2,0.7c-0.6,1.6-1.3,3.2-1.9,4.9c-0.1,0.2-0.2,0.3-0.3,0.4
		c-1.5,2-3.1,3.9-5.3,5.2c-1.1,0.7-2.2,1.5-3.3,2.2c-0.4,0.3-0.7,0.6-0.6,1.1c1.3,0.5,1.9,0.5,2.9,0.1c0.6-0.3,1.2-0.6,1.9-0.9
		c0.2-0.1,0.5-0.1,0.7,0.2c-0.4,1.3-2,2-1.9,3.7c0.2,0,0.4,0.1,0.5,0.1c0.5-0.2,1-0.4,1.4-0.8c0.8-0.7,1.6-1.5,2.4-2.3
		c0.1-0.1,0.2,0,0.3-0.1c0.1,0.3,0.1,0.5,0.2,0.9c0.4-0.1,0.7-0.2,0.9-0.3c0.5-0.5,0.9-1.1,1.3-1.6c0.2-0.3,0.5-0.7,0.6-0.9
		c0.4-0.1,0.7-0.2,0.9-0.2c0.4-0.8,0.8-1.6,1.1-2.4c0.2-0.4,0.3-0.9,0.4-1.3c0-0.3-0.1-0.6-0.6-0.5c-0.2,0.9-0.9,1.6-1.6,2.3
		c0,0.1-0.2,0-0.3,0.1c-0.1-0.3-0.1-0.7-0.2-0.9c0.4-1,1.3-1.3,1.9-1.9c0.3-0.7,0.6-1.3,1.4-1.8c0.2,0.3,0.4,0.5,0.5,0.8
		c0.5,1.1,0.9,2.3,1.2,3.5c0.1,0.5,0.2,0.9,0.8,1.1c0.1-0.1,0.4-0.2,0.5-0.4c0.2-0.3,0.4-0.7,0.4-1.1c0.1-1.9,0.1-3.7-0.2-5.6
		c-0.3-1.7-0.8-3.3-1.5-4.8c0.8-1.4,0.9-3,1.1-4.6c0.1-1.4,0.3-2.9,0.4-4.3c0.1-1.3,0.2-2.6,0.1-3.8c-0.2-2-0.2-4-0.6-6.1
		c-0.3-1.9-0.7-3.8-1.2-5.6c-0.4-1.5-0.6-3.1-0.9-4.6c-0.3-1.9-0.5-3.8-0.7-5.7c-0.1-0.7-0.3-1.5-0.5-2.2c0-0.2-0.2-0.5-0.1-0.7
		c0.1-0.7-0.2-1.4-0.3-2.1c-0.3-1.2-0.7-2.5-1-3.7c0-0.2-0.1-0.3-0.1-0.5c0.1-0.4,0.2-0.9,0.3-1.2c-0.1-0.6-0.2-1-0.2-1.5
		c0-0.1,0.1-0.2,0.2-0.3c1.1,0.3,2.3,0.7,3.4,1.2c3.2,1.5,5.8,3.9,8.3,6.3c0.9,1.3,2.2,2.3,2.9,3.7c0.1,0.2,0.2,0.3,0.3,0.4
		c0.7,0.7,1.1,1.5,1.4,2.4c0.4,0.9,0.7,1.9,1.3,2.7c0.8,1.1,0.9,2.3,0.9,3.6c-0.1,2-0.2,3.9,0,5.9c0.2,1.9,0.3,3.7,0.4,5.6
		c0.1,1.7,0.1,3.5,0.2,5.2c0,1.9,0.1,3.7,0.1,5.6c0,1.1-0.1,2.2-0.2,3.3c-0.1,1.9-0.7,3.8-1.2,5.6c-0.3,1.1-0.6,2.3-1,3.3
		c-0.6,1.4-1.2,2.8-1.9,4.1c-1,1.9-1.9,3.9-3.2,5.6c-0.3,0.4-0.5,0.9-0.7,1.4c-0.1,0.3,0,0.7,0,0.9c0.5,0.6,1.1,0.4,1.5,0.2
		c1.1-0.5,2.2-0.7,3.3-1c0.3-0.1,0.7,0,1.1,0c0,0.5,0,1,0,1.4c-0.1,0.9-0.2,1.7-0.3,2.6c-0.1,0.6-0.1,1.3,0.5,1.9
		c0.4,0,0.9,0.1,1.3-0.1c1.7-0.7,3.6-0.8,5.4-1.3c0.4-0.1,0.9-0.2,1.4-0.2c0.5,0,1-0.4,1.5,0c0,1.7-0.1,3.4-0.5,5
		c-0.4,2.2-0.8,4.3-1.3,6.5c-0.3,1.4-0.8,2.8-1.6,4c-0.8,1.1-1.3,2.3-1.6,3.6c-0.3,1.1-0.6,2.3-0.9,3.4c-0.3,1-0.5,1.9-0.6,2.9
		c-0.2,2-0.5,4-0.7,6.1c-0.2,2.7-1,5.2-1.6,7.9c-0.6,2.8-1.4,5.6-2.4,8.4c-0.6,1.6-1.2,3.2-1.3,4.9c-0.1,1-0.1,2-0.1,3
		c-0.2,0.4-1,0.6-0.7,1.5c0.2,0.4,0.7,0.8,1.2,1c1.5,0.6,2.9,1.2,4.4,1.7c2.1,0.7,4.1,1.6,6.2,2.4c0.6,0.3,1.3,0.5,2,0.6
		c2,0.5,4,0.3,6-0.1c0.2-0.2,0.4-0.3,0.5-0.5c0.8-0.7,1.3-1.5,1.2-2.6c0-0.4,0.3-0.7,0.4-1.1c0.1-0.3,0.1-0.6-0.2-0.9
		c-0.5-0.1-1.1-0.2-1.7-0.3c-1.4-0.2-2.7-0.5-4-1.1c-1.7-0.7-3.4-1.4-5.1-2.2c-0.6-0.3-1.3-0.6-1.9-0.9c-0.8-0.4-1.3-1-1.6-1.9
		c0.2-0.9,0.4-1.8,0.6-2.8c0.7-2.5,1.4-5,2.2-7.5c0.8-2.7,1.7-5.4,2.6-8.2c0.6-1.9,1.3-3.9,1.9-5.8c0.4-1.3,0.8-2.7,1.3-4
		c1-2.3,1.8-4.8,2.6-7.2c0.8-2.4,1.7-4.8,2.6-7.2c0.7-1.7,1.3-3.4,1.8-5.1c0.7-2.6,1.6-5.2,2.5-7.8c0.2-0.5,0.4-1,0.7-1.4
		c0.1-0.2,0.4-0.4,0.8-0.4c0.2,1.2,0.4,2.4,0.6,3.6c0.4,2,0.7,4,0.8,6c0.1,2.7-0.3,5.3-1.2,7.9c-0.7,1.9-1.2,3.9-1.3,6
		c0,1.3-0.2,2.7-0.3,4c0,0.6,0,1.3,0.1,1.9c0.2,1.9,0.4,3.8,0.2,5.7c0,0.3,0,0.7,0,1c0.1,2.9-0.2,5.7-0.5,8.5
		c-0.3,2.4-0.5,4.9-0.7,7.3c-0.1,1.5-0.1,2.9,0.9,4.1c-0.1,0.6-0.1,1.2-0.2,1.8c1,0.5,1.9,0.8,2.9,0.9c2.9,0.3,5.9,0.5,8.9,0.6
		c0.5,0,1,0,1.6-0.1c2.2-0.2,4.4-0.7,6.5-1.2c1-0.2,1.9-0.6,2.7-1.2c0.4-0.3,0.8-0.6,0.8-1.1c0-0.4-0.2-0.8-0.3-1
		c-1-0.6-2.3-0.4-2.5-1.8c0.2-0.8,0.9-1.4,0.8-2.4c-0.2-0.3-0.4-0.7-0.7-1.1c-0.3,0-0.5-0.2-0.7-0.1c-0.3,0.1-0.7,0.3-0.9,0.5
		c-1.2,1-2.5,1.6-4.1,1.8c-0.8,0.1-1.6-0.1-2.4-0.2c-2.3-0.3-4.4-0.9-6.3-2.3c0-0.9,0-1.7,0-2.5c0-0.3,0.1-0.6,0.1-0.9
		c0.1-0.5,0.2-1,0.2-1.5c0-1.5,0.1-2.9,0.3-4.3c0.1-1,0.2-2,0.3-2.9c0.2-1.5,0.3-3,0.6-4.5c0.3-1.8,0.6-3.7,0.7-5.5
		c0.2-1.8,0.4-3.7,1-5.5c0.2-0.7,0.4-1.3,0.5-2c0.1-1.3,0.3-2.7,0.5-4c0.4-3.3,0.6-6.6,1-9.9c0.3-2.5,0.4-5,1-7.4
		c0.3-1.1,0.5-2.2,0.6-3.3c0.1-1.6,0.6-3.2,0.9-4.7c0.3-0.2,0.5-0.4,0.7-0.6c1.1-1.3,2.3-2.5,3.6-3.6c0.4-0.4,0.8-0.8,1.1-1.3
		c0.9-1.5,1.8-3.1,2.6-4.5C106.3,104.4,106.2,103.9,106.1,103.4z M54.4,21.2c0.6-0.1,0.6-0.1,1,0.6C54.9,22,54.9,22,54.4,21.2z
		 M21.9,41.9c-2.1-0.2-4-0.8-5.8-2.4c0.5,0,0.7,0,1,0c1.5,0.1,3,0.1,4.5-0.4c0.1,0,0.3,0,0.4,0c-0.5,0.7-1.4,0.9-2.1,1.3
		c0,0.4,0.3,0.4,0.4,0.3c1.1-0.1,2.3-0.2,3.6-0.4C23.3,41.1,22.6,41.5,21.9,41.9z M10,39.6c-0.8-0.1-1-0.8-1.3-1.3
		c-0.4-0.6-0.7-1.3-0.6-2.1c0.5,0.2,0.5,0.5,0.6,0.8C8.8,37.4,9,37.7,9.2,38c0.2,0.2,0.3,0.5,0.5,0.7C9.8,39,10.1,39.2,10,39.6z
		 M58.8,23.3c-0.1-0.1-0.2-0.2-0.2-0.3c0.1-1,0.3-1.9,0.4-2.9c0.1-0.9,0.5-1.7,1-2.4c0.6-0.8,1.3-1.6,2.3-2.2
		c0.4,0.2,0.7,0.4,1.1,0.5c0.4,0.1,0.8,0.2,1.3,0.4c-0.7,0.6-1.2,1-1.7,1.4c-0.3,0-0.5,0-0.8,0c-0.7,0.6-1.1,1.4-1.4,2.2
		c-0.4,1-1,1.9-1.5,2.9C59.1,23.1,58.9,23.2,58.8,23.3z M60,24c-0.1-0.3-0.2-0.4-0.1-0.6c0.2-0.4,0.4-0.9,0.6-1.3
		c0.4-0.7,0.7-1.4,1.1-2.2c0.1-0.2,0.3-0.5,0.5-0.7C61.6,20.9,61.5,22.7,60,24z M67.7,22.8c-0.4-0.5,0-0.9,0-1.3
		c0-0.4-0.2-0.8-0.3-1.3c-0.3,0.2-0.5,0.3-0.6,0.5c-0.2,0.5-0.4,1-0.5,1.5c-0.4,1.2-1,2.2-2.2,3.2c0.4-1.2,0.6-2.1,1.2-2.9
		c0.5-0.8,0.8-1.7,1.2-2.6c-0.1-0.2-0.2-0.5-0.3-0.8c-0.2,0-0.4,0-0.5,0.1c-0.5,0.4-0.9,0.9-1.2,1.4c-0.6,1.1-1.2,2.2-1.9,3.4
		c-0.2,0.3-0.4,0.6-0.6,0.8c-0.3,0.3-0.6,0.2-1,0c0.5-1.1,1-2.1,1.5-3.2c0.5-1.1,0.9-2.1,1.4-3.3c0.8-0.3,1.7-0.6,2.6-1
		c0.8,0.5,1.5,1,2.1,1.8c-0.1,0.6-0.1,1.3-0.2,1.9C68.2,21.5,68.2,22.1,67.7,22.8z M61.8,37c0.4,0,0.7-0.1,1,0
		c2.1,0.3,4.2,0.5,6.2,0.9c1.4,0.2,2.9,0.3,4.3,0.1c0.7-0.1,1.4-0.2,2.2-0.3c0-0.1,0.1-0.3,0.2-0.5c-0.6-1.8-1.2-3.5-1.9-5.3
		c-0.3-0.7-0.7-1.3-1.1-2c-0.8-1.4-1.6-2.7-2.4-4.1c-0.5-0.8-1-1.5-1.8-2c-0.1-0.7,0.2-1.2,0.4-1.7c0.1-0.5,0.2-1,0.3-1.5
		c0.1-0.6,0.1-1.1,0.2-1.8c0.9,0.6,1.6,1.4,2.2,2.1c1.1,1.2,2.1,2.5,2.8,3.9c0.3,0.5,0.5,1,0.9,1.5c1.8,2.3,2.8,4.9,3.9,7.6
		c0.6,1.4,1,2.8,1.4,4.3c0.2,0.8,0.3,1.6,0.3,2.3c-0.3,0.5-0.7,0.6-1.1,0.6c-1.4-0.2-2.8,0.3-4.1,0.6c-1.6,0.3-3.1,0.4-4.7,0.4
		c-0.5,0-1,0-1.6,0c-1.6,0.2-3.1,0-4.7-0.3c-0.9-0.2-1.7-0.5-2.3-1.1c-0.4-0.4-0.9-0.8-1.3-1.2C61.5,38.8,61.6,37.9,61.8,37z
		 M39.6,41.1c-0.7-0.4-1.4-0.8-2.2-1.2c0.3-0.3,0.6-0.5,0.9-0.8c0.3-0.3,0.6-0.7,0.9-1.1c0.3-0.3,0.5-0.6,0.8-0.9
		c1.7,0.8,3.1,1.9,5.1,2c0.4-0.2,0.9-0.4,1.5-0.6c0.4,0.9,0.4,0.9,0.3,2.2c-1,1.9-2.1,3.7-4.4,4.4c-0.3-0.9-0.6-1.8-0.8-2.5
		C41.1,41.7,40.3,41.5,39.6,41.1z M43.1,120c-0.7,0.8-1.4,1.7-2.6,2.4c0.6-1.9,1.8-3,3.2-3.9C43.8,119.1,43.5,119.6,43.1,120z
		 M47.9,79.5c0.1,1.2,0.3,2.4,0.7,3.6c0.6,2.2,1,4.4,1.1,6.7c0.1,2,0.2,3.9,0.3,5.9c0,0.2,0,0.3,0,0.5c-0.1,2.3-0.2,4.5-0.4,6.8
		c0,0.5-0.2,0.9-0.3,1.4c-0.3,1-0.5,2-0.8,3.1c1.1,2.1,1.8,4.3,1.9,6.6c0,0.6,0.1,1.1-0.1,1.8c-0.9-1-1-2.4-1.8-3.2
		c-0.4-0.2-0.7,0.1-0.9,0.4c-0.6,0.7-1.3,1.5-1.9,2.3c-0.2,0.2-0.3,0.4-0.5,0.5c-1.8,1.3-3.5,2.9-5.4,4c-0.4,0.3-1,0.4-1.5,0.5
		c0.2-0.2,0.4-0.4,0.7-0.6c2-1.4,3.5-3.2,4.9-5.1c1.4-2,2.3-4.1,3-6.4c0.5-1.6,0.7-3.3,0.7-5c0.1-3-0.3-6-0.7-9
		c-0.2-1.8-0.4-3.6-1-5.3c0-0.1,0-0.1,0-0.2c-0.2-1.9-0.7-3.8-1-5.7c-0.4-1.9-0.6-3.9-1-5.8c-0.2-1-0.6-1.9-0.8-2.8
		c-0.9-3-1.7-6-2.6-9.1c0-0.2,0-0.3,0-0.5c1.4-1.1,2.9-0.9,4.6-0.7c0.2,0.5,0.3,1,0.4,1.5c0.5,2.8,1,5.6,1.5,8.4
		c0.1,0.4,0.2,0.8,0.2,1.2C47.4,76.7,47.7,78.1,47.9,79.5z M61.9,69.9c-0.9-1-2-2-2.8-3.1c-0.3-0.5-0.8-0.8-1.2-1.2
		c-1.2-1-2.4-2-3.6-3c-1.6-1.3-3.5-2.3-5.4-3.2c-1-0.5-2-0.8-3.3-1.3c-0.3-0.3-0.5-1.1-1.4-1c-0.5,0.2-0.5,0.6-0.4,1
		c0.3,0.8,0.6,1.5,0.8,2.3c0.1,0.4,0.1,0.8,0.2,1.2c-0.5,0.4-1.1,0.5-1.7,0.6c-1.5,0-3,0.2-4.5,0.6c-0.4-0.5-0.4-1.1-0.4-1.7
		c-0.1-1.4-0.3-2.8-0.6-4.1c0-0.2-0.1-0.3-0.1-0.5c-0.1-1.5-0.4-2.9-1.1-4.2c0-0.1,0-0.2,0-0.4c0.2-0.2,0.4-0.5,0.6-0.7
		c1.4-0.9,2.6-2,3.7-3.2c0.2-0.2,0.3-0.3,0.5-0.4c0.1,0,0.2-0.1,0.2-0.1c1.9-0.1,3.2-1.2,4.4-2.5c0.5-0.6,1.1-1.2,1.6-1.8
		c1.6-2,1.8-4.1,0.7-6.3c-0.1-0.3-0.2-0.5-0.4-0.9c0.1-0.4,0.3-0.9,0.4-1.4c0.2-0.1,0.4-0.2,0.6-0.2c1.2-0.1,2.4-0.2,3.7-0.1
		c2.2,0.2,4.4,0.5,6.6,0.7c0.4,0,0.8,0.2,1.1,0.4c0.3,0.8,0.1,1.3,0.1,1.9c-0.1,0.6-0.1,1.1-0.1,1.8c-1.8,0.2-3.5-0.1-5.4-0.5
		c0.1,0.5,0.1,0.7,0.2,0.9c0.6,0.9,1.4,1.4,2.4,1.6c1,0.2,2.1,0.3,3.2,0.5c0.5,0.2,0.9,0.6,1.4,1.1c0.5,0.6,1,1.1,1.6,1.6
		c1.9,1.7,3.5,3.6,5.1,5.5c1.5,1.7,2.8,3.7,4.5,5.3c0.8,0.8,1.5,1.8,2.1,2.8c1.3,2,2.6,4,3.9,6c0.2,0.3,0.3,0.7,0.5,1.1
		c-0.1,0.8-0.5,1.3-1,1.9c-0.7,0.9-1.4,1.9-2,2.8c-0.9,1.2-2,2.3-3.2,3.2c-0.6,0.5-1.2,1-1.8,1.6c-0.7,0.7-1.4,1.2-2.3,1.5
		c-0.9,0.3-1.7,0.8-2.5,1.2c-0.2,0.1-0.4,0.2-0.7,0.3c-0.6-1-1.1-1.9-1.5-3C63.8,72.5,63,71.1,61.9,69.9z M59.3,125.5
		c0.9-1.6,1.7-3.2,2.5-4.7c0.4-0.8,0.8-1.7,1.2-2.5c0.3-0.7,0.7-1.4,1-2c0.3-0.6,0.6-1.3,0.8-1.9c0.2-0.5,0.3-1,0.5-1.5
		c0.6-1,0.7-2.2,1.1-3.3c0.2-0.6,0.3-1.2,0.5-1.9c0.1-0.5,0.2-0.9,0.2-1.4c0.2-1.6,0.2-3.2,0-4.8c-0.1-0.7,0-1.5,0-2.3
		c0-1.3,0.1-2.7-0.2-4c-0.2-1-0.1-2.1-0.1-3.1c0-1.1-0.2-2.2-0.4-3.3c-0.4-1.8-0.7-3.5-0.5-5.4c0.1-1.3,0-2.7,0.3-4
		c0.1-0.2,0.1-0.4,0.2-0.7c0.5-0.5,1.1-0.9,1.8-0.9c1.5,0,2.8-0.8,3.9-1.7c0.7-0.5,1.4-1,2.1-1.5c0.7-0.5,1.3-1,1.9-1.5
		c1.6-1.4,2.4-3.2,3.3-5.1c0.2-0.4,0.4-0.7,0.5-0.9c0.5-0.2,0.9-0.1,1.3,0.1c0.5,0.4,1.1,0.7,1.5,1.2c1.4,1.4,2.9,2.6,4.4,3.9
		c1.3,1.1,2.4,2.5,3.5,3.9c1.2,1.7,2.4,3.4,3.6,5.1c1.7,2.3,3.1,4.8,4.5,7.3c0.7,1.3,1.4,2.6,1.9,3.9c0.6,1.5,0.9,3,0.9,4.7
		c-0.8,1.6-1.7,3.2-3,4.6c-1.6,1.8-3.4,3.5-5.1,5.3c-0.5,0.5-1.1,1-1.7,1.5c-2.6,2.1-5.2,4.1-8,6c-0.3,0.2-0.7,0.5-1,0.7
		c-2.1,1.2-4.1,2.4-6.2,3.5c-2.3,1.2-4.6,2.4-7.1,3.3c-0.4,0.2-0.9,0.4-1.3,0.6c-1.3,0.7-2.6,1.3-4.2,0.9
		C62.5,124.3,61.2,125.6,59.3,125.5z M76.6,191.1c-2.1,0.3-2.8,0.2-3.8-0.8C74.1,190.5,75.3,190.1,76.6,191.1z M83.1,126.6
		c-0.7,1.6-0.9,3.2-1.3,4.9c-0.3,1.2-0.8,2.3-1.1,3.5c-0.8,2.3-1.5,4.5-2.3,6.8c-0.2,0.6-0.4,1.2-0.6,1.8c-0.2,0.4-0.4,0.9-0.4,1.3
		c-0.2,2.2-1.3,4.1-2,6.1c-1.4,3.7-2.8,7.4-4,11.1c-0.8,2.5-1.5,5.1-2.5,7.6c-1.1,3-1.8,6-2.7,9c-0.4,1.4-0.5,2.9-0.5,4.3
		c0,0.5,0.2,0.9,0.6,1.2c0.8,0.7,1.6,1.3,2.6,1.7c1.6,0.6,3.1,1.3,4.6,2c0.4,0.2,0.7,0.4,0.8,0.9c-0.4,0.2-1,0-1.5,0.2
		c-0.6,0.2-1.1,0.2-1.7,0.4c-0.5,0.1-1,0.4-1.5,0.6c-0.8-0.3-1.6-0.7-2.4-1c-0.8-0.3-1.5-0.6-2.2-1c-0.4-0.2-0.8-0.4-1.3-0.5
		c-0.8-0.2-1.4-0.5-2-1.2c0.2-1.9,0.3-3.9,1-5.7c0.7-1.7,1.1-3.6,1.6-5.3c0.1-0.4,0.2-0.8,0.4-1.2c1.1-3.1,1.9-6.3,2.2-9.7
		c0.3-2.4,0.7-4.7,1-7.1c0.1-0.7,0.2-1.5,0.3-2.2c0.4-2.3,1-4.5,2.2-6.6c0.7-1.2,1.3-2.5,2-3.7c0.4-0.7,0.6-1.4,0.6-2.1
		c0-0.7,0.2-1.5,0.4-2.2c0.3-1.5,0.6-3,0.8-4.5c0.2-2.1,0.5-4.2,0.7-6.4c2.9-1.1,5.6-2.5,8.4-4C83.2,126.1,83.2,126.4,83.1,126.6z
		 M100.9,177.8c1.1-0.7,2.2-1.3,3.3-2c0.1,0.2,0.3,0.4,0.2,0.5c-0.1,0.3-0.3,0.7-0.5,0.8c-1.2,0.7-2.5,1.4-3.8,2.1
		c-0.1,0.1-0.3,0.1-0.6,0.1C99.9,178.7,100.3,178.1,100.9,177.8z M95.4,121.5c-0.1,1.2-0.3,2.3-0.5,3.5c-0.3,2.2-0.6,4.4-0.8,6.6
		c-0.2,1.8-0.3,3.6-0.4,5.4c-0.1,1.8-0.2,3.6-0.4,5.4c-0.1,1.3-0.4,2.5-0.7,3.8c-0.5,2.5-0.9,5-1.2,7.6c-0.2,1.6-0.4,3.1-0.6,4.7
		c-0.3,2.2-0.6,4.5-0.8,6.7c-0.2,2-0.2,4-0.5,5.9c-0.3,1.7,0.1,3.3,0.6,5c1.4,0.5,2.7,1,4.1,1.4c1.3,0.4,2.7,0.6,4.1,0.8
		c-0.4,0.9-1,1.4-1.5,2.1c-0.5,0.2-1,0.5-1.6,0.6c-0.5,0.1-1,0.4-1.5,0.3c-1.5-0.2-2.9,0-4.4,0c-0.7,0-1.4,0-2,0
		c-1.3-1.1-1.6-2.2-1.6-3.6c0-1.5,0.1-3,0.2-4.5c0.3-3.3,0.6-6.6,0.8-9.9c0.1-1.7,0.1-3.4,0.2-5c0.1-2.1-0.1-4.2,0-6.3
		c0-1.6,0.1-3.3,0.2-4.9c0.1-0.7,0.2-1.5,0.5-2.2c0.5-1.5,1-3,1.4-4.5c0.2-0.7,0.3-1.5,0.4-2.2c0.3-2.7,0.3-5.4-0.3-8.1
		c-0.5-2.4-0.7-4.8-1-7.3c2.3-1.7,4.6-3.5,7.1-5C95.7,118.9,95.6,120.2,95.4,121.5z M104.2,105.3c-0.5,1.1-1.2,2.1-2.1,2.8
		c-0.8,0.7-1.6,1.5-2.5,2.2c-0.2,0.2-0.4,0.4-0.6,0.6c-1.6,2-3.6,3.6-5.6,5.2c-2.2,1.8-4.5,3.5-6.9,5c-2.1,1.3-4.2,2.5-6.5,3.3
		c-1.7,0.7-3.5,1.4-5.1,2.2c-2.4,1.2-4.9,1.8-7.4,2.5c-0.6,0.2-1.1,0.3-1.7,0.4c-0.5,0.1-1,0.2-1.5,0.3c-0.2-1.1-0.1-2.3,0.5-4
		c0.5-0.5,1.2-0.6,1.9-0.8c0.6-0.2,1.2-0.3,1.9-0.4c0.6-0.1,1.2-0.4,1.8-0.7c0.4-0.3,0.8-0.5,1.2-0.7c0.8-0.3,1.6-0.6,2.4-1
		c0.4,0.7-0.3,1.5,0.3,2.3c1-0.8,0.7-2,1.1-3.1c0.8-0.5,1.6-1,2.5-1.5c0.8-0.5,1.6-1.1,2.5-1.4c0.7,0.5,0.2,1.3,0.6,1.8
		c0.6-0.4,0.6-0.4,0.7-2.5c1-0.7,2-1.4,3-2.1c1-0.7,2-1.3,3.1-2c0.3,0.4,0.5,0.7,0.7,1.1c0.8-0.5,0.6-1.4,1.1-2.2
		c0.4-0.5,1.1-1.2,1.9-1.6c0.5,0.1,0.9,0.1,1.3,0.2c0.5-0.4,0.3-0.8,0.2-1.2c0-0.1,0.1-0.2,0.1-0.3c1.9-1.9,3.6-4.1,5.8-5.8
		c0.9-0.7,1.5-1.6,2.1-2.5c0.4-0.6,0.8-1.2,1.3-2c0.4,1,0.8,1.9,1.2,2.7C104,103.3,104.2,104.3,104.2,105.3z"/>
	<path fill="#58473A" d="M56.3,8.1c0.4,0.3,0.8,0.7,1.2,1c0,0,0.1,0,0.1,0.1l0.5,0.2L57.9,9c-0.2-0.4-1.1-1.1-1.4-1.2l-0.2,0l0,0.2
		C56.3,8,56.3,8.1,56.3,8.1z"/>
	<path fill="#58473A" d="M55,7.8c0,0,0.1,0,0.1,0c0.1,0,0.2-0.1,0.3-0.2c0.2-0.2,0.2-0.5,0-0.6c-0.1-0.1-0.3-0.1-0.4,0
		c0,0-0.1,0-0.1,0c-0.1,0-0.2,0.2-0.1,0.4C54.8,7.8,54.9,7.8,55,7.8z"/>
	<path fill="#58473A" d="M53.3,7.6c-0.1,0.1-0.2,0.4-0.1,0.5c0.1,0.1,0.2,0.2,0.3,0.1c0.1,0,0.1,0,0.2-0.1c0.2-0.1,0.2-0.4,0.1-0.6
		C53.7,7.5,53.5,7.5,53.3,7.6z"/>
	<path fill="#58473A" d="M53.2,10.9c-0.1-0.2-0.4-0.2-0.5-0.1c-0.2,0.1-0.2,0.4-0.1,0.6c0.1,0.1,0.2,0.1,0.3,0.1
		c0.1,0,0.1,0,0.2-0.1C53.3,11.3,53.4,11.1,53.2,10.9z"/>
	<path fill="#58473A" d="M54.8,10.3c-0.1,0.1-0.1,0.4,0,0.5c0.1,0.1,0.2,0.1,0.3,0.1c0.1,0,0.1,0,0.2-0.1c0.1-0.1,0.1-0.1,0.1-0.3
		c0-0.1,0-0.2-0.1-0.3C55.2,10.2,54.9,10.2,54.8,10.3z"/>
	<path fill="#58473A" d="M52,8.2L52,8.2c0.1,0,0.3-0.1,0.3-0.2c0-0.1,0-0.2,0-0.2c0,0,0-0.1,0-0.1l0-0.1l-0.1,0c0,0-0.1,0-0.1,0
		c-0.1,0-0.2-0.1-0.2-0.1l0,0c-0.2,0.1-0.2,0.2-0.1,0.4C51.7,8,51.8,8.2,52,8.2z"/>
	<path fill="#58473A" d="M52.5,10.2c0.1,0.1,0.2,0.2,0.3,0.2l0,0c0.1,0,0.2-0.1,0.3-0.2c0-0.1,0-0.2,0.1-0.3c0,0,0-0.1,0-0.1l0-0.1
		l-0.1,0c0,0,0,0-0.1,0c0,0-0.1,0-0.1,0l-0.1,0.1c-0.1,0.1-0.2,0.1-0.3,0.2C52.4,10,52.4,10.1,52.5,10.2z"/>
	<path fill="#58473A" d="M50.4,11.9L50.4,11.9c0.1,0,0.3-0.1,0.3-0.3c0-0.1,0-0.2,0-0.3c0,0,0-0.1,0-0.1l-0.1-0.1l-0.1,0l0,0l-0.2,0
		c-0.1,0-0.2,0.1-0.3,0.2c0,0.1,0,0.2,0.1,0.4C50.2,11.9,50.3,11.9,50.4,11.9z"/>
	<path fill="#58473A" d="M52.8,13.2l-0.2,0.2c0,0,0,0,0-0.1l-0.1-0.1l-0.1,0.1c-0.1,0-0.2,0.1-0.2,0.2c0,0.1,0,0.2,0,0.3
		c0.1,0.1,0.2,0.2,0.4,0.2c0,0,0.1,0,0.1,0c0.2-0.1,0.2-0.3,0.2-0.5L52.8,13.2z"/>
	<path fill="#58473A" d="M53.2,7.5c0.1,0,0.1,0,0.2-0.1c0.2-0.1,0.2-0.3,0.1-0.4c-0.1-0.1-0.3-0.2-0.4-0.2c-0.1,0-0.1,0-0.2,0.1
		c-0.1,0.1-0.1,0.3,0,0.5C53,7.5,53.1,7.6,53.2,7.5z"/>
	<path fill="#58473A" d="M53.3,11.9l0.1,0.2c0,0.1,0.1,0.3,0.4,0.3c0,0,0,0,0.1,0c0.2,0,0.3-0.2,0.3-0.4c-0.1-0.2-0.2-0.3-0.4-0.2
		l-0.2,0l0.1,0.2L53.3,11.9z"/>
	<path fill="#58473A" d="M54.6,9.8c0.1,0,0.1,0,0.2,0c0.1,0,0.2-0.1,0.2-0.2C55,9.5,55,9.4,55,9.3c0-0.1,0-0.1-0.1-0.2
		C54.9,9,54.8,9,54.7,9l0,0c-0.1,0-0.1,0.1-0.1,0.1l-0.1,0.1l0.1,0.1c0,0,0,0,0,0c-0.1,0-0.1,0.1-0.1,0.2
		C54.4,9.7,54.5,9.7,54.6,9.8z"/>
	<path fill="#58473A" d="M50.6,10.3c0,0,0.1,0,0.1,0c0.3-0.1,0.2-0.4,0.2-0.4c0-0.1-0.1-0.1-0.1-0.1l-0.1-0.1l-0.1,0.1l-0.1-0.2
		l-0.1,0.1c-0.1,0.2-0.1,0.3,0,0.5C50.3,10.3,50.4,10.3,50.6,10.3z"/>
	<path fill="#58473A" d="M56.7,9.3C56.7,9.3,56.7,9.3,56.7,9.3l-0.3-0.1l0,0.3c0,0-0.1,0-0.1,0l-0.2,0.1l0.1,0.2
		c0.1,0.2,0.2,0.2,0.4,0.2c0.1,0,0.1,0,0.2-0.1C56.9,9.9,57,9.8,57,9.7c0-0.1,0-0.2-0.1-0.3C56.9,9.4,56.8,9.4,56.7,9.3z"/>
	<path fill="#58473A" d="M50,9.5c0,0,0-0.1,0-0.1l-0.1-0.2l-0.2,0.1c0,0-0.1,0-0.1,0.1c-0.1,0.1-0.2,0.3-0.1,0.4
		c0.1,0.1,0.2,0.2,0.3,0.1c0.1,0,0.1,0,0.2-0.1C50,9.7,50,9.6,50,9.5z"/>
	<path fill="#58473A" d="M56.4,9L56.4,9c0.1,0,0.2-0.1,0.2-0.2c0-0.1,0-0.2-0.1-0.3c-0.1-0.1-0.1-0.1-0.2-0.1l-0.1,0l-0.1,0
		C56.1,8.5,56,8.6,56,8.7c0,0.1,0,0.2,0.1,0.2C56.2,9,56.3,9,56.4,9z"/>
	<path fill="#58473A" d="M51.1,13.4l-0.5,0.3l0,0.1c0,0.1,0.1,0.3,0.3,0.3c0,0,0.1,0,0.1,0c0.1-0.1,0.2-0.3,0.1-0.5L51.1,13.4z"/>
	<path fill="#58473A" d="M49.5,10.3L49.5,10.3c-0.1,0-0.2-0.1-0.3-0.1c0,0,0,0,0,0c-0.1,0-0.1,0.1-0.1,0.1c0,0.1,0,0.3,0,0.4
		c0.1,0.1,0.2,0.2,0.3,0.2c0,0,0.1,0,0.1-0.1C49.7,10.7,49.6,10.4,49.5,10.3L49.5,10.3z"/>
	<path fill="#58473A" d="M52.1,12.4L52.1,12.4c0.2,0,0.3-0.1,0.3-0.3c0-0.1,0-0.2-0.1-0.2c-0.1-0.1-0.2-0.1-0.3-0.1l-0.1,0l0,0.1
		c0,0.1,0,0.3,0,0.4C52,12.3,52.1,12.4,52.1,12.4z"/>
	<path fill="#58473A" d="M51.8,9c0.1,0,0.1,0,0.2-0.1c0.1-0.1,0.1-0.3,0-0.4c-0.1-0.1-0.1-0.1-0.2-0.1c0,0-0.1,0-0.1,0l-0.2-0.1
		l0,0.2c0,0,0,0.1,0,0.1c0,0.1,0,0.1,0,0.2C51.6,9,51.7,9,51.8,9z"/>
	<path fill="#58473A" d="M50.8,12.9c0.1,0,0.1-0.1,0.1-0.2c0,0,0-0.1,0-0.1l0.1-0.2l-0.4,0c-0.1,0-0.2,0-0.2,0l-0.1,0l0,0.1
		c0,0-0.1,0.1,0,0.2c0.1,0.1,0.2,0.2,0.3,0.1C50.7,12.9,50.7,12.9,50.8,12.9z"/>
	<path fill="#58473A" d="M51.7,10.3c0,0,0.1,0,0.2-0.2l0-0.1l-0.4-0.5l-0.1,0.1c-0.1,0.2-0.1,0.4,0.1,0.5
		C51.6,10.3,51.7,10.3,51.7,10.3z"/>
	<g>
		<path fill="#58473A" d="M66,24c0.1,0,0.1,0,0.2,0l0.2,0c0.1,0,0.2-0.1,0.2-0.2c0-0.1,0-0.1,0-0.2L66,24z"/>
		<path fill="#58473A" d="M58.6,20.1c-0.2-0.1-0.4-0.2-0.6-0.3c-0.2-0.1-0.5-0.3-0.7-0.4c-0.2-0.1-0.5-0.3-0.7-0.4L56.4,19
			c-0.3-0.2-0.6-0.3-1-0.3l-0.5,0l-0.2-0.1c0.4-0.2,0.8-0.4,1.1-0.8c0.3-0.3,0.5-0.5,0.8-0.8c0.3-0.3,0.5-0.5,0.8-0.8
			c0.2-0.2,0.4-0.4,0.5-0.6l0.1-0.1c0.2-0.2,0.3-0.4,0.5-0.7l0.2-0.3c0,0.1,0.1,0.2,0.1,0.3l0.1,0.4c0.1,0.7,0.2,1.4,0.3,2.1l0,0.1
			c0.1,0.4,0.1,0.8,0.1,1.1c0.1-0.2,0.2-0.4,0.4-0.7c-0.1-0.6-0.2-1.3-0.3-1.9c-0.1-0.4-0.1-0.7-0.2-1.1c0-0.1,0-0.2-0.1-0.3
			c0.1,0.1,0.1,0.1,0.2,0.2c0.5,0.4,1.1,0.8,1.6,1.2c0,0,0,0,0.1,0c0.3-0.3,0.7-0.6,1-0.8c-0.2-0.4-0.4-0.7-0.6-1.1
			c-0.3-0.5-0.5-1-0.8-1.5c-0.1-0.3-0.3-0.6-0.4-0.8c0-0.1-0.1-0.1,0-0.2c0-0.3,0-0.7-0.5-0.9c0,0-0.1-0.1-0.1-0.1
			c-0.2-0.4-0.4-0.8-0.6-1.2c-0.1-0.3-0.3-0.6-0.6-1C58.2,8.3,58.1,8.1,58,8c-0.1-0.1-0.2-0.2-0.3-0.4c-0.2-0.3-0.5-0.5-0.9-0.7
			c-0.4-0.3-0.9-0.4-1.4-0.6c-0.1,0-0.2-0.1-0.3-0.1c-0.1-3.6-0.5-5.6-1-6.1C53.9,0,53.8,0,53.7,0c-0.2,0-0.5,0.1,0.2,6.1
			c0,0,0,0-0.1,0l0,0c-0.3,0-0.6,0.1-0.9,0.2c-0.8,0.2-1.5,0.6-2.2,1.1l-0.3,0.2c-0.2,0.2-0.4,0.3-0.6,0.5c-0.2,0.2-0.5,0.4-0.6,0.7
			c-0.6,0.8-1,1.7-1.2,2.8c-0.1,0.3-0.1,0.6-0.1,0.9l0,0.2c0.1,0.4,0.2,0.9,0.3,1.3c0.2,0.7,0.4,1.3,0.8,1.8c0,0.1,0.1,0.2,0.1,0.2
			c0.1,0.2,0.3,0.5,0.5,0.7c0.1,0.1,0.1,0.1,0.2,0.2c0.3,0.3,0.6,0.6,1,0.8c0,0,0,0,0.1,0c0,0,0.1,0.1,0.1,0.1l0.2,0.1
			c0.2,0.1,0.5,0.3,0.7,0.4c0.2,0.1,0.4,0.2,0.5,0.3c0.1,0.1,0.1,0.1,0.2,0.1l0.1,0c0.2,0,0.3,0.1,0.5,0.1c0.3,0,0.6,0.1,0.9,0.2
			c0.1,0,0.2,0.1,0.3,0.1c0.1,0.1,0.3,0.2,0.4,0.2c0.2,0.1,0.5,0.2,0.7,0.3l1,0.4c0.6,0.2,1.1,0.5,1.7,0.7
			C58.3,20.7,58.4,20.4,58.6,20.1z M59.1,14.2L59.1,14.2C59.1,14.2,59.1,14.2,59.1,14.2c-0.1,0-0.1-0.1-0.1-0.1
			C59.1,14.1,59.2,14.2,59.1,14.2L59.1,14.2z M51.8,17.3c0.2,0.2,0.4,0.2,0.5,0.3c0.1,0,0.2,0,0.2,0.1c0.1,0.1,0.3,0.1,0.4,0.2
			c-0.2,0-0.5,0-0.7-0.2l-0.1,0c-0.1,0-0.1-0.1-0.2-0.1c-0.1,0-0.2-0.1-0.3-0.1c0,0-0.1,0-0.1,0c-0.1-0.1-0.3-0.2-0.4-0.2
			c0,0-0.1,0-0.1-0.1L51,16.7c-0.1-0.2-0.3-0.4-0.4-0.6L50.4,16l-0.1,0.1l0-0.1c0-0.1,0-0.2-0.1-0.3c-0.2-0.2-0.3-0.4-0.4-0.6
			l-0.1-0.2c0,0,0-0.1,0-0.1c0.1-0.1,0.2-0.2,0.1-0.4c0-0.1-0.1-0.2-0.4-0.2c0,0,0,0,0,0l0,0c-0.1-0.1-0.1-0.2-0.1-0.3
			c0-0.1,0-0.3-0.1-0.4c-0.1-0.1-0.1-0.3-0.1-0.5c0-0.1,0-0.1,0-0.2c0-0.1,0-0.1,0-0.2c0.1-0.1,0.1-0.2,0.1-0.3
			c0-0.1-0.1-0.2-0.2-0.2c0,0,0-0.1,0-0.1c0-0.1,0-0.3,0-0.4c0-0.1,0.1-0.2,0.1-0.4c0-0.1,0-0.1,0-0.2l0-0.2l-0.2,0
			c-0.3,0-0.4,0.2-0.4,0.3c0,0.2,0,0.4-0.1,0.5c0,0.1,0,0.1,0,0.2c0,0.1,0,0.3,0,0.4c0,0.1,0,0.2,0,0.2l0,0.2c0,0.1,0,0.2,0.1,0.3
			c0,0.1,0,0.1,0,0.2c0,0.3,0.1,0.6,0.3,0.9c0.2,0.6,0.6,1.2,0.9,1.7l0,0.1c0,0,0.1,0.1,0.1,0.1l0.2,0.1l-0.1,0.1l0.4,0.4
			c-0.1-0.1-0.3-0.2-0.4-0.3c-0.3-0.4-0.6-0.8-0.7-1.1l-0.1-0.3c-0.1-0.2-0.2-0.5-0.3-0.7c-0.2-0.5-0.3-1.1-0.4-1.6
			c-0.1-0.4-0.1-0.8,0.1-1.3c0.1-0.2,0.1-0.4,0.2-0.6c0.1-0.3,0.2-0.6,0.3-0.9C49.4,9.4,49.7,9,50,8.6c0.1-0.1,0.2-0.1,0.2-0.2
			c0,0.1,0.1,0.2,0.3,0.2c-0.1,0.1-0.1,0.3,0,0.4c0.1,0.1,0.2,0.2,0.3,0.2c0.1,0,0.1,0,0.2-0.1c0.2-0.1,0.2-0.3,0.1-0.5
			c-0.1-0.1-0.2-0.2-0.3-0.2c0,0,0,0,0,0c0-0.1,0-0.1,0-0.2c0-0.1-0.1-0.1-0.2-0.2c0.3-0.3,0.7-0.5,1-0.7c0.3-0.2,0.5-0.3,0.8-0.4
			L52.6,7c0.4-0.2,0.8-0.2,1.2-0.3c0.1,0,0.3,0,0.4,0l0.1,0c0.2,0,0.5,0,0.7,0.1c0.5,0.2,1,0.5,1.6,0.8c0.1,0.1,0.2,0.1,0.2,0.2
			c0.5,0.5,1.1,1.1,1.6,1.9c0.3,0.5,0.4,1,0.5,1.5c0,0.1,0,0.1,0,0.2c0,0.1-0.1,0.3-0.1,0.4c-0.4,0.8-0.9,1.5-1.4,2.2
			c-0.1,0.2-0.2,0.3-0.3,0.5c-0.1,0.1-0.1,0.2-0.2,0.3c-0.3,0.5-0.7,0.9-1.1,1.2l-0.1,0.1c-0.3,0.2-0.5,0.4-0.7,0.6
			c-0.1,0.1-0.2,0.2-0.4,0.2c-0.1,0-0.2,0-0.3,0c-0.1,0-0.3,0-0.4,0.1L53.7,17l0.5,0.1c0,0,0,0,0,0c-0.1,0-0.2,0.1-0.2,0.1
			c-0.1,0.1-0.2,0.1-0.4,0.1c-0.3-0.1-0.6-0.1-0.9-0.2c-0.1,0-0.3-0.1-0.4-0.1l-0.9-0.2L51.8,17.3z M53.5,18.3
			C53.5,18.3,53.5,18.3,53.5,18.3c0.4-0.1,0.7-0.4,1-0.6c0.1-0.1,0.2-0.2,0.3-0.2l0.1-0.1c0,0,0.1-0.1,0.1-0.1
			c0.1-0.1,0.2-0.1,0.3-0.2c0.6-0.5,1.1-1,1.5-1.4c0.2-0.3,0.5-0.5,0.7-0.8l0.4-0.5c0.5-0.6,0.9-1.2,1.2-2c0.1-0.2,0.2-0.5,0.3-0.7
			c0,0,0,0.1,0,0.1L59.4,12c-0.1,0.2-0.1,0.4-0.2,0.6c-0.1,0.2-0.2,0.4-0.4,0.7l-0.1,0.1c-0.5,0.9-1.1,1.6-1.7,2.2
			c-0.1,0.1-0.3,0.3-0.4,0.4c-0.1,0.1-0.2,0.3-0.4,0.4c-0.4,0.5-1,0.9-1.7,1.3C54.3,17.9,53.9,18.2,53.5,18.3z"/>
	</g>
</g>
</svg>
