<?xml version="1.0" encoding="utf-8"?>
<!-- Generator: Adobe Illustrator 17.1.0, SVG Export Plug-In . SVG Version: 6.00 Build 0)  -->
<!DOCTYPE svg PUBLIC "-//W3C//DTD SVG 1.1//EN" "http://www.w3.org/Graphics/SVG/1.1/DTD/svg11.dtd">
<svg version="1.1" id="Layer_1" xmlns="http://www.w3.org/2000/svg" xmlns:xlink="http://www.w3.org/1999/xlink" x="0px" y="0px"
	 viewBox="0 0 112.1 114.1" enable-background="new 0 0 112.1 114.1" xml:space="preserve">
<g>
	<path fill="#7497C4" d="M46.8,52.5c-0.1-1.1-0.9-2-1.8-2.6c-0.9-0.6-2-0.9-3-1.4C39,47,36.9,44,36.4,40.8c-0.1-0.6-0.1-1.4,0.4-1.8
		c-3.9,0.4-7.5,2.7-9.4,6.1c-0.7,1.2-1.2,2.5-1.6,3.8c-0.9,2.8-1.8,5.6-2.3,8.5c0,0.2-0.1,0.4,0,0.6c0.1,0.3,0.4,0.4,0.6,0.5
		c4.3,2,9.5,0.7,13.9,2.6c0.5,0.2,1,0.5,1.6,0.4c0.7-0.1,1.3-0.7,1.7-1.2c1.3-1.5,2.6-3,3.9-4.5C46,54.8,46.9,53.7,46.8,52.5"/>
	<path fill="#7497C4" d="M66.9,62c1.7,0.6,3.6-0.2,5.4-0.5c2.7-0.5,5.4,0.1,8.2,0.2c1.2,0,2.5-0.1,3.2-1.1c0.5-0.6,0.5-1.5,0.6-2.3
		c0.1-3.8,0.3-7.6-0.8-11.3c-1-3.6-3.5-7.1-7.1-8.3c-0.7-0.3-1.6-0.4-2.3-0.2c-1.1,0.4-1.8,1.5-2.2,2.6c-0.4,1.1-0.6,2.3-1.3,3.3
		c-0.6,0.8-1.5,1.4-2.3,2c-2,1.4-3.9,2.8-5.7,4.4c-1,0.9-2.1,2-1.9,3.3c0.1,0.7,0.5,1.3,0.9,1.8c0.8,1.1,1.6,2.1,2.3,3.2
		C64.7,60.3,65.6,61.5,66.9,62"/>
	<path fill="#7497C4" d="M53.2,54.5c-0.9,1.8-1.7,3.6-2.6,5.4c-0.8,1.6-1.5,3.2-2.3,4.8c-3.7,7.6-7.6,15-11.7,22.4
		c8.8,2.9,18.2,3.9,27.4,2.9c0.4,0,0.8-0.1,1.1-0.3c0.6-0.4,0.6-1.3,0.5-2c-0.9-9.5-6.9-17.7-8.8-27C56.2,58.2,55.6,55.1,53.2,54.5"
		/>
	<path fill="#58473A" d="M93.9,114.1h-0.6c-0.3-0.3-0.7-0.6-1.1-1c-0.5-0.2-1.1-0.3-1.6-0.5c-0.6-0.2-1.2-0.3-1.8-0.6
		c-0.5-0.2-1-0.4-1.6-0.5c-0.5-0.1-1-0.6-1.6-0.4c-0.6-0.3-1.1-0.5-1.6-0.7c-0.1,0-0.2,0-0.3,0c-0.5,0-1,0-1.4-0.3
		c-0.7-0.1-1.4-0.5-2.2-0.5c-0.2,0-0.3-0.1-0.5-0.2c-0.7-0.1-1.5,0-2.2-0.3c-0.2-0.1-0.5-0.1-0.7-0.1c-1,0-2,0-3-0.1
		c-0.3,0-0.6-0.2-1-0.4c-0.6,0-1.3,0-2.2-0.1c-0.2-0.1-0.4-0.1-0.6-0.2h-1.2c-0.2,0.1-0.4,0.2-0.6,0.2c-0.2-0.1-0.4-0.1-0.7-0.2
		c-0.1,0-0.3,0-0.5,0.1c-0.4,0.2-0.8,0.2-1.3-0.1c-0.5,0.2-0.9,0.2-1.5,0.2c-0.2-0.1-0.3-0.1-0.5-0.2c-0.1,0-0.3,0-0.4,0
		c-0.4,0.2-0.8,0.3-1.3,0.2c-0.4,0-0.7,0.2-1.1,0.3c-0.6,0-1.1,0.1-1.6,0.1c-0.3,0.2-0.6,0.3-0.9,0.3c-1.2,0.2-2.6,0.8-3.6,1.4
		c-0.2,0.1-0.3,0.2-0.5,0.4c-0.9,0.1-1.8,0.1-2.8,0.1c-0.2-0.1-0.4-0.2-0.7-0.3c-0.5,0-1.2-0.1-1.9-0.1c-0.1-0.1-0.4-0.1-0.7-0.3
		c-0.6,0-1.4,0-2.1-0.1c-0.5,0-1,0-1.5-0.2c-0.3-0.1-0.6-0.1-0.9-0.1c-1.1,0-2.2,0-3.4-0.1c-0.4,0-0.9,0-1.3-0.2
		c-0.1-0.1-0.3,0.1-0.6,0.1c-0.2,0-0.4-0.1-0.6-0.2c-0.5,0.2-0.5,0.2-1.2-0.1c-2.7,0-5.3-0.1-8,0c-0.2,0.1-0.4,0.2-0.6,0.2
		c-0.7,0-1.4,0.1-2.1,0.1c-0.4,0.3-0.9,0.3-1.4,0.3c-0.5,0-1,0.1-1.5,0.3c-0.6,0-1.2,0.1-1.9,0.1c-0.3,0.1-0.6,0.3-0.9,0.3
		c-0.5,0-1,0.3-1.4,0.4c-0.5,0.1-1,0.1-1.4,0.4c-0.8,0-1.4,0.4-2.2,0.5c-0.6,0.1-1.2,0.4-1.8,0.6c-0.3-0.1-0.5-0.3-0.8-0.4
		c0-0.3,0.3-0.5,0.5-0.7c1.6-0.8,2.5-1,4.2-1.4c0.2-0.1,0.5-0.2,0.7-0.3c0.4,0,0.8-0.1,1.2-0.1c0.3-0.1,0.5-0.2,0.7-0.3
		c0.6-0.1,1.2,0.1,1.7-0.2c0,0,0-0.1,0-0.1c-0.1,0-0.1-0.1-0.2-0.1c-1.6,0-3.1-0.1-4.7,0c-0.2,0.1-0.4,0.2-0.6,0.3
		c-1,0-2,0.1-3.1,0.1c-0.4,0.1-0.7,0.3-1.1,0.3c-1-0.1-1.8,0.3-2.7,0.6c-0.1,0-0.2,0.1-0.3,0.1c-0.3,0-0.5,0-0.7-0.2
		c-0.1-0.3-0.1-0.6,0.1-0.9c0.2-0.2,0.3-0.4,0.5-0.6c0-0.1,0-0.2,0-0.4c0-0.1-0.3-0.2-0.5-0.1c-0.1,0.1-0.2,0.1-0.3,0.2
		c-0.1,0-0.2,0.1-0.4,0.1c-0.1,0-0.2,0-0.4,0c-0.3-0.2-0.3-0.5-0.2-0.9c0.2-0.2,0.3-0.4,0.6-0.6c1-1,1.9-2,2.9-2.9
		c0.6-0.6,1.2-1.1,1.6-1.8c0.3-0.4,0.7-0.7,1-1.1c0.5-0.5,1-1.1,1.6-1.6c0.4-0.4,0.8-0.8,1.2-1.2c0.4-0.3,0.5-0.8,0.9-1.2
		c0.4-0.4,0.7-0.8,1.1-1.3c0.7,0,1.4-0.1,1.8-0.1c0.7-0.2,1.1-0.3,1.5-0.5c0.2-0.1,0.3-0.2,0.4-0.3c-0.1-0.3-0.2-0.6-0.2-0.9
		c-0.1-0.2-0.2-0.5-0.2-0.7c-0.1-0.3-0.1-0.6-0.1-0.9c0-0.4-0.1-0.7-0.3-1c-0.1-0.5,0.1-1-0.2-1.6c-0.2,0.1-0.4,0.2-0.7,0.3H4
		c-0.2,0.1-0.4,0.2-0.6,0.2c-0.2-0.1-0.5-0.1-0.7-0.2c-0.2,0.1-0.4,0.2-0.6,0.3c-0.7,0-1.4,0.2-2.1-0.1c0,0,0-0.1-0.1-0.1
		c0.5-0.3,1,0,1.5-0.2c0.2-0.1,0.3-0.2,0.6-0.3c1.5,0,3-0.1,4.6-0.1c0.2-0.1,0.4-0.2,0.7-0.2c0.2,0,0.4,0.1,0.6,0.1
		c0.1,0,0.3-0.1,0.5-0.2c2.9,0,5.8-0.1,8.7-0.1c0.3-0.1,0.4-0.2,0.7-0.3c0.4,0,0.8,0,1.2,0c0.4,0,0.7,0,1.1,0
		c0.2,0.1,0.3,0.1,0.4,0.2c0.2,0.1,0.4,0.1,0.4-0.1c0-0.9,0-1.7,0-2.6c-0.1-0.2-0.2-0.4-0.3-0.8V85c0.1-0.4,0.2-0.7,0.3-1
		c0-0.3,0-0.6,0-0.9c0-0.7,0-1.5,0.3-2.2c0.1-0.3,0.1-0.7,0.1-1.1c0-0.2,0.2-0.5,0.3-0.8c0-0.4,0.1-1,0.1-1.5c0.1-0.4,0.3-0.7,0.3-1
		c0-0.8,0.4-1.6,0.4-2.4c0.3-0.6,0.2-1.2,0.5-1.8c0.3-0.6,0.2-1.4,0.6-1.9c0-0.6,0.4-1.2,0.5-1.8c0.1-0.5,0.4-0.9,0.5-1.4
		c0.1-0.5,0.1-1,0.2-1.5c0.1-0.1,0.1-0.3,0.3-0.5c0-0.6,0.1-1.3,0.1-2c0.1-0.3,0.3-0.5,0.2-0.9c-0.2-0.2-0.3-0.4-0.5-0.7
		c-0.2-0.3-0.1-0.6-0.1-0.9c0-0.1,0.1-0.3,0.1-0.4c0.3-0.6,0.6-1.2,0.9-1.8c0.1-0.7,0-1.3,0.4-1.9c0.1-0.1,0.1-0.2,0.1-0.4
		c0-0.6-0.1-1.1,0.2-1.7c0.3-0.5,0.2-1.1,0.4-1.6c0.2-0.4,0.1-0.9,0.3-1.3c0.2-0.4,0.2-0.8,0.2-1.3c0.1-0.6,0.3-1.2,0.6-1.8
		c0.2-0.6,0.5-1.2,1-1.8c0.4-0.5,0.6-1.1,0.9-1.6c0.5-1.1,1.2-2,2.1-2.8c0.3-0.3,0.5-0.5,0.8-0.8c0.6-0.6,1.2-1.1,1.9-1.5
		c0.2-0.1,0.4-0.3,0.6-0.5c0.4,0,0.9,0,1.3-0.1c0.5-0.3,1-0.6,1.5-1c0-0.3,0-0.7,0-1.1c0-1,0-2,0-3c0-0.2,0.1-0.5,0.2-0.8
		c0-0.1-0.1-0.3-0.2-0.5c0-1.3,0-2.6-0.1-3.9c-0.7-0.6-1.4-0.8-2.1-1.2c-0.2-0.4-0.2-0.4,0-0.9c0.7,0.3,1.3,0.6,2,1
		c0.1,0.1,0.2,0,0.3-0.1c-0.4-0.6-0.8-1.3-1.2-1.9c-0.3-0.1-0.6,0.3-1.1,0.2c-0.1,0-0.3-0.2-0.5-0.3c-0.5-0.1-1.1-0.1-1.6,0.2
		c-0.4,0.2-0.8,0.3-1.3,0.1c-0.1-0.1-0.3-0.3-0.4-0.4c-0.1-0.4,0.1-0.6,0.4-0.8c0.4,0,0.5,0.5,1,0.5c0.4-0.2,0.9-0.4,1.5-0.4
		c0.4-0.2,0.8-0.3,1.2-0.4c0.2-0.2,0.5-0.4,0.7-0.6c0.6,0.1,0.6,0.6,0.9,0.9c0.1-0.1,0.2-0.2,0.2-0.2c0-0.7,0-1.4,0-1.9
		c0.1-0.3,0.2-0.4,0.3-0.6c0-0.5,0-1,0.1-1.5c-0.1-0.2-0.2-0.5-0.3-0.7c0.2-0.9,0.5-1.9,1-2.7c0-0.3,0.1-0.5,0.1-0.9
		c0.2-0.5,0.4-1,0.7-1.5c0.8-1.6,1.9-3,3.4-4.1c0.3-0.2,0.6-0.4,0.9-0.7c0.6-0.6,1.3-1,1.9-1.5c0.6-0.2,1-0.7,1.5-1
		c0.1-0.1,0.2-0.3,0.3-0.4c0.3-0.2,0.5-0.3,0.9-0.5c0.2,0.1,0.5,0.3,0.8,0.4c0.4,0,0.7,0,1.1-0.1c0.5-0.1,1-0.3,1.4-0.4
		c0.4-0.1,0.8-0.3,1.3-0.3c0.2,0,0.4,0,0.6-0.1c0.5-0.5,0.9-0.9,1.4-1.4c0.4-0.4,0.9-0.9,1.3-1.3c0.1-0.3,0.3-0.6,0.4-0.9
		c0-0.4,0.1-0.9,0.1-1.3c0.4-0.3,0.9-0.6,1.4-1h2.3c0.4-0.2,0.7-0.5,1-0.7c0.6,0,0.8,0.5,1.2,0.7c0.6,0.1,1.2,0,1.8-0.2
		c0.3-0.1,0.6,0,0.9-0.1c0.6,0.3,1.3,0.2,2.1,0.4c0.4,0.3,0.8,0.7,1.3,1c0.2-0.1,0.3-0.1,0.5-0.2c0.3-0.1,0.5-0.1,0.7,0.1
		c0.2,0.2,0.3,0.6,0.5,0.7c0.3,0.2,0.6,0.4,0.7,0.7c0.5,0.3,0.9,0.1,1.3,0.3c0.7,0.3,1.5,0.5,2.3,0.8c0.2,0.1,0.4,0.3,0.7,0.4
		c0.2,0.5,0.3,1,0.5,1.6c-0.2,0.6-0.5,1.2-0.7,1.7c0.5,0.5,1.1,0.6,1.8,0.8c0.3,0.3,0.7,0.6,1,0.9c0.2,0.4,0.3,0.7,0.5,1.1
		c0,0.1,0,0.1,0,0.2c0,0.7,0,1.5,0,2.2c-0.1,0.2-0.2,0.4-0.3,0.6c0,0.2,0,0.4-0.1,0.6c0,0.3,0,0.6-0.1,0.9c0,0.2-0.3,0.4-0.1,0.7
		c0.1,0,0.2,0,0.4,0.1c0.3-0.5,0.4-1.2,1.2-1.3c0.1,0.3,0.3,0.5,0.4,0.8c-0.1,0.2-0.1,0.3-0.1,0.4c0.1,0.2,0.2,0.3,0.3,0.5
		c0,0.6,0,1.3-0.1,2.1c0.2,0.5,0.3,1,0.5,1.5c0.2-0.1,0.5-0.1,0.7-0.2c0.1,0.1,0.3,0.2,0.4,0.3c0.1,0.1,0.2,0.4,0.1,0.5
		c-0.3,0.6-0.3,1.3-0.9,1.8c-0.2,0.4-0.4,0.8-0.5,1.2c0.2,0.5,0.4,1,0.5,1.5c0.4,0.2,0.8,0.2,1.1,0.2c0.3,0,0.6,0,0.9,0.1
		c0.6,0.2,0.9,0.7,1.4,0.8c0.3,0.5,0.2,0.9,0.1,1.4c-0.2,0.4-0.5,0.9-0.7,1.4c0,1,0,1-0.3,2c0.1,0.1,0.2,0.3,0.3,0.4
		c0.1,0.1,0.2,0.3,0.4,0.5c0,0.5,0,1.1,0.1,1.7c0,0.1,0.1,0.2,0.2,0.3c0.4,0.2,0.9-0.2,1.2,0.2v0.4c-0.2,0.3-0.4,0.5-0.7,0.5
		c-0.5,0-0.9,0.4-1.3,0.6c-0.3,0.3,0,0.7-0.2,1.1c-0.2,0.3-0.5,0.6-0.9,0.7c-0.3,0-0.6,0.2-0.9,0.3c-0.2,0.1-0.5,0.1-0.7,0.2
		c-0.1,0.6-0.6,0.9-0.8,1.4c0,0.1,0,0.1,0,0.2c0.5,0.4,0.9,0,1.4-0.1c0.4,0,0.7,0.3,1,0.4c0.2,0.4,0.2,0.7,0.1,1
		c-0.3,0.5-0.3,1.1-0.2,1.6c0,0.1,0.1,0.1,0.1,0.2c0.2,0,0.3,0,0.6-0.1c0.2,0.2,0.3,0.3,0.5,0.5c0,0.2,0,0.4,0,0.6
		c-0.1,0.1-0.2,0.2-0.3,0.2c-0.5,0.1-1,0.2-1.4,0.5c0,0,0,0.1,0,0.1c0.3,0.3,0.5,0.7,0.8,1c0.1,0.4,0.3,0.9,0.4,1.2
		c-0.1,0.2-0.2,0.4-0.2,0.5c0.1,0.3,0.3,0.6,0.4,0.8c0.2,0.3,0.4,0.7,0.3,1.1c0,0.5,0.3,0.8,0.4,1.2c0,0.4,0,0.7,0.1,1.1
		c0,0.2,0.1,0.3,0.3,0.6c0,1,0,2.1,0,3.3c0,0.9,0,1.9,0,2.8c0,0.2,0,0.5,0,0.7c-0.4,0.8-0.2,1.7-0.3,2.5c0.1,0.4,0.5,0.6,0.3,1.2
		c0,0.1-0.2,0.3-0.3,0.6c-0.1,0.4,0,0.8,0,1.2c0.1,0.3,0.2,0.5,0.3,0.7c0.1,0.7,0,1.5,0.3,2.2c0,0.5,0.1,1,0.1,1.5
		c0,0.4,0.1,0.9,0.3,1.2v3.9c-0.2,0.4-0.4,0.9-0.7,1.4c0,0.1,0,0.4,0.1,0.6c0,0.2,0.1,0.3,0.2,0.5c0.1,3.1,0.1,5.5,0,8.7
		c-0.1,0.2-0.2,0.4-0.3,0.7c0,1.4-0.1,2.8-0.1,4.2c0.1,0.1,0.2,0.2,0.3,0.3c0.8,0,1.6,0,2.4,0.1c0.4,0.2,0.8,0.3,1.3,0.3
		c0.9,0,1.9,0,2.8,0c0.2,0.1,0.4,0.1,0.5,0.2c0.5-0.2,1.1,0.2,1.6,0.1c0.5-0.1,1,0,1.5,0c0.6,0,1.1,0,1.7,0c0.5,0,1,0,1.5,0
		c0.6,0,1.1,0,1.7,0c0.2,0.1,0.4,0.2,0.7,0.3c0.7,0,1.5,0.1,2.3,0.1c0.4,0.2,0.8,0.3,1.3,0.3c0.4,0,0.9,0.1,1.3,0.3
		c0.5,0,1,0.1,1.4,0.1c0.5,0.1,0.8,0.4,1.2,0.3c0.4,0,0.7,0.1,1.1,0.2c0.4,0.1,0.9,0.1,1.5,0.2c0.2,0.1,0.7,0.2,1,0.5
		c0.3,0.2,0.8,0,1,0.4c0,0.1,0,0.2-0.1,0.4c-0.3-0.1-0.6-0.1-0.8-0.2c-0.3-0.1-0.6-0.2-0.9-0.3c-0.4-0.1-0.9-0.1-1.3-0.1
		c-0.4,0-0.7-0.1-1.1-0.1c-0.5-0.3-1.1-0.2-1.6-0.4c-0.2-0.1-0.3-0.2-0.5-0.2c-0.6,0-1.2,0-1.8-0.1c-0.4-0.2-0.8-0.3-1.3-0.4
		c-0.2,0-0.5,0-0.7-0.1c-0.2,0-0.3-0.1-0.6-0.2c-2.3,0-4.7,0-7.1-0.1c-0.1,0-0.3-0.1-0.5-0.2c-0.3,0-0.7,0.1-1,0.1
		c-0.4,0.1-0.7-0.2-1.1-0.2c-0.3-0.1-0.6,0-0.9,0.2c-0.2-0.1-0.3-0.1-0.6-0.2c-2,0-4-0.1-6.1-0.1c-0.2,0.2-0.4,0.3-0.5,0.5
		c-0.2,0.7-0.1,1.3-0.2,1.9c-0.2,0.4-0.4,0.8-0.2,1.2c0.4,0,0.8-0.2,1.2,0.1c0.5,0.2,1.1,0.1,1.8,0.2c0.1,0.1,0.4,0.1,0.6,0.2
		c0.5,0,1,0.1,1.5,0.1c0.1,0.1,0.3,0.1,0.5,0.2c0.6,0.3,1.2,0.6,2,0.5c0.3,0.2,0.6,0.5,0.8,0.7c0.2,0.4,0.3,0.7,0.5,1.1
		c0,0.3,0,0.6,0.1,0.9c0.3,0.4,0.4,0.9,0.8,1.3c0.1,0.1,0.3,0.3,0.3,0.5c0.1,0.7,0.5,1.2,0.8,1.9c0.3,0.7,0.6,1.3,0.9,2.1
		c0.2,0.7,0.6,1.4,0.8,2.1c0.4,0.5,0.1,1.1,0.5,1.6c0.2,0.3,0.2,0.6,0,0.9c-0.1,0.2-0.3,0.4-0.5,0.5c-0.1,0-0.2,0-0.4,0
		c-0.3-0.2-0.7-0.4-1.1-0.7c0,0.2-0.1,0.4-0.1,0.5c0,0.2,0.2,0.5,0.3,0.7c0.1,0.2,0.1,0.5,0.2,0.7c0.2,0.2,0.4,0.3,0.5,0.4
		c-0.4,0.4-0.8,0-1.2,0c-0.2,0.2-0.2,0.4-0.1,0.7c0.2,0.1,0.4,0.3,0.6,0.4c0.1,0.2,0.3,0.5,0.4,0.8
		C94.3,113.8,94.1,113.9,93.9,114.1 M62.8,4.4c0.1,0.3,0.3,0.5,0.6,0.7c0.2-0.1,0.4-0.2,0.4-0.5C63.4,4.4,63.1,4.5,62.8,4.4
		c0-0.1,0-0.3,0-0.6c0.3-0.3,0.6-0.7,0.9-1.1c-0.2-0.4-0.5-0.2-0.8-0.1c-0.3,0.3-0.6,0.6-0.8,0.8c0,0.2,0,0.3,0,0.4
		C62.3,4.1,62.4,4.3,62.8,4.4 M49.3,65.5c-0.1,0-0.1,0-0.2,0c-1,0.9-1.9,1.8-2.7,2.7c0,0,0,0.1-0.1,0.2c0,0.1,0,0.2,0.2,0.3
		c1-0.8,1.9-1.7,2.7-2.7C49.2,65.8,49.2,65.6,49.3,65.5c0.1-0.1,0.3-0.1,0.5-0.1c0.2-0.1,0.2-0.3,0.1-0.6c-0.2,0.2-0.3,0.3-0.5,0.5
		C49.3,65.3,49.3,65.4,49.3,65.5 M77,105.9c0,0.2,0.1,0.3,0.3,0.3c0.6,0,1.3,0,1.9,0c0,0.1,0.1,0.3,0.2,0.3c0.4,0.1,0.9,0.1,1.2,0.1
		c0.5,0.2,0.9,0.3,1.4,0.5c0.2,0.2,0.5,0.4,0.6,0.5c0.5,0.2,0.8,0.3,1,0.4c0.4,0,0.9,0.1,1.2,0.1c0.2,0.1,0.4,0.2,0.6,0.3
		c0.5,0,1.1,0.1,1.6,0.1c0.3,0.1,0.6,0.2,0.9,0.3c0.2,0.1,0.5,0,0.7,0.1c0.3,0.2,0.7,0.2,1.1,0.3c0.4,0,0.9,0,1.3,0.1
		c0.1,0,0.2,0.1,0.4,0.1c0.3,0.2,0.6,0.3,0.8,0.4c0.1-0.4,0.2-0.8-0.2-1.2c-0.5-0.1-1,0-1.4-0.3c-0.5-0.1-1-0.1-1.5-0.2
		c-0.2,0-0.3-0.1-0.5-0.2c-0.4,0-0.9-0.1-1.2-0.1c-0.3-0.1-0.5-0.2-0.7-0.3c-0.6,0-1.1-0.1-1.5-0.1c-0.4-0.1-0.7-0.3-1.1-0.3
		c-0.4,0-0.8,0-1.1-0.2c-0.4-0.2-0.8-0.2-1.3-0.2c-0.2-0.1-0.5-0.2-0.7-0.3h-1.9c0-0.2-0.1-0.3-0.3-0.3
		C78.2,105.9,77.6,105.9,77,105.9c0-0.1-0.1-0.2-0.2-0.3c-0.7-0.1-1.5-0.1-2.2-0.2c-0.2-0.1-0.4-0.2-0.6-0.3c-0.8,0-1.6-0.1-2.4-0.1
		c-0.2-0.1-0.4-0.2-0.7-0.3c-1.4,0-2.9,0-4.3-0.1c-0.2,0-0.4,0-0.6,0.1c-0.1,0-0.2,0.1-0.3,0.2c0,0.1,0,0.2,0,0.3
		c0.3,0.2,0.6,0.4,1.2,0.5c0.2,0,0.4-0.1,0.7-0.2c0.2-0.1,0.5-0.1,0.7-0.1c0.3,0,0.6,0.1,0.8,0.2c0.3-0.1,0.4-0.1,0.5-0.2h1.5
		c0.3,0.1,0.5,0.2,0.8,0.3c0.8,0,1.6,0,2.4,0C75.4,105.9,76.2,105.9,77,105.9 M62.8,84.9c0,0.1-0.1,0.2-0.1,0.3
		c-0.2,0.2-0.4,0.4-0.7,0.6c0.1,0.6,0.1,0.6,0.6,0.8c0.5-0.2,0.9-0.5,1.3-0.6c0.1,0,0.2,0.1,0.2,0.2c-0.3,0.3-0.7,0.7-1,1
		c0,0.2,0.1,0.3,0.1,0.4c0.4,0.1,0.7-0.1,1-0.3c0.3-0.3,0.7-0.1,1-0.4c-0.3-0.8-0.7-1.7-1.3-2.4C63.5,84.6,63.2,85,62.8,84.9
		c0-0.4,0.5-0.6,0.8-1c0-0.2,0-0.5,0-0.8c-0.5-1-1-1.9-1.3-2.9c-0.2,0-0.3,0-0.4-0.1c-0.3,0.2-0.6,0.5-0.5,0.9
		c0,0.1,0.1,0.1,0.1,0.2c0.3,0.2,0.6,0.4,0.9,0.6c0,0.1,0,0.2,0,0.4c-0.2,0.1-0.4,0.3-0.6,0.4c-0.6,0-1.1,0.5-1.7,0.6
		c-0.2,0-0.4,0.3-0.7,0.2c-0.1,0-0.3-0.1-0.3-0.2c-0.1-0.2-0.1-0.5-0.2-0.7c-0.2,0-0.4,0.1-0.6,0.1c-0.5-0.3-1-0.2-1.5-0.2
		c-0.6-0.1-1.1,0-1.7,0.1c0-0.2-0.1-0.3-0.3-0.5c-0.5-0.3-1.2-0.4-1.8-0.6c-0.3-0.1-0.7-0.1-1.1-0.2c-0.3-0.1-0.6-0.2-1-0.3
		c-0.9,0-2-0.1-3-0.1c-0.2-0.1-0.4-0.2-0.7-0.2c-0.3,0.1-0.5,0.2-0.7,0.2c-0.9,0-1.8,0.1-2.6,0.1c-0.6,0.3-1.2,0.3-1.7,0.6
		c-0.1,0.1-0.2,0-0.4,0c-0.4-0.2-0.7-0.5-0.9-0.9c-0.1-0.3-0.1-0.6,0.3-0.8c0.7-0.1,1.5,0,2.4-0.2c0.1-0.1,0.2-0.2,0.3-0.3
		c-0.1-0.3-0.1-0.4-0.1-0.6c0.2-0.2,0.4-0.3,0.6-0.5c0.4-0.6,0.7-1.2,1.2-1.7c0.6-0.8,1.4-1.5,2.1-2.2c0.4-0.4,0.9-0.9,1.3-1.3
		c0.5-0.5,1-0.9,1.4-1.5c0.4-0.5,1-0.7,1.4-1.3c0.2-0.3,0.4-0.5,0.6-0.7c0.2-0.4,0.6-0.4,0.8-0.8c0.1-0.4,0.4-0.6,0.7-0.9
		c0.5-0.5,1.1-1,1.4-1.7c0.1-0.3,0.4-0.5,0.6-0.6c0.1,0,0.2,0,0.2,0c0.3,0,0.4,0.3,0.3,0.5c-0.5,0.8-1.1,1.5-1.7,2.2
		c-2.6,2.6-5.2,5.2-7.8,7.8c-0.8,0.8-1.3,1.7-2,2.5c-0.1,0.2-0.2,0.4-0.3,0.6c0.1,0,0.1,0.1,0.2,0.1c1.8,0.1,3.6,0,5.4,0.1
		c0.4,0.1,0.8,0.3,1.2,0.3c0.4,0,0.7,0,1.1,0.2c0.2,0.1,0.4,0.1,0.5,0.1c0.5,0,0.8,0.2,1.3,0.4h1.1c0,0.1,0,0.3,0.2,0.3
		c0.7,0.2,1.4,0.4,2.2,0.6c1.2,0.2,1.2,0.3,2.4,0.2c0.4-0.4,0.4-1,0.6-1.5c0.3-0.5,0.8-1,0.9-1.6c-0.3-0.3-0.1-0.8-0.5-1.1
		c-0.1,0.1-0.2,0.1-0.3,0.2c-0.2,0.2-0.3,0.4-0.5,0.6c-0.1,0.1-0.1,0.4-0.3,0.5c-0.5,0.5-1,1-1.5,1.4c0,0-0.1,0-0.1,0
		c-0.1-0.2-0.1-0.3,0-0.5c0.2-0.4,0.6-0.8,0.9-1.2c0.3-0.4,0.6-0.8,0.8-1.3c0.2-0.4,0.5-0.5,0.7-0.8c-0.1-0.4-0.3-0.8-0.4-1.2
		c-0.2,0-0.3,0-0.4,0.1c-0.3,0.5-0.7,0.9-1.1,1.3c-0.3,0.3-0.6,0.5-0.7,0.8c-0.3,0.6-0.8,1.1-1.3,1.6c-0.4,0.4-0.7,0.8-1,1.3
		c-0.1,0.2-0.3,0.4-0.6,0.5c0-0.2,0-0.5,0.1-0.8c0.3-0.4,0.4-0.9,0.8-1.4c0.3-0.3,0.4-0.8,0.8-1c0.4-0.7,1-1.1,1.4-1.7
		c0.4-0.6,0.9-1.2,1.4-1.7c0.1-0.4,0.1-0.8-0.1-1.1c-0.1-0.3-0.2-0.6-0.3-0.9c-0.1-0.3-0.2-0.6-0.3-0.9c-0.1-0.4,0-0.7-0.3-1.1
		c-0.2-0.4-0.2-0.8-0.4-1.2c-0.2-0.5-0.4-1-0.5-1.6c-0.2-0.9-0.5-1.8-0.8-2.5c0-0.1-0.2-0.2-0.3-0.3c-0.6-0.1-1.1,0.3-1.8,0.4
		c-0.3,0.6-0.8,1.1-1.3,1.6c-0.7,0.7-1.4,1.4-2,2.2c-0.3,0.5-0.8,1-1.3,1.3c-0.2,0.1-0.3,0.2-0.4,0.4c-0.2,0.3-0.4,0.6-0.8,0.8
		c-0.4,0.2-0.8,0.6-1.1,1c-0.2,0.5-0.8,0.6-1,1.1c0,0.1-0.1,0.1-0.1,0.1c-0.3,0.2-0.5,0.3-0.8,0.5c-0.2,0.2-0.4,0.3-0.5,0.5
		c-0.2,0.2-0.4,0.4-0.7,0.7c-0.4,0.4-0.7,1-1.1,1.5c-0.3,0.2-0.4,0.6-0.6,0.9c-0.3,0.1-0.5,0.1-0.8-0.1c0.3-0.4,0.5-0.8,0.8-1.2
		c0.5-0.6,1-1.1,1.5-1.6c0.4-0.4,0.9-0.9,1.4-1.2c0.3-0.1,0.5-0.4,0.6-0.7c0.1-0.3,0.5-0.3,0.7-0.5c0.1-0.2,0.2-0.4,0.2-0.5
		c1.9-1.9,3.7-3.8,5.6-5.6c0.1-0.1,0.2-0.2,0.2-0.3c0.1-0.1,0-0.2-0.1-0.3c-0.9,0.4-0.9,0.4-1.3,0.9c-0.2,0.2-0.3,0.4-0.5,0.5
		c-0.2,0.1-0.3,0.2-0.4,0.4c-0.8,1.1-1.8,2.1-2.8,3c-1.4,1.4-2.7,2.7-4.1,4.1c-0.1,0.1-0.2,0.1-0.3,0.2c-0.1-0.4-0.1-0.4,0-0.5
		c0.6-0.6,1.1-1.2,1.7-1.7c1.3-1.3,2.6-2.6,3.8-3.8c0.2-0.2,0.3-0.4,0.3-0.7c-0.2-0.3-0.4-0.6-0.9-0.5c-1.4,1.2-2.7,2.7-4.1,3.8
		c-0.6,0.7-1,1.3-1.2,2c-0.2,0.5-0.4,1-0.7,1.5c-0.9,1.8-1.7,3.6-2.6,5.3c-0.2,0.4-0.4,0.9-0.6,1.4c-0.3,0.7-0.6,1.5-1.1,2.1
		c-0.1,0.1-0.3,0.3-0.3,0.5c-0.2,0.7-0.6,1.3-0.8,2.1c0,0.1,0.1,0.3,0.2,0.5c0.4-0.3,0.8-0.6,1.2-0.8c0.1-0.2,0.2-0.4,0.3-0.5
		c0.2-0.1,0.4-0.2,0.5-0.2c0.6-0.6,1.2-1.2,1.9-1.6c0.2-0.1,0.3-0.4,0.4-0.6c0-0.1,0.1-0.2,0.2-0.3c0.3,0,0.6-0.1,0.8,0.2
		c-0.1,0.2-0.2,0.4-0.1,0.7c0.2,0.2,0.6,0.3,0.8,0.1c0.6-0.5,1.4-0.8,2-1.4h0.6c0.2,0.1,0.3,0.2,0.5,0.3c0.1,0,0.1,0,0.2,0
		c0.5,0,1,0,1.5,0c0.3,0,0.6,0,0.9,0c0.2,0,0.4,0.1,0.5,0.3c0.1,0.2,0,0.3-0.1,0.5c-0.1,0.1-0.1,0.2-0.1,0.3c0,0.2,0.2,0.4,0.4,0.4
		c0.4-0.1,0.7-0.3,1-0.5c0-0.1,0.1-0.3,0.1-0.4c-0.2-0.4-0.4-0.8-0.6-1.2c0.3-0.2,0.4-0.2,0.5,0c0.3,0.5,0.6,0.9,1.2,1.2
		c0.1,0,0.1,0.2,0.2,0.3c0.1,0.1,0.2,0.2,0.3,0.2c0.2,0,0.4,0,0.6,0c0.3-0.2,0.6-0.5,0.9-0.7h0.5c0,0.2,0,0.5,0,0.7
		c0,0.3,0.3,0.4,0.5,0.3c0.4-0.2,0.8-0.4,1.1-0.6c0.1,0,0.2,0,0.3,0c0.3,0.4,0.5,0.9,1,1c0.2,0.1,0.3,0.2,0.3,0.4
		c0,0.2,0.2,0.3,0.4,0.3c0.2,0,0.2,0.1,0.2,0.2c-0.1,0.1-0.1,0.2-0.2,0.3c0.2,0.3,0.2,0.3,0.5,0.4c0.4-0.3,0.8-0.6,1.2-0.9
		c0-0.3,0-0.5,0.2-0.7c0.6,0.1,0.8,0.8,1.3,0.9C62,85.2,62.3,84.8,62.8,84.9 M70.6,50.5c0.2,0.1,0.5,0,0.7,0.2c0,0.1,0,0.2,0,0.4
		c-0.2,0.2-0.5,0.5-0.7,0.8c-0.3,0.3-0.5,0.7-0.8,1c-0.4,0.4-0.6,0.9-1,1.3c-0.5,0.6-0.9,1.2-1.2,1.9c-0.3,0.6-0.6,1.2-1,1.7
		c0,0.3-0.1,0.5,0.1,0.8c0.5-0.2,0.7-0.6,1.1-0.9c0.4-0.3,0.7-0.7,1.1-0.9c0.4-0.3,0.7-0.6,1.1-0.9c0.3-0.1,0.6-0.3,0.9-0.2
		c0.2,0.4,0.2,0.7,0,1.2c-0.8,0.8-1.3,1.9-2,2.9c0.2,0.3,0.4,0.5,0.8,0.5c0.1,0,0.2,0,0.4-0.1c0.5-0.2,0.9-0.5,1.4-0.6
		c0.5-0.1,1-0.5,1.6-0.5c0.4-0.3,1-0.2,1.4-0.4c0.5-0.2,1.1-0.3,1.6-0.3c0.3,0,0.6-0.1,0.9-0.2c0.2,0.1,0.4,0.1,0.5,0.2
		c1.6,0,3,0,4.5,0.1c0.1,0,0.1,0.1,0.2,0.1c0,0.4-0.3,0.8-0.4,1.2c0,0.1-0.2,0.2-0.4,0.2c-0.1-0.1-0.3-0.1-0.4-0.2
		c-0.2-0.1-0.3-0.2-0.5-0.2c-0.1-0.3-0.1-0.5-0.5-0.6c-1.3,0-2.8,0-4.1,0c-0.2,0.1-0.4,0.2-0.6,0.3c-0.4,0-0.8,0.1-1.1,0.1
		c-0.8,0.3-1.4,0.5-2,0.7c-0.7,0.2-1.3,0.7-2,0.9c-0.5,0.5-1.2,0.7-1.6,1.3c0,0.4,0,0.4,0.2,0.8c0.4-0.4,0.9-0.2,1.4-0.5
		c0.4-0.2,0.9-0.4,1.4-0.5c0.5-0.1,0.9-0.4,1.4-0.5c1-0.3,2-0.7,3-0.9c0.3-0.1,0.6-0.2,0.9-0.2c0.6,0,1.2,0,1.8,0
		c0.3-0.1,0.4-0.2,0.6-0.3c0.5,0.3,0.5,0.3,0.3,0.9c0.5,0.2,1,0.1,1.5,0.2c0.2,0.1,0.3,0.2,0.5,0.2c0.4,0,0.7,0.2,1.1,0
		c0.2-0.5,0.3-1,0.5-1.6c0-2.2,0-4.4,0-6.7c0-0.4,0-0.7-0.1-1.1c-0.4-0.6-0.3-1.2-0.4-1.8c-0.2-0.3-0.4-0.6-0.3-1
		c0-0.3-0.1-0.6-0.3-0.9c-0.2-0.3-0.4-0.6-0.6-1c-0.7-1.1-1.5-2.2-1.9-3.4c-0.4-0.3-0.7-0.8-1.1-1c-0.5-0.3-0.9-0.7-1.3-1.1
		c-0.8-0.8-1.6-1.7-2.5-2.4c-0.4-0.1-0.8-0.2-1.1-0.3c-0.1,0-0.1,0.1-0.2,0.1c0,0-0.1,0.1-0.1,0.1c-0.1,0.2-0.2,0.5-0.3,0.7
		c-0.4,0.5-0.1,1.2-0.5,1.8c0,0.5-0.1,1-0.2,1.6c-0.7,0.5-1.1,1.3-1.5,2.1c-0.1,0.2-0.2,0.3-0.3,0.5c-0.3,0.3-0.4,0.8-0.6,1.2
		c-0.5,0.4-1.1,0.6-1.6,1c-0.5,0.4-1.2,0.7-1.6,1.2c-0.2,0.2-0.4,0.3-0.6,0.4c-0.3,0.2-0.7,0.4-1,0.6c-0.7,0.5-1.4,1-2,1.6
		c-0.3,0.2-0.7,0.3-0.9,0.7v1c0.5,1.3,1.2,2.4,1.6,3.6c0.1,0.2,0.2,0.4,0.5,0.5c0.5-0.4,0.6-0.9,0.3-1.5c-0.1-0.2-0.1-0.3-0.2-0.5
		c0-0.2,0-0.3,0.1-0.4c0.7-1.5,1.7-2.7,3-3.8c0.7-0.4,1.2-1,1.8-1.5c0.6-0.3,1.2-0.6,1.8-0.9c0.5,0,1-0.1,1.4,0.1
		c0,0.1,0.1,0.2,0.1,0.3c0,0.1-0.2,0.2-0.3,0.2c-0.3,0.1-0.6,0.1-0.9,0.1c-0.2,0.2-0.4,0.3-0.5,0.5C70.6,50.3,70.6,50.4,70.6,50.5
		l-0.5,0c-0.2,0.2-0.4,0.3-0.6,0.5c0,0.2,0.1,0.3,0.1,0.5c0.4-0.2,0.7-0.5,1-0.9C70.6,50.6,70.6,50.5,70.6,50.5 M65.2,63.1
		c-0.5-0.9-0.7-1.8-1.1-2.5c-0.6-1-1.1-2.1-1.6-3.2c-0.5-1.1-1.1-2.1-1.4-3.2c-0.1-0.2-0.2-0.4-0.3-0.6c-0.3-0.1-0.6-0.2-0.9-0.3
		c-0.1-0.1-0.2-0.3-0.3-0.4c0.6-0.4,1.3-0.8,1.9-1.3c0.8-0.9,1.9-1.4,2.8-2.1c0.1-0.2,0.1-0.5,0.2-0.7c0.4-0.2,0.8-0.4,1.2-0.5
		c0.6-0.2,1.2-0.4,1.7-0.7c0.3-0.2,0.5-0.4,0.7-0.6c0-0.3,0.2-0.6-0.2-0.8c-0.2,0.1-0.4,0.1-0.7,0.2c-0.1-0.1-0.2-0.2-0.1-0.3
		c0.2-0.3,0.3-0.7,0.5-1c0.6-0.6,1.1-1.2,1.6-1.7c0.1-0.2,0.1-0.3,0.1-0.4c0-0.5,0.5-0.9,0.4-1.4c0.4-0.5,0.2-1.1,0.4-1.6
		c0.2-0.5,0.2-1,0.3-1.4c0.1-0.2,0.2-0.3,0.3-0.6c0-0.9,0-1.8,0.1-2.8c0.1-0.1,0.1-0.2,0.2-0.3c0.1-0.3,0.1-0.4-0.2-0.6
		c-0.1-0.1-0.2-0.1-0.4-0.2c0.4-0.4,0.2-1.1,0.6-1.5c0.1-0.6,0.2-1.2,0.4-1.8c0-0.1-0.1-0.3-0.1-0.6c-0.5,0.4-0.9,0.8-1.3,1.3
		c-0.1,0.3-0.3,0.6-0.4,0.9c0.1,0.3,0.2,0.6,0.3,0.9c-0.1,0.2-0.2,0.4-0.3,0.6c0,0.5-0.1,1.1-0.1,1.6c-0.1,0.2-0.2,0.3-0.2,0.5
		c0,0.4-0.1,0.8-0.1,1.3c-0.1,0.3-0.2,0.5-0.3,0.7c0.1,0.5-0.1,1.1,0.2,1.7c-0.1,0.3-0.2,0.7-0.5,1c-0.4,0.5-0.7,1.1-1,1.8
		c-0.4,0.8-0.8,1.5-1.2,2.3c-0.1,0.2-0.3,0.2-0.4,0.4c-0.2-0.2-0.2-0.3-0.1-0.5c0.1-0.2,0.2-0.3,0.3-0.5c0-0.3,0.1-0.6,0.1-0.8
		c0.4-0.8,0.7-1.4,1-2.1c0.1-0.8,0.6-1.4,0.8-2.1c0.1-0.3-0.1-0.6-0.2-0.9c0.1-0.2,0.2-0.3,0.2-0.5c0-0.5,0-1.1,0.1-1.6
		c0.2-0.4,0.3-0.7,0.3-1.1c0-0.3,0.1-0.6,0.3-0.9c-0.2-0.4-0.2-0.4-0.5-0.4c-0.1,0.3-0.3,0.5-0.4,0.8c0,0.3-0.1,0.6-0.1,0.9
		c-0.1,0.2-0.2,0.5-0.3,0.6c0,0.6-0.1,1.1-0.1,1.6c-0.2,0.4-0.5,0.9-0.6,1.3c-0.1,0.6-0.4,1-0.6,1.4c-0.3,0.3-0.6,0.6-0.8,0.9
		c-0.2,0.4-0.4,0.8-0.6,1.2c-0.2,0.4-0.5,0.7-0.6,1c-0.2,0.5,0.1,0.8,0.1,1.2c-0.1,0.2-0.3,0.4-0.6,0.5c-0.4,0-0.8,0-1.2,0.1
		c-0.5,0.3-0.9,0.7-1.3,0.9c-0.2,0.3-0.3,0.5-0.5,0.7c-0.5,0.2-1,0.5-1.5,0.7c-1.2,1.1-1.2,1.1-2.6,1.8c-0.2,0.2-0.5,0.5-0.7,0.7
		c-0.1,0.4-0.1,0.8-0.4,1.1c-0.4,0.4-0.6,0.9-0.8,1.5c0,0.2,0,0.5,0,0.7c0.3,0.4,0.9,0.2,1.2,0.5c0,0,0.1,0,0.2,0
		c0.3-0.2,0.6-0.2,0.9-0.2c0.2,0,0.2,0.1,0.2,0.3c-0.3,0.2-0.6,0.5-1,0.7c0,0.2,0,0.4,0,0.6c0,0.3,0.1,0.5,0.2,0.7
		c0.2,0.7,0.5,1.4,0.5,2.2c0,0.2,0.1,0.5,0.2,0.7c0.1,0.3,0.2,0.6,0.2,0.9c-0.1,0.7,0.5,1.3,0.4,2c0,0.2,0.2,0.5,0.2,0.7
		c0.2,0.7,0.6,1.4,0.5,2.1c0.2,0.6,0.5,1.1,0.7,1.5c0,0.3,0,0.5,0.1,0.7c0.2,0.5,0.3,1.1,0.5,1.6c0.3,0.5,0.1,1.1,0.4,1.6
		c0.1,0.6,0.4,1.2,0.7,1.7c0.2,0.5,0.2,1,0.5,1.4c0.1,0.3,0.1,0.6,0.2,0.9c0.3,0.7,0.7,1.3,0.8,2.1c0.3,0.4,0.2,0.8,0.4,1.2
		c0.3,0.5,0.4,1.1,0.6,1.6c0.3,0.6,0.5,1.1,0.7,1.7c0.2,0.5,0.4,1,0.6,1.5c0.1,0.3,0.4,0.5,0.5,0.8c0.1,0.3,0.2,0.6,0.3,0.9
		c0.6,1.1,1.1,2.2,1.7,3.3c0.3,0.6,0.7,1,1.3,1.2c0,0.2-0.1,0.3-0.1,0.5c0.3,0.4,0.5,0.9,0.8,1.3c0.3,0.4,0.7,0.7,1,1.1
		c1.1,1.2,2.5,2.1,3.8,3c0.3,0.2,0.7,0.3,1,0.4c0.5,0,1,0,1.5,0.1c0.2,0.1,0.4,0.2,0.6,0.3c0.2,0,0.5,0,0.9,0.1
		c0.3,0,0.6-0.1,0.9,0.1c0,0.2,0,0.3-0.1,0.5c0.5,0.2,1,0.1,1.5,0.1c0.2-0.1,0.4-0.3,0.5-0.4c0.1-0.1,0.3-0.3,0.3-0.4
		c0.6-1.4,1.4-2.6,1.9-4c0-1,0-2,0.1-3c0.1-0.3,0.2-0.5,0.3-0.7c0-1.2,0.1-2.3,0.1-3.4c0.1-0.3,0.2-0.5,0.2-0.7c0-0.5,0-0.9,0-1.4
		c0-0.2-0.2-0.4-0.2-0.6c0.1-0.2,0.1-0.4,0.2-0.6c-0.2-0.4-0.2-0.8-0.2-1.3c0-1.2-0.1-2.4-0.1-3.4c-0.1-0.3-0.2-0.5-0.3-0.7v-5
		c0.2-0.2,0.4-0.3,0.6-0.4c0.1-0.2,0.1-0.5,0-0.7c-0.1-0.2-0.2-0.3-0.2-0.5c0-0.7-0.1-1.3-0.4-2c-0.1-0.3-0.1-0.7-0.1-1.1
		c-0.4-0.5-0.2-1.2-0.4-1.8c0-0.1-0.1-0.2-0.2-0.4c-0.1-0.1-0.3-0.2-0.4-0.3c-0.9-0.1-1.7-0.1-2.6-0.1c-0.6,0-1.1,0-1.7,0
		c-0.1,0-0.2-0.1-0.2-0.2c0.1-0.1,0.1-0.2,0.2-0.3c-0.1-0.2-0.3-0.2-0.4-0.2c-0.2,0.1-0.3,0.2-0.5,0.3c-0.3,0-0.7,0-1.1,0
		c-0.4,0-0.6,0.4-1,0.3c-0.2-0.1-0.3-0.2-0.5-0.3c-0.5,0-0.9,0.4-1.4,0.3c-0.2,0-0.3,0.1-0.5,0.2c-0.7,0.3-1.4,0.8-2,1.3
		c0,0-0.1,0.1-0.1,0.2c0.2,0.8,0.6,1.6,0.8,2.4c0.1,0.2,0.2,0.5,0.3,0.7c0.3,0.5,0.5,1,0.8,1.5c0.3,0.6,0.6,1.1,0.7,1.7
		c0.2,0.5,0.5,1,0.7,1.4c0,0.5,0,0.9,0.1,1.2c0.1,0.2,0.2,0.3,0.3,0.4c0.7,0.8,1.5,1.5,2.2,2.3c0.7,0.8,1.2,1.7,1.8,2.6
		c0.2,0.3,0.4,0.6,0.6,0.9c0.5,0.9,1.1,1.6,1.5,2.5c0.3,0.6,0.4,1.2,0.6,1.8c0.1,0.3,0,0.6,0,0.9c0,0.2-0.2,0.3-0.5,0.3
		c-0.1-0.3-0.3-0.6-0.4-0.8c0-0.1,0-0.1,0-0.2c0-0.2-0.1-0.5-0.1-0.7c-0.5-1.3-1.4-2.4-2-3.5c-0.5-0.6-1.1-1.1-1.4-1.8
		c-0.8-0.9-1.5-2-2.4-2.8c-0.2-0.2-0.4-0.4-0.7-0.7c-1-0.9-1.8-2.1-2.6-3.2c-0.9-1.2-1.6-2.5-2.4-3.7c-0.4-0.9-1.1-1.7-1.5-2.6
		C66,64.1,65.6,63.6,65.2,63.1 M27,76.4c-0.4,1-1,1.8-1.6,2.7c-0.3,0.5-0.6,0.9-0.8,1.5c-0.1,0.4-0.3,0.8-0.5,1.2
		c-0.3,0.5-0.3,1.1-0.6,1.5c0,0.4-0.2,0.8-0.4,1.2c0,0.1,0,0.2,0,0.4c0,0.6,0,1.2-0.1,1.9c0,0.2,0,0.4,0,0.6
		c-0.2,0.2-0.5,0.4-0.7,0.6c0,0.9-0.1,1.7,0.3,2.6c0.1,0.2,0.1,0.4,0.1,0.6c0,0.5,0.2,1,0.3,1.5c-0.1,0.3-0.2,0.6-0.3,0.9
		c0,0.3,0.1,0.7,0.1,1.1c0.2,0.3,0.4,0.5,0.6,0.7c0.2,0.2,0.5,0.3,0.7,0.2c1.1-0.3,2.2-0.6,3-1.3c0.1-0.1,0.1-0.3,0.2-0.4
		c0.1-0.1,0.2-0.3,0.4-0.4c0.5-0.5,1.3-0.8,1.8-1.4c0.1-0.1,0.3-0.2,0.5-0.3c1-0.7,2-1.4,2.9-2.3c0.7-0.7,1.4-1.5,2.1-2.2
		c0.4-0.4,0.5-0.8,0.8-1.2c0.2-0.2,0.3-0.4,0.4-0.6c0.6-1.1,1.1-2.2,1.8-3.3c0,0,0.1-0.1,0.1-0.2c0.1-0.6,0.4-1.2,0.8-1.7
		c0.4-0.5,0.4-1.2,0.8-1.7c0.1-0.1,0.1-0.2,0.2-0.3c0.5-0.5,0.7-1.2,1-1.8c0.3-0.5,0.4-1,0.7-1.5c0.6-1.1,1.1-2.3,1.7-3.5
		c0.6-1.2,1.2-2.4,1.9-3.6c-0.1-0.2-0.1-0.4-0.2-0.5c0.1-0.5,0.6-0.8,0.8-1.3c0.2-0.5,0.5-0.9,0.8-1.2c0.3-0.4,0.6-0.8,0.8-1.3
		c0.5-1,1.1-1.9,1.7-2.9c0.4-0.7,0.8-1.4,1.1-2.2c0.3-0.8,0.9-1.5,1.3-2.3c0.2-0.3,0.3-0.7,0.6-1c0.2-0.3,0.5-0.6,0.7-0.8
		c-0.1-0.1-0.1-0.2-0.1-0.3c-0.2-0.5-0.2-0.7,0.1-1c0.1-0.1,0.3-0.2,0.4-0.3v-2.4c-0.2-0.5-0.5-1.1-0.7-1.5c0.1-0.3,0.2-0.5,0.3-0.7
		c-0.1-0.4-0.4-0.6-0.6-0.8c-0.2-0.2-0.4-0.5-0.5-0.8c-0.1-0.3-0.3-0.5-0.6-0.7c-0.2-0.2-0.5-0.3-0.8-0.5c-0.1-0.1-0.1-0.2-0.2-0.3
		c-0.2-0.2-0.3-0.4-0.5-0.5c-0.7-0.4-1.3-1-2.2-1.3h-1c-0.4-0.2-0.7-0.3-1-0.5c-0.3-0.6-0.1-1.2-0.1-1.9c0-0.6-0.1-1.2-0.1-1.8
		c-0.2-0.4-0.3-0.7-0.5-0.9c-0.2-0.2-0.4-0.3-0.6-0.5c0-0.5,0-0.9-0.1-1.3c-0.2-0.5-0.3-0.9-0.3-1.4c0-0.1-0.1-0.2-0.1-0.3
		c-0.2-0.3-0.2-0.6-0.2-0.9c0-0.2-0.1-0.3-0.1-0.5c-0.2,0.3-0.2,0.3-0.2,2.2c0,0.8,0,1.6,0,2.4c0,0.7,0,1.5,0,2
		c0.1,0.4,0.2,0.7,0.2,0.9c0,0.8,0,1.6,0.3,2.4c-0.2,0.2-0.4,0.2-0.5,0.1c-0.3-0.2-0.5-0.5-0.7-0.7C42.1,42,42,41.5,41.8,41
		c0-0.9-0.1-1.7-0.1-2.6c-0.1-0.2-0.2-0.4-0.2-0.5c0.1-0.7,0.5-1.4,0.1-2.1c0-0.2,0.1-0.3,0.1-0.5c-0.1-0.2-0.1-0.4-0.2-0.5
		c0-0.7,0-1.4,0-2.1c0-0.1,0.1-0.2,0.1-0.4c0.2-0.3,0.4-0.6,0.6-0.9v-0.8c-0.3-0.5-0.7-1-1-1.5c0,0-0.1-0.1-0.1-0.1
		c0,0-0.1-0.1-0.2-0.1c-0.3,0.4-0.1,0.8,0.1,1.2c-0.4,0.7-0.3,1.3,0.1,2c0,0.3,0.1,0.6,0.1,0.9c0,1.5,0,3,0,4.4
		c-0.1,0.3-0.3,0.5-0.3,0.7v3.4c0.4,0.8,0.7,1.5,1.1,2.2c0,0.1,0,0.2-0.1,0.3c-0.1,0.1-0.4,0.1-0.5,0c-0.1-0.1-0.3-0.3-0.4-0.4
		c-0.2-0.5-0.6-0.8-0.9-1.2c0-0.2,0-0.4-0.1-0.6c-0.1-0.2-0.2-0.4-0.3-0.6c0-1,0-1.9,0-2.9c0-0.2,0-0.5,0-0.7
		c0.1-0.2,0.2-0.4,0.3-0.6v-1.6c-0.1-0.2-0.2-0.4-0.3-0.6c0-0.3,0-0.7,0-1.1c0-1,0-2-0.1-3c0-0.1-0.1-0.2-0.1-0.3
		c-0.1,0-0.2-0.1-0.3-0.1c-0.1,0-0.2,0.3-0.2,0.5c0,0.1,0.1,0.2,0.2,0.4c-0.1,0.2-0.1,0.3-0.2,0.6v5.6c0.1,0.3,0.2,0.5,0.3,0.8
		c0,1.1,0.1,2.3,0.1,3.4c-0.1,0.2-0.2,0.5-0.3,0.6c-0.3,0.9,0.2,1.5,0.4,2.2c0.3,0.2,0.5,0.5,0.8,0.8c0.2,0.3,0.6,0.4,0.9,0.7
		c0.1,0.1,0.3,0.3,0.3,0.4c0.2,0.4,0.5,0.7,0.8,1c0.5,0.4,0.8,0.9,1.4,1.2c1,1,2,1.9,3,2.9c0,0,0.1,0.1,0.1,0.2
		c0.1,0.5,0.6,0.8,0.8,1.3c0,0.3,0,0.6,0,0.9c-0.2,0.2-0.3,0.4-0.5,0.6c-0.5,0.6-1.1,1-1.5,1.7c-0.6,0.8-1.3,1.5-2,2.3
		c-0.2,0.2-0.3,0.4-0.5,0.6c-0.7,1-1.4,2-2.3,2.9c-0.4,0.4-0.9,0.9-1.2,1.4c-0.4,0.6-0.9,1.2-1.5,1.7c-0.6,0.6-1.1,1.2-1.8,1.6
		c-0.6,0.4-1.2,0.9-1.6,1.6c-0.7,1-1.5,1.8-2.3,2.7c-0.8,0.8-1.4,1.8-2.2,2.6c-0.3,0.7-0.9,1.2-1.4,1.7C28.1,75.3,27.5,75.8,27,76.4
		 M55.8,16.7c-0.1,0-0.2-0.1-0.4-0.1c-0.1-0.4-0.3-0.8-0.4-1.2c-0.1-0.5,0-1-0.2-1.5c-0.1,0.1-0.2,0.1-0.2,0.2c0,0.4,0,0.7-0.1,1.1
		c-0.1,0.4-0.3,0.8-0.3,1.3c0,0.2-0.2,0.4-0.5,0.5c-0.5-0.1-0.5-0.7-0.8-0.9c-0.1,0-0.2,0.1-0.4,0.1c-0.1-0.1-0.2-0.1-0.3-0.2
		c-0.1,0-0.2,0.1-0.2,0.2c0.1,0.3,0.2,0.6,0.3,0.9c-0.4,0.6-0.4,0.6-0.8,0.6c-0.5-0.1-0.5-0.7-0.8-0.9c-0.8,0.4-0.8,0.4-1.5,0.1
		c-0.2,0.1-0.4,0.3-0.5,0.6c0.1,0.1,0.1,0.3,0.2,0.5c0.2,0.3,0.2,0.7,0.1,1.1c0,0.1-0.1,0.2-0.2,0.3h-0.3c-0.7-0.4-0.9-1.2-1.4-1.7
		c-0.2,0-0.2,0.1-0.2,0.2c0.1,0.2,0.2,0.5,0.2,0.7c0,0.1,0,0.1,0,0.2c-0.1,0.2-0.3,0.4-0.2,0.7c0.3,0.2,0.6,0.5,0.9,0.8v0.4
		c-0.2,0.2-0.4,0.3-0.7,0.2c-0.3-0.1-0.6-0.2-0.8-0.3c-0.4,0.2-0.7,0.6-1,1c0.1,0.1,0.1,0.3,0.2,0.5c0.2,0.4,0.1,0.6-0.2,0.7
		c-0.2,0.1-0.4,0.1-0.5,0.1c-0.2,0.1-0.4,0.2-0.6,0.4c-0.1,0.4,0.2,0.6,0.3,0.9c0.1,0.3,0.1,0.6-0.2,0.8c-0.2,0-0.5,0.1-0.7,0.1
		c0.1,0.4,0.7,0.6,0.5,1.2c-0.2,0.2-0.4,0.2-0.7,0.2c-0.3-0.2-0.6-0.4-0.9-0.6c-0.1,0.4-0.1,0.7-0.2,1c-0.1,0.4-0.6,0.4-0.7,0.7
		c0,0.5,0.6,0.6,0.7,1.1c0.1,0.5,0.5,0.7,0.7,1.1c0,0.3,0.1,0.6,0.1,0.9c0.3,0.6,0.6,1.1,0.9,1.7c0.1,0.1,0.2,0.3,0.4,0.4
		c0.3,0.3,0.6,0.7,0.6,1.1c0,0.2,0.1,0.4,0.2,0.5c0.4,0.6,0.5,1.4,0.8,2.1c0.1,0.2,0.1,0.5,0.2,0.7c0.2,0.3,0.3,0.7,0.3,1.1
		c0,0.5,0.3,0.8,0.3,1.2c0.1,1.1,0.1,1.1,0.6,2.3c0.4,0.2,0.8,0.4,1.2,0.6c0.4,0.3,0.8,0.6,1.2,0.8c0.4,0.2,0.7,0.6,1,0.9
		c0.4,0.5,1,0.7,1.4,1.1c0.3,0.5,0.6,1,0.9,1.5c0.5,0.4,0.5,1.1,1.2,1.5c0.2-0.1,0.5-0.2,0.8-0.2c0.3-0.1,0.6-0.1,0.8-0.1
		c1.2-0.5,1.9-1.4,2.7-2.2c0.4-0.2,0.7-0.4,1.1-0.6c0.4-0.2,0.8-0.3,1.2-0.4c0.1-0.1,0.1-0.2,0.1-0.2c0.1-0.1,0.2-0.2,0.2-0.3
		c0.6,0,1-0.4,1.4-0.6c0.4-0.5,0.8-1,1.2-1.4c0.1-0.4,0.1-0.7,0.2-0.9c0.3-0.4,0.7-0.6,0.9-1c0.3-0.6,0.9-1.1,1.2-1.6
		c0.2-0.7,0-1.4,0.1-2c0.1-0.2,0.3-0.5,0.3-0.7c0-0.6,0.3-1.2,0.6-1.8c0.9-1.9,1.1-2.3,2.4-4c0.1-0.1,0.1-0.2,0.2-0.4
		c-0.1-0.3-0.2-0.6-0.4-1c0.1-0.2,0.2-0.5,0.2-0.7c0-0.1,0-0.2-0.1-0.3c-0.3,0.2-0.6,0.4-1,0.3c-0.2-0.2-0.3-0.4-0.2-0.6
		c0.1-0.2,0.2-0.3,0.3-0.5c0-0.3,0.1-0.7,0.1-0.9c0.2-0.3,0.4-0.5,0.6-0.8v-0.3c-0.2-0.1-0.4-0.3-0.6-0.4c0-0.1,0-0.3,0-0.4
		c0.1-0.2,0.2-0.3,0.2-0.5c0-0.1,0-0.2-0.1-0.3c-0.2,0.1-0.4,0.3-0.7,0.2c-0.3-0.2-0.3-0.5-0.2-0.8c0.2-0.3,0.4-0.6,0.6-0.9
		c0.1-0.1,0-0.2-0.1-0.3c-0.4,0.1-0.6,0.7-1.2,0.5c-0.2-0.2-0.5-0.4-0.7-0.6c0,0-0.1,0-0.2-0.1c-0.2,0.1-0.4,0.2-0.6,0.3
		c-0.1,0-0.1,0-0.2,0C65,21.5,65,21.2,65.2,21c0.2-0.2,0.4-0.3,0.6-0.5c0.3-0.5,0.7-0.9,1-1.3c0.3-0.7,0.6-1.4,0.8-2.1
		c0.1-0.2,0.1-0.5-0.1-0.6c-0.7,0.3-0.8,1.1-1.4,1.6c-0.2,0.1-0.6,0.3-0.9,0.5c-0.4,0-0.7,0-0.7-0.3c-0.1-0.5-0.6-0.5-0.8-0.8
		c0-0.2,0-0.3-0.1-0.5c0-0.1-0.1-0.2-0.2-0.2c-0.1,0-0.3,0-0.3,0.1c-0.1,0.1-0.2,0.3-0.3,0.4c-0.1,0-0.2,0.1-0.4,0.1
		c-0.1-0.1-0.3-0.2-0.5-0.3c-0.1,0-0.1,0-0.2,0c-0.1,0-0.2,0.1-0.3,0.2c-0.5,0.3-0.6,0.2-0.7-0.3c0.1-0.2,0.2-0.5,0.3-0.6
		c-0.1-0.7-0.6-0.7-0.9-0.9c-0.1-0.2-0.2-0.3-0.3-0.5c0,0-0.1,0-0.1,0.1c-0.1,0.5-0.3,1-0.5,1.4c-0.1,0.1-0.2,0.1-0.3,0.2
		c-0.2-0.1-0.4-0.2-0.7-0.3c-0.3-0.1-0.8,0.2-1.2-0.3c-0.1-0.6-0.1-1.3,0-2c0.1-0.2,0.2-0.5,0.3-0.7c0-0.3,0.1-0.6,0.1-0.9
		c0-0.1,0.1-0.1,0.1-0.2c0-0.1,0.1-0.1,0.1-0.2c0.1-0.3,0.1-0.4,0-0.5c-0.1-0.1-0.4,0.1-0.4,0.2c-0.2,0.5-0.4,1-0.6,1.7v2.1
		C56.2,16.1,56.1,16.5,55.8,16.7 M18.5,98.3c-0.3,0.6-0.8,1.2-1.3,1.7c-1.8,1.8-3.6,3.6-5.4,5.4c-0.4,0.4-0.9,0.9-1.3,1.4
		c0.1,0.1,0.2,0.2,0.3,0.2c0.5,0,1,0,1.5,0c0.5-0.4,1.2-0.2,1.8-0.5c0.6-0.3,1.3-0.3,1.8-0.9c0.3-0.1,0.6-0.3,0.9-0.4
		c2.5-0.1,5.1,0,7.5,0c0.4,0.1,0.6,0.2,0.9,0.3c1.4,0,2.8,0,4.3,0c1.4,0,2.9,0,4.4,0.1c0.3,0.5,0.6,0,1,0c0.2,0.1,0.5,0.2,0.7,0.2
		c1.4,0,2.9,0.1,4.2,0.1c0.2,0.1,0.4,0.2,0.6,0.3c0.7,0,1.3,0.1,2,0.1c0.3,0.1,0.5,0.2,0.7,0.3c1.3,0,2.5,0.1,3.7,0.1
		c0.3,0.1,0.5,0.2,0.7,0.3c0.6,0,1.1,0.1,1.6,0.1c0.6,0.3,1,0.5,1.5,0.7c0.2,0.1,0.5,0,0.7-0.2c0.2-0.5,0-1.1,0-1.6
		c-0.1-0.2-0.2-0.5-0.3-0.7c0-1.6,0-3.1,0-4.7c0-0.2,0-0.4-0.2-0.4c-0.2,0.1-0.5,0.2-0.7,0.2c-0.1-0.1-0.2-0.2-0.3-0.3
		c0-0.1,0-0.3,0-0.4c0.1-0.2,0.2-0.4,0.3-0.7c-0.3-0.4-0.8-0.8-1.3-1c-0.3-0.1-1.7-0.6-1.9-0.6c-0.5,0-1-0.1-1.4-0.3
		c-0.3-0.2-0.7-0.1-1.1-0.2c-0.4-0.1-0.7-0.2-1.1-0.2c-0.4,0-0.7,0-1,0c-0.3-0.1-0.5-0.2-0.7-0.3c-1,0-2.1-0.1-3.1-0.1
		c-0.2-0.1-0.4-0.2-0.3-0.1c-0.9-0.3-1.6-0.1-2.1-0.3c0-0.2,0.1-0.3,0.1-0.5c-0.2,0-0.4-0.1-0.6-0.1c-1.4,0-2.7,0-4.1,0
		c-0.3,0.1-0.5,0.2-0.8,0.3H29c-0.2-0.1-0.4-0.3-0.8-0.3c-0.2,0.2-0.5,0.4-0.9,0.7c-0.4-0.1-0.8,0.3-1.3,0.4c-0.3,0-0.5,0-0.8,0.1
		c-0.5,0.3-1,0.5-1.6,0.7c-0.1,0-0.3-0.1-0.5-0.1c-0.5-0.3-1.1-0.2-1.6-0.2c-0.5,0.4-1.2,0.2-1.7,0.5C19.5,97.7,19.2,98.1,18.5,98.3
		 M81.2,97.3c-0.8-0.3-1.5-0.5-2.2-0.1c-0.1,0.1-0.4,0.1-0.5,0c-0.5-0.3-1.1-0.3-1.6-0.3c-1.2,0-2.4,0-3.5-0.1
		c-0.2-0.1-0.4-0.1-0.6-0.2c-0.5,0.2-1.1,0.3-1.6,0.1c-0.3-0.1-0.6-0.2-0.9-0.2c-1,0-2,0-3,0c-0.2,0.1-0.5,0.3-0.7,0.4h-4
		c-0.4,0.1-0.7,0.3-1,0.3c-0.3,0-0.6-0.1-0.8-0.1c-0.4,0.1-0.6,0.2-0.8,0.2c-0.3,0-0.6,0-0.9,0.1c-0.4,0.1-0.8,0.3-1.3,0.3
		c-0.5-0.1-0.9,0.3-1.4,0.4c-0.4,0.1-0.7,0.1-1.1,0.3c-0.4,0.2-0.8,0.2-1.2,0.4c-0.3,0.2-0.5,0.3-0.6,0.6c-0.1,0.3-0.6,0.5-0.7,0.9
		c0.1,0.2,0.2,0.5,0.2,0.8c0.1,0.4,0.1,0.7,0.1,1.1c0,0.9,0,1.9,0.1,2.8c0,0.1,0,0.2,0.1,0.4c0.1,0.3,0.2,0.5,0.4,0.8
		c0.2,0,0.4,0.1,0.6,0c0.5-0.2,0.9-0.4,1.4-0.6c0.5-0.2,0.9-0.3,1.4-0.5c0.4-0.1,0.9,0,1.3-0.2c0.1-0.2,0.1-0.4,0.2-0.7
		c0.8-0.5,1.6-1,2.5-1c0.2,0,0.5-0.2,0.8-0.3c0.7,0,1.5,0,2.3-0.1c0.2-0.1,0.3-0.2,0.6-0.3c1.1,0,2.3,0,3.5,0c1.2,0,2.4,0,3.6,0
		c3,0,3,0,3.4,0.2c-0.1,0-0.1,0.1-0.2,0.1c-2.1,0-4.1,0.1-6.1,0.1c-0.2,0.1-0.4,0.1-0.5,0.2c-0.5-0.3-1.1-0.4-1.6-0.1
		c-0.5,0.3-0.9,0.1-1.4-0.1c-0.2,0.1-0.4,0.1-0.5,0.2c-0.9,0-1.8,0.1-2.7,0.1c-0.2,0.1-0.4,0.2-0.7,0.3c-0.3,0.1-0.6,0.1-0.9,0.3
		c-0.2,0.1-0.5,0.1-0.5,0.4c0.5,0.3,0.8,0,1.3-0.2h9.4c0.3,0.1,0.6,0.2,0.7,0.3c0.8,0,1.4,0.1,2,0.1c0.4,0.1,0.6,0.2,0.8,0.3
		c1.1,0,2.1,0.1,3,0.1c0.6,0.4,1.4,0.2,2,0.6c0.6,0.1,1.2,0.1,1.8,0.2c0.2,0.1,0.3,0.2,0.5,0.2c0.7,0,1.4,0.1,2,0.1
		c0.4,0.3,0.8,0.4,1.3,0.4c0.4,0,0.9,0.1,1.3,0.3c0.6,0,1.1,0.1,1.7,0.1c0.6,0.3,1.3,0.2,2,0.3c0.2,0,0.4,0,0.5,0
		c0.3,0.1,0.6,0.3,0.8,0.3c0.6,0.1,1.2,0.1,1.8,0.4c0.6,0,1.1,0.2,1.6,0.4c0,0,0.1-0.1,0.1-0.1c-0.1-0.4-0.1-0.7-0.3-1.1
		c-0.1-0.3-0.3-0.7-0.4-1c-0.1-0.4-0.3-0.7-0.5-1c-0.1-0.2-0.2-0.5-0.2-0.7c-0.2-0.8-0.5-1.7-1.1-2.3c0,0,0-0.1-0.1-0.2
		c-0.6-1-1.3-2-2-2.6c-0.6-0.4-1-0.6-1.3-0.9c-0.1-0.1-0.2-0.3-0.3-0.4c0-0.2,0.1-0.3,0.1-0.4c-0.3-0.2-0.7-0.3-1-0.5
		c-0.6,0-1.3-0.1-1.9-0.1c-0.6-0.2-1.2-0.4-1.8-0.1c0.2,0.2,0.4,0.2,0.7,0.2c0.2,0,0.2,0.1,0,0.2C83.5,97.4,82.4,97.2,81.2,97.3
		 M31.4,58.7c0.4,0,0.8,0,1.2,0c0.7,0,1.3,0.2,2,0.4c0.5,0.2,1,0.4,1.5,0.8c0.4,0.3,0.7,0.7,1.1,1c0.3,0,0.5,0.1,0.8,0.1
		c0.3,0,0.5,0.3,0.9,0.2c0.6-0.6,1.3-1.2,1.9-1.9c0.1-1.2-0.7-2-0.9-3c-0.3-0.3-0.6-0.5-0.8-0.7c-0.3-0.1-0.4-0.1-0.7-0.1
		c-0.4-0.3-0.9-0.6-1.3-0.9c-0.1-0.7,0-0.8,0.8-0.8c1.2,0.6,2.3,1.2,3.3,2c0.1,0.1,0.3,0.1,0.5,0.2c0.2-0.2,0.2-0.5,0.2-0.7
		c0-0.3,0.2-0.6,0.5-0.7c0.3,0,0.7-0.1,1-0.1c0.3-0.3,0.6-0.5,0.9-0.7c0.2,0,0.4,0,0.6,0c0.3-0.2,0.6-0.3,1-0.5c0-0.1,0-0.2-0.1-0.4
		c-0.5-0.5-1.1-1.1-1.7-1.7c-0.4-0.4-0.8-0.6-1.2-0.9c-0.3-0.2-0.7-0.4-0.7-0.8c-0.1-0.5-0.8-0.5-0.8-1c-0.3-0.3-0.6-0.7-0.9-1
		c-0.5-0.5-1-1.1-1.5-1.7c-0.1-0.2-0.4-0.3-0.5-0.4c-0.2-0.5-0.3-0.9-0.5-1.4c0-0.8,0-1.8,0-2.7c0-0.2-0.1-0.3-0.2-0.5
		c-0.2,0-0.4,0-0.5,0c-1.4,0.5-2.5,1.4-3.8,2.1c-0.7,0.7-1.5,1.5-2.2,2.2c-0.2,0.2-0.4,0.5-0.6,0.7c-0.6,1.1-1.2,2.2-1.6,3.3
		c-0.3,0.8-0.5,1.5-0.8,2.3c-0.2,0.6-0.4,1.2-0.4,1.8c-0.3,0.4-0.3,0.9-0.3,1.4c0,0.2,0,0.4-0.1,0.5c-0.2,0.3-0.2,0.7-0.2,1.1
		c0,0.4-0.1,0.7-0.3,1.1c-0.3,0.5,0,1.1-0.4,1.6c0,0,0,0.1,0,0.2c0,0.1,0.1,0.2,0.2,0.2c0.3,0,0.5-0.2,0.8-0.2c0.3,0,0.7-0.1,1-0.1
		c0.5,0,0.8-0.2,1.3-0.3C30.3,58.3,30.8,58.4,31.4,58.7 M58.3,96.2c1-0.1,2,0,3-0.4c0.2-0.1,0.5,0,0.7,0c0.4,0,0.7,0,1.1,0
		c0.4,0,0.7-0.2,1.1-0.3c0.8,0,1.6-0.1,2.4-0.1c0.2-0.1,0.4-0.1,0.6-0.2c1.1,0,2.3-0.1,3.6-0.1c0.2-0.5,0.9-0.1,1.2-0.5
		c-0.5-0.5-1.1-0.8-1.6-1.3c-0.5-0.5-1-0.9-1.5-1.4c-0.4-0.1-0.8-0.1-1.1-0.1c-0.2-0.1-0.5-0.2-0.7-0.3c-0.5,0-0.9,0-1.3,0.2
		c-0.5,0.2-1,0.2-1.5,0.2c-1.2,0-2.5,0-3.7,0c-0.2,0-0.5,0-0.7,0.1v0.5c-0.2,0.2-0.4,0.2-0.7,0.1c-0.3-0.2-0.3-0.6-0.8-0.7
		c-1.7,0-3.6,0-5.4-0.1c-0.3-0.1-0.5-0.2-0.7-0.3c-0.3-0.1-0.6,0-0.9,0.1c-0.1,0-0.2,0-0.3,0c-0.2,0-0.5-0.1-0.7-0.1
		c-1.2,0-2.5,0-3.7,0c-0.6,0-1.1,0-1.7-0.1c-0.3-0.3-0.7,0-1.1-0.1c-0.4-0.1-0.9-0.1-1.3-0.1c-0.6,0-1.1,0-1.6,0
		c-0.3-0.1-0.4-0.2-0.6-0.2c-0.5,0.2-0.5,0.2-0.9,0.1c-0.4-0.2-0.8-0.2-1.3-0.1c-0.2,0.1-0.5,0.2-0.7,0.3c-0.4,0-0.7,0-1.1-0.1
		c-0.2-0.2-0.4-0.5-0.6-0.7c-0.3,0-0.5,0-0.9,0.2c-0.2,0.2-0.4,0.4-0.7,0.7c-0.4,0.4-0.9,0.9-1.4,1.2c-0.4,0.2-0.7,0.5-1.1,0.7
		c-0.3,0.2-0.6,0.4-0.8,0.8c0.1,0.1,0.2,0.2,0.3,0.2c0.6,0,1.1,0,1.7,0c1.4-0.1,2.7,0,4.1,0.1c0.2,0.1,0.4,0.2,0.6,0.2
		c0.5,0,1.1,0.1,1.6,0.1c0.4,0.2,0.8,0.3,1.3,0.3c0.5,0,0.8,0.2,1.3,0.3c0.7,0,1.3,0.1,1.9,0.1c0.2,0.1,0.4,0.2,0.6,0.3
		c0.4,0,0.9,0.1,1.2,0.1c0.4,0.1,0.7,0.3,1,0.3c0.3,0.1,0.6,0.1,0.9,0.2c0.3,0.2,0.7,0.2,1,0.4c0.4,0.2,0.8,0.4,1.2,0.6h1.3
		c0.3-0.2,0.5-0.5,0.8-0.8c0.2,0.1,0.4,0.1,0.5,0.2c0.3,0.3,0.5,0.6,0.7,0.9c0.5,0.1,1,0.1,1.4-0.1c0.5-0.2,1-0.1,1.4-0.3
		c0.5-0.3,1.1-0.2,1.6-0.3C57.7,96.4,57.9,96.3,58.3,96.2 M26,65.9c-0.1,0.2-0.2,0.5-0.3,0.7c-0.1,0.7-0.1,1.4-0.4,2
		c0.1,0.6-0.4,1.2-0.4,1.8c-0.4,0.6-0.3,1.3-0.6,1.9c-0.4,1.6-1.2,3-1.4,4.6c-0.3,0.4-0.3,0.9-0.3,1.4c-0.1,0.2-0.2,0.5-0.3,0.6
		c0,0.6,0,1.1,0,1.6c0,0.1,0.1,0.1,0.1,0.2c0.6-1.5,0.8-1.8,1.5-2.9c0.2-0.5,0.7-0.9,0.9-1.4c0.2-0.3,0.4-0.6,0.7-0.9
		c0.6-0.6,1.1-1.2,1.7-1.7c0.6-0.5,1-1.3,1.6-1.8c0.8-0.7,1.5-1.5,2.2-2.3c0.9-1,2-1.9,2.7-3c0.2-0.3,0.5-0.6,0.7-0.8
		c0.3-0.3,0.5-0.5,0.7-0.8c0.2-0.5,0.3-0.9,0.5-1.3c0.2-0.3,0.2-0.7,0-1.1c-0.8-0.8-0.8-0.8-2.3-1.7c-1.7,0-3.6,0-5.4,0
		c-0.3,0-0.6,0-1,0.3c-0.2,0.2-0.4,0.5-0.6,0.7c0,0.6-0.1,1.2-0.1,1.7c-0.1,0.2-0.2,0.4-0.3,0.6C26.1,64.7,26.1,65.3,26,65.9
		 M29.8,107.7c-1.8,0-3.7,0-5.5,0c-1.9,0-3.7,0-5.5,0.1c-0.3,0.1-0.4,0.2-0.7,0.3c-0.4,0-0.9,0-1.4,0c-0.5,0-1-0.1-1.5,0.2
		c0,0,0.1,0.1,0.1,0.1c2,0.1,4.1,0,6,0.1c0.4-0.1,0.6-0.3,1-0.3c0.1,0.1,0.2,0.1,0.3,0.2c0.9-0.2,0.9-0.2,2.6-0.2
		c0.8,0.3,0.8,0.4,1.4,0.1c0.5-0.2,1-0.1,1.5,0.1c1.5,0,3,0,4.6,0c2,0,4,0,6,0c0.3,0,0.6,0,0.9-0.1c0,0,0.1-0.1,0.1-0.1
		c0-0.1,0-0.3-0.1-0.3c-0.2-0.1-0.5-0.1-0.7-0.1c-1.4,0-2.7-0.1-4.1-0.1c-0.5,0-1-0.2-1.5-0.3c-0.5,0.3-1,0.3-1.6,0
		c-0.3,0.1-0.5,0.1-0.7,0.2c-0.3-0.1-0.5-0.3-0.8-0.2C30.3,107.5,30.1,107.6,29.8,107.7 M71.3,37.5C71.2,37.7,71,38,71,38.3
		c0,0.5-0.2,0.8-0.4,1.3c0,0.5,0,1.1-0.1,1.6c-0.4,0.7-0.4,1.5-0.8,2c-0.5,0.6-1,0.9-1.3,1.5c-0.1,0.5-0.1,0.5,0.1,0.9
		c0.6-0.4,0.9-1,1.6-1.3c0.6-0.6,1.1-1.2,1.2-2c0-0.3,0.1-0.6,0.2-0.9c0.2-0.5,0.3-0.9,0.4-1.4c0.1-0.4,0.1-0.9,0.1-1.3
		c0-0.1,0-0.2,0-0.2c0.1-0.4,0.2-0.7,0.3-0.8c-0.1-0.2-0.2-0.4-0.3-0.6v-0.9c0.1-0.1,0.2-0.2,0.3-0.3c0.3-0.1,0.4-0.3,0.3-0.6
		c-0.1-0.2-0.2-0.3-0.2-0.5v-1.3c0.1-0.2,0.2-0.4,0.3-0.6c0-0.5,0-1,0.3-1.5c0.1-0.2,0.1-0.5-0.1-0.7c-0.3-0.1-0.5,0-0.6,0.2
		c-0.2,0.4-0.4,0.7-0.6,1.1c0,1.1,0,2.2-0.1,3.1c-0.1,0.3-0.2,0.5-0.3,0.6C71.4,36.4,71.4,36.9,71.3,37.5 M79.4,27.9
		c0.4,0.3,0.9-0.1,1.2,0.3c0.1,0.3,0.3,0.6,0.5,1c0,0.4,0,0.7,0,1.1c0,0.1,0.1,0.2,0.2,0.2c0.6-0.4,0.8-1.1,1.3-1.5
		c0.4-0.4,0.5-0.8,0.7-1.3c0-0.3,0.1-0.6-0.1-0.9c-0.5-0.3-1-0.4-1.5-0.5c-0.5,0-0.9-0.1-1.4,0.1C79.9,26.7,79.6,27.2,79.4,27.9
		 M63.1,8.4c-0.5-0.6-1.1-1.2-1.7-1.6c-0.4,0-0.7-0.1-1-0.1c-0.2-0.1-0.3-0.2-0.6-0.3c-0.2,0.1-0.4,0.1-0.7,0.2
		c-0.1-0.1-0.3-0.1-0.5-0.3h-1.5c-0.4-0.1-0.6-0.4-1-0.3c0,0.1-0.1,0.3-0.1,0.5c0.1,0.1,0.2,0.2,0.3,0.2c0.8,0,1.5,0.5,2.3,0.5
		c0.1,0,0.2,0.1,0.3,0.1c0.6,0.2,1.2,0.4,1.7,0.6c0.6,0.3,1.3,0.4,1.9,0.7C62.8,8.5,62.9,8.4,63.1,8.4 M74.2,8.1
		c0.2-0.4,0.4-0.8,0.6-1.1c0-0.5,0.1-1.1-0.1-1.7c-0.1-0.1-0.3-0.3-0.5-0.4c-0.4-0.1-0.8-0.2-1.2-0.1c-0.5,0.4-0.5,0.4-0.5,0.9
		c0.2,0.4,0.7,0.5,1,0.8c0.4,0.5-0.2,0.9-0.2,1.4C73.6,8.2,73.6,8.2,74.2,8.1 M50.2,61.8c-0.4,0.5-0.8,0.9-1.2,1.4
		c-0.6,0.8-1.3,1.7-1.6,2.7c0,0,0.1,0.1,0.1,0.1c0.1-0.1,0.2-0.1,0.3-0.2c0.8-0.8,1.6-1.7,2.4-2.5c0.1-0.4,0.4-0.7,0.4-1
		C50.6,62.1,50.5,61.9,50.2,61.8 M82.6,32.2h-0.6c-0.1,0.1-0.4,0.3-0.5,0.5c-0.3,0.5-0.6,1.1-0.8,1.6c0,0.4-0.1,0.8,0.1,1.1
		c0.1,0,0.2,0,0.5,0c0.1-0.8,1-0.9,1.5-1.5c-0.1-0.2-0.1-0.5-0.2-0.7c0.1-0.2,0.2-0.4,0.2-0.5C82.9,32.5,82.9,32.3,82.6,32.2
		 M18.6,106.7c1.6,0,3.1-0.1,4.5-0.1c0.1,0,0.1,0,0.2-0.1c0-0.1,0-0.1-0.2-0.2h-1c-0.4-0.1-0.6-0.4-0.9-0.3
		c-0.2,0.1-0.5,0.2-0.6,0.2c-0.8,0-1.6,0-2.2,0.1c-0.4,0.1-0.7,0.3-1,0.4c-0.3,0.1-0.6,0-0.8,0.2c0.1,0,0.1,0.1,0.2,0.1
		c0.4,0,0.9,0,1.3,0C18.1,106.9,18.3,106.8,18.6,106.7 M67.5,89.9c-0.2-0.2-0.3-0.3-0.5-0.5c-0.2,0-0.4-0.1-0.6,0
		c-0.5,0.2-1.1,0.4-1.3,0.9c0,0,0.1,0.1,0.1,0.1c0.5,0,1.1,0.1,1.6,0C67.2,90.5,67.4,90.3,67.5,89.9 M64,88.5
		c0.3,0.3,0.8,0.1,1.2,0.4c0,0,0.1,0,0.2,0c0.2-0.2,0.6-0.2,0.8-0.5c0.1-0.4-0.3-0.6-0.6-0.9c-0.1,0-0.3,0-0.3,0.1
		c-0.3,0.3-0.8,0.3-1.1,0.7C64,88.3,64,88.4,64,88.5 M44.6,83.5c-0.3,0.1-0.7,0.2-1,0.6c0.1,0.5,0.4,0.8,0.9,1.1
		c0.3,0,0.5-0.3,0.6-0.6C45.2,84.2,45,83.8,44.6,83.5 M60.1,87.4c0,0.7,0,0.7,0.6,0.8c0.3-0.3,0.6-0.5,0.9-0.8c0-0.2,0-0.3,0-0.4
		c0-0.1-0.1-0.1-0.1-0.2c-0.1-0.1-0.3-0.2-0.4-0.3C60.7,86.8,60.4,87.1,60.1,87.4 M47.9,83.6c0.2,0.5,0.4,1,0.8,1.2
		c0.1-0.1,0.2-0.1,0.3-0.2c0.1-0.1,0.1-0.2,0.2-0.3c0,0,0-0.1,0-0.2c-0.1-0.3-0.2-0.7-0.6-0.9C48.4,83.3,48.1,83.5,47.9,83.6
		 M78.3,25.4c-0.1,0-0.3,0.1-0.5,0.1c0,0.4-0.4,0.7-0.4,1.1c0,0.2,0,0.3,0.2,0.4c0.4-0.3,0.9-0.7,1.2-1.2
		C78.6,25.7,78.4,25.6,78.3,25.4 M65.5,3.1c0.4,0.2,0.5,0.2,0.7,0.1c0.3-0.2,0.6-0.3,1-0.5c0.1-0.4,0-0.5-0.2-0.5
		c-0.2,0-0.4,0-0.5,0C66,2.5,65.6,2.7,65.5,3.1 M56.7,84.3c-0.2-0.2-0.3-0.3-0.5-0.5c-0.7,0.2-0.8,0.3-0.9,0.9
		c0.1,0.2,0.3,0.3,0.5,0.5C56.4,84.8,56.4,84.8,56.7,84.3 M54.9,85.5c0-0.3-0.2-0.6-0.6-0.6c-0.3,0-0.6,0.3-0.6,0.6
		c0,0.3,0.3,0.6,0.6,0.6C54.6,86,54.9,85.8,54.9,85.5 M55.9,62.1c-0.3,0.2-0.2,0.5-0.2,0.8c0.1,0.1,0.1,0.2,0.2,0.3
		c0.1,0.1,0.2,0.2,0.3,0.2c0.1,0.1,0.4,0.1,0.5-0.1c0-0.1,0.1-0.2,0.1-0.3c-0.1-0.3-0.3-0.6-0.5-0.9C56.1,62.1,56,62.1,55.9,62.1
		 M48.7,13.9c-0.4,0.7-0.4,0.7-0.2,1.5c0,0.2,0,0.5,0.1,0.7c0,0.1,0.1,0.2,0.2,0.2c0-0.1,0.1-0.1,0.1-0.1c0.2-0.7,0-1.3,0-2
		C48.9,14.1,48.8,14,48.7,13.9 M47.2,84.2c-0.2,0.2-0.4,0.3-0.5,0.4c-0.1,0.4-0.1,0.7,0.2,0.9c0.5,0.1,0.7-0.2,0.8-0.5
		C47.5,84.8,47.4,84.5,47.2,84.2 M45.8,83c-0.1,0.1-0.2,0.2-0.2,0.3c0,0.6,0,0.7,0.5,0.8c0.5-0.3,0.5-0.3,0.5-0.5
		c0.1-0.2,0-0.5-0.3-0.6C46.1,83,46,83,45.8,83 M59.2,88c-0.3,0.2-0.5,0.4-0.6,0.5c0,0-0.1,0.1-0.1,0.1c-0.1,0.2-0.1,0.3-0.1,0.5
		c0.1,0.2,0.3,0.2,0.6,0.1c0.1-0.1,0.2-0.3,0.3-0.4C59.5,88.6,59.4,88.3,59.2,88 M50.9,65.7c0.9-0.3,0.9-0.3,1.3-0.8
		c-0.1-0.2-0.3-0.4-0.5-0.4c-0.3,0.3-0.7,0.5-0.8,0.9C50.8,65.5,50.8,65.6,50.9,65.7 M52.8,87.1c0.1-0.1,0.2-0.1,0.3-0.2
		c0,0,0.1-0.1,0.1-0.1c0.1-0.2,0.1-0.3,0.1-0.5c-0.1-0.2-0.3-0.2-0.6-0.1c-0.1,0.1-0.3,0.2-0.3,0.4C52.3,87.1,52.3,87.1,52.8,87.1
		 M53.1,84.3c0.4,0.3,0.8,0.3,1,0c0.2-0.3,0.2-0.6-0.1-0.8c-0.3,0.1-0.5,0.3-0.8,0.4C53.1,84.1,53.1,84.2,53.1,84.3 M47.5,108.6
		c0.9,0.3,1.1,0.3,1.7,0c-0.3-0.2-0.5-0.3-0.8-0.4c-0.1,0-0.2,0-0.4-0.1C47.8,108.3,47.7,108.5,47.5,108.6 M45.2,85.9
		c0,0.1,0,0.3,0.1,0.5c0,0.2,0.3,0.3,0.4,0.2c0.1-0.1,0.2-0.1,0.2-0.2c0.1-0.4,0.1-0.7-0.2-1C45.5,85.5,45.3,85.7,45.2,85.9
		 M78.2,18.9c0.4-0.6,0.3-0.9-0.4-1.3c-0.2,0.2-0.1,0.5-0.1,0.7C77.9,18.6,78.1,18.7,78.2,18.9 M66.7,7.2c-0.2-0.2-0.4-0.4-0.5-0.6
		c-0.1-0.2-0.2-0.4-0.4-0.7c-0.1,0.3-0.2,0.4-0.2,0.6c0,0.4,0.2,0.7,0.6,0.9c0.1,0,0.2,0,0.4-0.1C66.7,7.3,66.7,7.2,66.7,7.2
		 M52.2,85.1c-0.2-0.2-0.4-0.2-0.6-0.1c-0.1,0.1-0.3,0.2-0.4,0.3c0,0.3,0.2,0.4,0.4,0.5C52,85.8,52.3,85.6,52.2,85.1 M51.8,84
		c-0.2-0.2-0.4-0.2-0.7-0.2c-0.1,0.1-0.3,0.2-0.4,0.3c-0.1,0.1-0.1,0.2-0.1,0.3c0.1,0.1,0.2,0.1,0.3,0.1c0.1,0,0.2,0,0.4-0.1
		C51.5,84.3,51.6,84.2,51.8,84 M42.4,86.7c0.3-0.4,0.2-0.7-0.1-1c-0.2-0.1-0.5-0.1-0.7,0.1C41.9,86.3,41.9,86.3,42.4,86.7
		 M63.7,89.9c-0.3,0.2-0.6,0.3-0.9,0.5c0.7,0.2,0.7,0.2,1.3,0.1c0.1,0,0.1-0.2,0-0.3C64,90.1,63.9,90,63.7,89.9 M57.4,90.5
		c0.1,0,0.1,0,0.2,0c0.3-0.1,0.3-0.4,0.1-0.5c-0.3-0.2-0.5-0.2-0.8,0C57,90.2,57.2,90.4,57.4,90.5 M72.3,95.7c0.6,0.1,1.1,0.2,1.7,0
		C73.3,95.3,72.6,95.3,72.3,95.7 M76,17.7c0.3,0.4,0.2,0.8,0.4,1.2c0,0,0.1,0,0.2,0c0-0.4,0.1-0.8-0.1-1.2
		C76.3,17.6,76.1,17.7,76,17.7 M57.3,87.1c0.1-0.1,0.3-0.3,0.5-0.5c0.1-0.1,0.1-0.3-0.1-0.4c-0.3,0.1-0.5,0.3-0.7,0.6
		c-0.1,0.1-0.1,0.2-0.1,0.3C57,87.1,57.2,87,57.3,87.1 M41.3,85.1c0.1,0,0.1-0.1,0.2-0.1c0,0,0.1-0.1,0.1-0.1
		c0.1-0.1,0.2-0.3,0.2-0.5c-0.1-0.2-0.3-0.2-0.4-0.2C41,84.5,40.9,84.8,41.3,85.1 M64.1,106.8c-0.4-0.2-0.8-0.2-1.2,0
		c0,0,0,0.1,0,0.1C63.4,107,63.7,107,64.1,106.8 M69.6,18.4c-0.2,0.1-0.4,0.3-0.4,0.5c0,0.1,0,0.2,0.1,0.3c0,0,0.1,0,0.1,0
		c0.1-0.1,0.3-0.2,0.3-0.4C69.8,18.7,69.8,18.5,69.6,18.4 M79,19.9c-0.2,0.1-0.4,0.3-0.5,0.5c-0.1,0.1,0,0.2,0.1,0.3
		c0,0,0.1,0,0.1,0c0.1-0.1,0.3-0.2,0.3-0.4C79.2,20.2,79.2,20,79,19.9 M60.2,105.7c0.4,0.3,0.8,0.2,1.2,0c0,0,0-0.1,0-0.1
		C61,105.5,60.6,105.5,60.2,105.7 M77.7,22.2c0,0.1,0,0.2,0.1,0.4c0,0.1,0.1,0.1,0.1,0.1c0.1,0,0.2,0,0.3-0.1
		c0.1-0.1,0.2-0.3,0.1-0.5C78.3,22,78.2,22,78,22.1C77.9,22.1,77.8,22.2,77.7,22.2 M50.7,86.6c-0.1-0.1-0.1-0.2-0.2-0.3
		c-0.2-0.1-0.4-0.1-0.4,0.1c-0.1,0.3,0,0.5,0.2,0.7C50.5,87,50.6,86.8,50.7,86.6 M48.4,86.3c-0.2-0.2-0.3-0.3-0.4-0.2
		c-0.1,0.1-0.3,0.2-0.4,0.4c0,0,0,0.1,0,0.2c0.1,0.1,0.2,0.2,0.3,0.1C48.1,86.7,48.3,86.5,48.4,86.3 M56.9,85.1
		c-0.2,0.1-0.4,0.3-0.5,0.5c-0.1,0.1,0,0.3,0.1,0.3c0,0,0.1,0,0.1,0c0.1-0.1,0.3-0.2,0.4-0.4C57.1,85.3,57.1,85.1,56.9,85.1
		 M49.9,85.2c0-0.1-0.1-0.2-0.3-0.2c-0.2,0-0.3,0.1-0.5,0.3c-0.1,0.1-0.1,0.2-0.1,0.3c0,0.1,0.3,0.2,0.5,0
		C49.7,85.4,49.8,85.3,49.9,85.2 M69.7,6c-0.2,0.3-0.2,0.6,0,0.9c0.3,0,0.4-0.2,0.5-0.4C70.1,6.3,69.9,6.1,69.7,6 M54,87.5
		c-0.3,0.1-0.4,0.1-0.5,0.1c-0.1,0.1-0.3,0.2-0.4,0.3c0.1,0.3,0.3,0.3,0.4,0.2C53.7,88.1,53.9,87.9,54,87.5 M42.9,87.8
		c0.1,0.1,0.1,0.3,0.2,0.4c0.2,0,0.4,0.1,0.5-0.1c0-0.1,0-0.2-0.1-0.3c-0.1-0.2-0.2-0.2-0.4-0.1C43,87.7,43,87.7,42.9,87.8
		 M58.5,87.3c-0.1,0-0.1-0.1-0.1-0.1c-0.3,0-0.5,0.2-0.7,0.5c0,0,0,0.1,0.1,0.1c0,0,0.1,0.1,0.2,0C58.2,87.8,58.4,87.6,58.5,87.3
		 M61,14.3c-0.1,0.3-0.2,0.5,0,0.8c0.2-0.4,0.2-0.4,0.2-0.6C61.2,14.5,61.1,14.4,61,14.3 M77.2,11.5c0.2-0.2,0.2-0.4,0.1-0.7
		c0-0.2-0.1-0.2-0.2-0.2c0,0-0.1,0.1-0.1,0.2C77,11,77,11.3,77.2,11.5 M62.2,88c-0.2,0.1-0.4,0.2-0.5,0.4c0.3,0.2,0.5,0.2,0.6,0
		C62.4,88.3,62.4,88.2,62.2,88 M51.2,88.2c0.2,0,0.3-0.1,0.3-0.3c0-0.1,0-0.1-0.1-0.2c-0.1-0.1-0.2,0-0.4,0.2
		c-0.1,0.1-0.1,0.2,0,0.3C51,88.2,51.1,88.2,51.2,88.2 M48.7,88.2c0.2-0.1,0.4-0.2,0.5-0.5c-0.3-0.2-0.5-0.2-0.6,0
		C48.5,87.8,48.6,88,48.7,88.2 M55.1,87c0.1-0.1,0.2-0.1,0.3-0.2c0.1-0.1,0.1-0.2,0.1-0.3c-0.1,0-0.2-0.1-0.3,0
		C55,86.6,54.9,86.8,55,87C55,87,55.1,87,55.1,87 M79.4,37.7c0.2-0.2,0.3-0.3,0.5-0.5c-0.1-0.2-0.3-0.2-0.4-0.2
		C79.3,37.2,79.3,37.3,79.4,37.7 M55.1,89.8c-0.1,0.1-0.3,0.2-0.4,0.4c0,0-0.1,0.1,0,0.2c0.1,0.1,0.2,0.2,0.3,0.1
		C55.2,90.3,55.3,90.2,55.1,89.8 M46.3,108.5c0.2,0,0.3,0,0.4,0c0.1,0,0.1-0.1,0.1-0.1c0.1-0.1,0-0.2-0.1-0.2c-0.1,0-0.2,0-0.4,0
		c-0.1,0-0.2,0-0.3,0.1C46,108.3,46.2,108.5,46.3,108.5 M51.7,109.5c0.2-0.2,0.2-0.4,0.2-0.7c0-0.1-0.1-0.2-0.2-0.2
		c0,0-0.1,0.1-0.1,0.1C51.5,109.1,51.5,109.3,51.7,109.5 M52.1,88.8c-0.2,0.1-0.4,0.2-0.4,0.5c0.3,0.1,0.4,0.1,0.5,0
		C52.2,89.1,52.3,88.9,52.1,88.8 M44.9,20c0.1,0.1,0.1,0.2,0.2,0.3c0.1,0.1,0.2,0.1,0.3,0.1c0.1-0.1,0.1-0.2,0-0.3
		C45.3,19.8,45.1,19.8,44.9,20"/>
	<path fill="#58473A" d="M53.9,40.1c0.6,0,1.1-0.1,1.5,0.2c0.7-0.3,1.5-0.2,2.1-0.2c0.9,0.2,1.5,0.8,2.1,1.3
		c0.5,0.3,0.6,0.8,0.4,1.3c0,0.1,0,0.1-0.1,0.2C59.8,43,59.6,43,59.4,43c-0.5,0-0.8-0.3-1.3-0.4h-4.2c-0.2,0.1-0.4,0.3-0.6,0.3
		c-0.4,0.1-0.8,0.2-1.2,0.4c-0.4,0.1-0.9,0.1-1.3,0c-0.1,0-0.1-0.1-0.1-0.1c0-0.1,0-0.3,0-0.3c0.3-0.3,0.6-0.5,0.7-0.8
		c0.1-0.3,0.4-0.5,0.6-0.7C52.6,40.9,53.3,40.5,53.9,40.1"/>
	<path fill="#58473A" d="M45.6,29c0-0.2,0-0.3,0.1-0.4c0.4-0.2,0.9-0.3,1.4-0.5c0.7,0,1.3-0.3,2-0.5c0.5-0.1,0.9-0.3,1.4-0.3
		c0.2,0,0.4,0,0.5-0.1c0.5-0.3,1.1-0.2,1.6-0.3c0.6,0.3,1.2,0.3,1.5,1.1c0,0.5,0.1,1.2,0.2,1.7c0.1,0.2,0.2,0.4,0.3,0.6v2
		c-0.1,0.2-0.2,0.3-0.3,0.5c0,0.5-0.1,1.1-0.1,1.6c-0.2,0.3-0.3,0.6-0.5,1c-0.2-0.6-0.2-0.6-0.1-2.5c0.1-0.2,0.2-0.5,0.3-0.7
		c0-0.5,0-1,0-1.5c0-0.3-0.1-0.6-0.2-0.9c-0.1-0.4-0.1-0.7-0.2-1.1c-0.1-0.2-0.2-0.4-0.5-0.6c-0.1,0-0.3,0-0.5,0
		c-0.4,0-0.6,0.4-1,0.4c-0.4,0-0.7,0.1-1.1,0.2c-0.2,0.1-0.5,0.1-0.7,0.1c-0.4,0-0.7,0-1,0.1c-0.2,0.1-0.4,0.2-0.6,0.3
		c-0.5,0-1.2,0.1-1.8,0.1C45.9,29.2,45.7,29,45.6,29"/>
	<path fill="#58473A" d="M51.3,36c0.5,0.1,0.7,0.7,1.3,0.9c-0.1,0,0,0,0,0c0.4,0,0.7,0,1.1,0.1c0.4,0,0.6,0.4,1,0.4
		c0.2,0,0.5,0.1,0.7,0.2c0.6-0.2,1.2-0.7,1.9-0.7c0.6-0.2,1.2-0.3,1.7-0.4c0.4-0.3,0.6-0.6,0.6-1c0-0.2,0.1-0.3,0.3-0.4
		c0.2-0.1,0.4,0.1,0.5,0.5c0,0.1,0,0.2,0.1,0.4c0,0.1,0.1,0.2,0.2,0.4c-0.1,0.2-0.2,0.5-0.4,0.8c-0.5,0.3-1.1,0.5-1.6,0.8
		c-0.6,0-1.1,0.1-1.6,0.1c-0.3,0.1-0.5,0.2-0.8,0.3c-0.6,0-1.2,0-1.8,0c-0.5-0.2-0.9-0.4-1.4-0.6c-0.3,0.2-0.7,0.4-1.1,0.2
		c-0.4-0.3-0.9-0.8-1.2-1.3C50.9,36.3,50.9,36.3,51.3,36"/>
	<path fill="#58473A" d="M62.4,29.9c0.6-0.1,1.2,0,1.8,0.3c0.7-0.1,1.3,0.4,2,0.5c0.1,0,0.1,0.1,0.2,0.2c-0.3,0.2-0.7,0.1-1.1,0.2
		c-0.1,0.1-0.3,0.3-0.5,0.3c-0.9,0.1-1.6,0.5-2.3,1.1c-0.3,0-0.5,0-0.7,0.1c-0.6-0.2-1.1-0.4-1.5-0.7c-0.5-0.3-1.1-0.2-1.5-0.6
		c-0.1-0.4,0.1-0.6,0.4-0.8c0.5-0.2,1,0,1.4-0.1c0.3,0.1,0.5,0.2,0.7,0.3c0.6,0.1,1.1,0.1,1.7,0c0,0,0.1-0.1,0.1-0.1
		c-0.2-0.1-0.3-0.2-0.5-0.2C62.4,30.1,62.4,30,62.4,29.9L62.4,29.9z"/>
	<path fill="#58473A" d="M58.9,26.2c0.4-0.1,0.7-0.1,1.1,0c0.4,0.2,0.8,0.3,1.3,0.3c0.4,0,0.7,0.1,1.1,0.3c0.8,0,1.6,0.1,2.4,0.1
		c0.5,0.5,1.2,0.1,1.7,0.6v1c-0.1,0.4-0.6,0.3-0.9,0.5c-0.7-0.4-1.5-0.6-2.2-0.7c-0.2-0.2-0.3-0.4-0.4-0.6c-0.3-0.1-0.6-0.1-0.9-0.1
		c-0.4,0-0.9,0-1.3-0.2c-0.2-0.1-0.5-0.1-0.7-0.1c-0.4,0-0.7-0.1-1.1-0.1C58.6,26.7,58.6,26.7,58.9,26.2"/>
	<path fill="#58473A" d="M49.2,32.5c-0.2-0.2-0.4-0.4-0.6-0.6c-0.3-0.1-0.5,0.2-0.8,0.2h-0.9c-0.2-0.1-0.4-0.3-0.6-0.5
		c0.1-0.2,0.2-0.3,0.3-0.5c0.7-0.2,1.5-0.1,2.3-0.2c1-0.4,2-0.7,3.2-0.9c0.3,0,0.6,0.3,0.9,0.4c-0.1,0.3-0.1,0.5-0.2,0.6
		c-0.3,0.3-0.6,0.6-1,0.8c-0.5,0.3-1.1,0.4-1.7,0.7C49.8,32.5,49.5,32.5,49.2,32.5"/>
	<path fill="#58473A" d="M57.2,43.4c0.5,0.3,1.1,0.6,1.6,0.9c0,0,0,0.1,0.1,0.1c-0.4,0.2-0.8,0.2-1.2,0.5c-1,0-2.1,0-3.1,0
		c-0.2,0-0.4,0-0.5-0.1c-0.5-0.5-0.5-0.5-0.5-1c0.2-0.1,0.3-0.3,0.5-0.5C55,43.3,56.1,43.3,57.2,43.4"/>
	<path fill="#58473A" d="M62.4,29.9c-0.5,0-1.1,0-1.6,0c-0.1-0.2-0.2-0.3-0.2-0.5c0.1-0.1,0.2-0.2,0.3-0.2c0.5,0.1,0.9,0.3,1.4,0.4
		C62.3,29.6,62.3,29.8,62.4,29.9L62.4,29.9"/>
	<path fill="#58473A" d="M32.1,103.3c0.3,0.1,0.5,0.2,0.6,0.3c0.5,0,1.1,0.1,1.7,0.1c0.2,0.1,0.4,0.2,0.6,0.3c0.5,0,1,0,1.6,0.1
		c0.2,0.1,0.3,0.2,0.7,0.3c0.4,0,1,0.1,1.6,0.1c0.2,0.1,0.4,0.2,0.6,0.3c0.4,0,0.8,0.1,1.3,0.1c0.2,0.1,0.4,0.2,0.5,0.2
		c0.7,0.1,1.5,0,2.2,0.2c0,0.4-0.3,0.6-0.6,0.6c-0.3,0-0.6,0-0.9-0.1c-0.2,0-0.5-0.2-0.7-0.2c-0.2-0.1-0.5-0.1-0.7-0.1
		c-0.2-0.1-0.4-0.2-0.6-0.3c-0.4,0-0.8-0.1-1.3-0.1c-0.2-0.1-0.5-0.2-0.7-0.3c-0.6,0-1.1-0.1-1.6-0.1c-0.2-0.1-0.4-0.2-0.6-0.3
		c-0.5,0-1.1-0.1-1.6-0.1c-0.2-0.1-0.3-0.2-0.6-0.3c-0.4,0-0.8-0.1-1.3-0.1c-0.2-0.1-0.4-0.2-0.7-0.3c-2.7,0-5.3-0.1-7.9,0
		c-0.4,0.1-0.6,0.3-0.9,0.3c-0.4,0.1-0.9,0-1.2,0.4c0,0-0.1,0.1-0.2,0.1c-0.6,0-1.1,0.2-1.6,0.4c-0.1,0-0.3,0-0.4,0
		c-0.1,0-0.2-0.1-0.2-0.2c0-0.1,0-0.3,0.1-0.3c0.4-0.2,0.8-0.3,1.3-0.5c0.5,0,1-0.1,1.6-0.1c0.2-0.1,0.3-0.2,0.6-0.3
		C25.9,103.3,29,103.2,32.1,103.3"/>
	<path fill="#58473A" d="M36.9,98.7h-2.6c-0.2-0.1-0.4-0.2-0.7-0.3c-0.7,0-1.3-0.1-2-0.1c-0.2-0.1-0.3-0.2-0.6-0.3
		c-1.6-0.1-3.3,0-4.9-0.1c-0.4,0.1-0.7,0.3-1.1,0.3c-0.6,0-1.2,0-1.8,0.3c-0.6,0-1.1,0.1-1.7,0.1c-0.5,0.4-1.1,0.8-1.7,1
		c-0.1,0.1-0.3,0-0.3-0.1c0-0.1,0-0.2-0.1-0.3c0.1-0.1,0.2-0.2,0.3-0.2c0.5-0.3,1-0.5,1.4-0.7c0.6-0.1,1.1,0,1.5-0.4
		c0.5,0,1.1-0.1,1.7-0.1c0.1-0.1,0.3-0.1,0.6-0.3c2.4-0.1,4.9-0.1,7.3,0c0.2,0.1,0.4,0.2,0.6,0.3c0.6,0,1.2,0,1.8,0.1
		c0.4,0.1,0.7,0.2,1.1,0.3c0.3,0.1,0.6,0,0.9,0.1C36.8,98.5,36.9,98.6,36.9,98.7L36.9,98.7z"/>
	<path fill="#58473A" d="M35,101c-0.3-0.1-0.5-0.2-0.7-0.3c-0.2,0.1-0.4,0.2-0.6,0.3c-0.4,0-0.6-0.2-0.7-0.5c0,0,0.1-0.1,0.1-0.1
		c0.7-0.2,1.4,0,2-0.1c0.2,0.1,0.5,0.2,0.7,0.3c0.9,0,1.9,0.1,2.7,0.1c0.2,0.1,0.4,0.2,0.6,0.3c0.5,0,1.1,0.1,1.6,0.1
		c0.2,0.1,0.3,0.2,0.5,0.3c0.4,0.2,0.9-0.1,1.3,0.2c0.3,0.3,0.7,0.1,1,0.4c-0.3,0.4-0.7,0-1,0.2c-0.3-0.1-0.5-0.3-0.7-0.4
		c-0.3,0-0.6-0.1-0.9-0.1c-0.2-0.1-0.4-0.2-0.6-0.3c-0.5,0-1.1,0-1.6-0.1c-0.2-0.1-0.3-0.2-0.6-0.3C37.2,101,36.1,101,35,101"/>
	<path fill="#58473A" d="M23.5,101c0.4-0.1,0.5-0.2,0.8-0.3c1.2,0,2.4,0,3.7,0c0.1,0,0.2,0.1,0.3,0.2c-0.1,0-0.1,0.1-0.2,0.1
		c-0.7,0-1.5,0.1-2.3,0.1c-0.2,0.1-0.4,0.2-0.7,0.3c-0.1,0-0.3,0-0.5,0c-1.2,0.1-1.2,0.1-2.7,0.6c-0.1,0-0.2,0.1-0.3,0.1
		c-0.5,0-1,0.2-1.4,0.4c-0.1,0-0.2,0-0.3-0.2c0.5-0.7,1.4-0.7,2-1.2C22.4,101,22.9,101,23.5,101"/>
	<path fill="#58473A" d="M36.9,98.8c1-0.1,2.1,0,3.1,0c0.2,0.1,0.4,0.2,0.6,0.3c0.4,0,0.7,0.1,1.1,0.1c0.4,0,0.7,0.1,1.1,0.3
		c0.3,0.1,0.7,0.1,1.1,0.2c0.3,0.1,0.5,0.3,0.8,0.4c0.1,0.1,0.1,0.3,0,0.5c-0.4-0.2-0.8-0.3-1.3-0.5c-0.5-0.1-1,0-1.4-0.4
		c-0.8,0-1.4-0.1-2.1-0.1c-0.2-0.1-0.4-0.2-0.6-0.3c-0.6,0-1.3,0-1.9-0.1C37.1,99.1,37,99,36.9,98.8L36.9,98.8z"/>
	<path fill="#58473A" d="M28.6,101.1c0.3-0.5,0.4-0.6,0.5-0.7c1.1-0.2,2.1-0.2,2.9,0c-0.3,0.3-0.7,0.1-1,0.2c-0.4,0-0.7,0-1.1,0
		C29.5,100.8,29.3,100.9,28.6,101.1"/>
	<path fill="#58473A" d="M72.9,97.7c0.2,0.1,0.4,0.2,0.7,0.3c1,0,2.1,0.1,3.1,0.1c0.2,0.1,0.4,0.2,0.6,0.3c0.7,0,1.6,0,2.3,0.1
		c0.4,0.1,0.7,0.3,1.1,0.3c0.4,0,0.7,0,1.1,0.1c0.6,0.4,1.3,0.3,2,0.5c0.1,0.1,0.2,0.1,0.3,0.1c0.3,0.1,0.6,0.1,0.9,0.1
		c0.4,0.1,0.8,0.3,1.2,0.4c-0.1,0.1-0.2,0.2-0.3,0.2c-0.3,0-0.6,0-0.9-0.1c-0.4-0.3-0.9-0.3-1.4-0.4c-0.2-0.1-0.3-0.2-0.5-0.3
		c-0.4,0-0.8,0-1.3-0.1c-0.2-0.1-0.5-0.2-0.7-0.3c-0.7,0-1.4-0.1-2-0.1c-0.2-0.1-0.4-0.2-0.6-0.3c-0.7,0-1.4-0.1-2-0.1
		c-0.3-0.1-0.5-0.2-0.7-0.3c-0.8,0-1.7,0-2.6-0.1c-0.2-0.1-0.4-0.2-0.7-0.3c-1.3-0.1-2.7,0-4.2-0.1C68.9,97.7,69.4,97.6,72.9,97.7"
		/>
	<path fill="#58473A" d="M86,104.4h-1.5c-0.3-0.1-0.5-0.2-0.7-0.3c-0.2,0-0.5,0-0.8,0c-0.3-0.1-0.7-0.2-1-0.4
		c-0.3-0.1-0.6-0.2-1-0.3c-0.5,0-1.1,0-1.8-0.1c-0.2-0.1-0.4-0.2-0.7-0.3c-0.8,0-1.8,0-2.7-0.1c-0.2,0-0.2-0.1-0.1-0.2
		c0,0,0.1-0.1,0.2-0.1c1.3,0,2.6,0,3.9,0.1c0.2,0.1,0.4,0.2,0.6,0.3c0.4,0,0.9,0.1,1.2,0.1c0.4,0.1,0.7,0.3,1,0.3
		c0.4,0.1,0.7,0.1,1.1,0.3c0.2,0.1,0.5,0.1,0.7,0.1c0.2,0,0.4,0,0.5,0.1c0.4,0.3,0.9,0.1,1.2,0.4C85.9,104.3,85.9,104.3,86,104.4
		L86,104.4z"/>
	<path fill="#58473A" d="M63.5,98.7c-0.1,0.1-0.1,0.3-0.2,0.3c-0.4,0.2-0.8,0.2-1.2,0.4c-0.7,0.1-1.4,0.4-2,0.9
		c-0.3,0.2-0.6,0.4-1,0.5c-0.1,0.1-0.4-0.1-0.5-0.2c-0.1-0.2-0.1-0.6,0.1-0.7c0.1,0,0.1-0.1,0.1-0.1c0.4,0,0.7-0.2,1-0.4
		c0.4-0.1,0.8-0.3,1.2-0.4c0.4-0.1,0.7-0.2,1-0.3C62.6,98.7,63.1,98.8,63.5,98.7L63.5,98.7z"/>
	<path fill="#58473A" d="M60.2,101.4c0.1-0.1,0.1-0.3,0.2-0.3c0.6-0.1,1.2-0.1,1.8-0.2c0.2-0.1,0.3-0.2,0.6-0.3c0.6,0,1.3,0,1.9,0
		c0.1,0,0.1,0.1,0.2,0.1c-0.1,0.1-0.1,0.2-0.2,0.2c-0.5,0-1.1,0.1-1.6,0.1c-0.2,0.1-0.4,0.2-0.6,0.3L60.2,101.4L60.2,101.4z"/>
	<path fill="#58473A" d="M71.6,100.5c-0.1,0-0.1,0.1-0.2,0.1c-0.9,0-1.8,0.1-2.7,0.1c-0.2-0.1-0.3-0.2-0.3-0.2c0,0,0.1-0.1,0.2-0.1
		c0.9,0,1.7,0,2.6,0C71.4,100.3,71.5,100.4,71.6,100.5"/>
	<path fill="#58473A" d="M78.1,101c-1.1,0-2.2,0-3.5,0c0.2-0.2,0.3-0.2,0.3-0.2c1-0.1,2-0.1,2.9,0C78,100.8,78.1,100.9,78.1,101
		L78.1,101z"/>
	<path fill="#58473A" d="M56.4,102.5c0,0.1,0,0.1,0,0.2c-0.2,0.4-0.5,0.7-0.9,0.8c-0.2-0.1-0.2-0.3-0.1-0.4c0.1-0.2,0.3-0.3,0.5-0.5
		C56,102.5,56.2,102.5,56.4,102.5L56.4,102.5z"/>
	<path fill="#58473A" d="M85.9,104.4c0.5,0,1.1,0,1.6,0.1c0.1,0,0.1,0.1,0.2,0.1c0,0-0.1,0.1-0.1,0.1c-0.5,0.1-0.9,0.1-1.4,0
		C86.1,104.6,86,104.4,85.9,104.4L85.9,104.4z"/>
	<path fill="#58473A" d="M63.5,98.8c0-0.2,0.1-0.3,0.3-0.3c0.5,0,1,0,1.6,0l0,0c0,0.2-0.1,0.3-0.3,0.3C64.5,98.7,64,98.7,63.5,98.8
		L63.5,98.8z"/>
	<path fill="#58473A" d="M80,101.4c-0.5,0-1,0-1.6,0c-0.2,0-0.3-0.2-0.3-0.3l0,0.1c0.5,0,1,0,1.6,0C79.8,101.1,79.9,101.2,80,101.4
		L80,101.4z"/>
	<path fill="#58473A" d="M65.4,98.4c0.1-0.1,0.1-0.2,0.2-0.3c0.3-0.1,0.6-0.1,0.8,0.1C66.1,98.4,65.7,98.4,65.4,98.4L65.4,98.4z"/>
	<path fill="#58473A" d="M60.1,101.4c0,0.1-0.1,0.3-0.2,0.3c-0.4,0.1-0.4,0.1-0.9-0.1C59.4,101.3,59.8,101.4,60.1,101.4L60.1,101.4z
		"/>
	<path fill="#58473A" d="M79.9,101.4c0.3,0,0.6,0,0.9,0c0.2,0,0.3,0.2,0.3,0.4l0,0c-0.3,0-0.6,0-0.8,0
		C80.1,101.7,80,101.5,79.9,101.4L79.9,101.4z"/>
	<path fill="#58473A" d="M57.5,102.2c0-0.1,0-0.1,0.1-0.2c0.3-0.3,0.6-0.2,1.1-0.1C58.2,102.2,57.8,102.1,57.5,102.2L57.5,102.2z"/>
	<path fill="#58473A" d="M81.1,101.8c0.3,0,0.6,0,0.9,0.1c0.1,0,0.1,0.1,0.2,0.1c-0.3,0.2-0.6,0.2-0.8,0.1
		C81.2,102,81.2,101.8,81.1,101.8L81.1,101.8z"/>
	<path fill="#58473A" d="M57.5,102.1c0,0.2-0.1,0.3-0.3,0.4c-0.3,0-0.6,0-0.9,0l0,0c0-0.2,0.1-0.3,0.3-0.3
		C57,102.1,57.3,102.2,57.5,102.1L57.5,102.1z"/>
	<path fill="#58473A" d="M50.6,78.8c-0.2-0.3-0.2-0.3-0.2-0.7c0.7-1.1,1.5-2,2.3-2.9c0.3-0.4,0.8-0.7,1-1.1c0.3-0.4,0.8-0.6,1-1.1
		c0.4-0.4,0.8-0.8,1.1-1.3c0.4-0.7,0.9-1.2,1.4-1.7c0,0,0.1-0.1,0.2-0.1c0.1,0,0.1,0,0.2,0c0.3,0.1,0.4,0.4,0.3,0.5
		c-0.5,0.6-0.9,1.3-1.5,1.9c-0.6,0.6-1.1,1.2-1.7,1.7c-0.5,0.5-1.1,1-1.6,1.6c-0.5,0.6-0.9,1.2-1.4,1.7c-0.2,0.2-0.2,0.6-0.5,0.8
		C51,78.5,50.8,78.6,50.6,78.8"/>
	<path fill="#58473A" d="M58,72.7c0.3-0.1,0.6-0.3,0.9-0.4c0.1,0.1,0.2,0.2,0.1,0.3c-0.3,0.6-0.8,1-1.2,1.4
		c-0.5,0.6-1.2,1.1-1.6,1.8c-0.2,0.4-0.6,0.6-0.9,0.9c-0.7,0.7-1.3,1.5-2.1,2.1c-0.2-0.1-0.3-0.1-0.5-0.2c0.1-0.3,0.2-0.5,0.4-0.7
		c0.2-0.3,0.6-0.5,0.9-0.9c0.2-0.3,0.5-0.6,0.7-0.8c0.3-0.3,0.6-0.6,0.9-0.9c0.3-0.3,0.4-0.8,0.8-1c0.4-0.2,0.4-0.6,0.7-0.8
		C57.4,73.3,57.7,73,58,72.7"/>
	<path fill="#58473A" d="M49.3,76.7c0-0.1,0-0.1,0-0.2c0-0.1,0-0.2,0.1-0.4c0.7-0.7,1.3-1.5,2-2.3c0.7-0.8,1.4-1.5,2.2-2.3
		c0.8-0.7,1.4-1.5,2.3-2.2c0.2,0.1,0.2,0.2,0.1,0.3c-0.1,0.2-0.3,0.4-0.4,0.6c-0.6,0.6-1.2,1.2-1.8,1.9c-0.3,0.3-0.5,0.5-0.7,0.9
		c-0.2,0.4-0.7,0.4-0.8,0.8c-0.8,1.1-1.8,2-2.8,2.9C49.4,76.7,49.3,76.7,49.3,76.7L49.3,76.7z"/>
	<path fill="#58473A" d="M49.3,76.7c0,0.2,0,0.4,0,0.6c-0.3,0.3-0.6,0.6-1,0.8c-0.1,0.1-0.2,0-0.3-0.1c0.1-0.2,0.2-0.4,0.3-0.7
		C48.5,77,48.9,76.8,49.3,76.7L49.3,76.7z"/>
</g>
</svg>
